{"glyphs":{"0":{"ha":775,"x_min":69,"x_max":772,"o":"m 418 885 q 347 868 364 878 q 203 684 258 818 q 150 401 147 550 q 217 157 153 249 q 410 63 285 58 q 609 174 535 67 q 690 443 683 282 q 638 728 697 603 q 476 881 578 853 q 418 885 468 882 m 443 961 q 496 956 476 961 q 654 847 589 931 q 746 658 719 763 q 768 440 772 553 q 741 278 764 356 q 676 135 718 201 q 567 28 635 68 q 413 -15 499 -12 q 153 113 246 -21 q 72 400 75 225 q 133 719 69 565 q 308 935 197 874 q 388 958 338 951 q 407 963 396 963 l 414 963 q 425 964 421 963 q 443 961 435 965 z "},"1":{"ha":417,"x_min":82,"x_max":415,"o":"m 92 782 q 104 797 94 785 l 129 825 l 157 858 q 200 904 183 888 q 217 921 210 915 q 228 928 222 925 q 261 933 243 938 q 292 904 282 928 q 300 879 297 894 q 306 825 303 858 q 306 742 307 788 q 294 82 300 554 q 375 83 339 82 q 403 73 392 83 q 415 46 415 63 q 405 17 415 29 q 378 6 394 6 q 124 4 335 4 q 96 15 107 4 q 85 43 85 26 q 96 71 85 60 q 124 82 107 82 l 217 82 q 228 744 222 557 q 228 819 229 788 l 215 807 l 188 774 l 163 744 q 150 729 153 732 q 123 717 139 718 q 95 727 107 717 q 83 753 83 738 q 92 782 82 769 z "},"2":{"ha":636,"x_min":99,"x_max":629,"o":"m 131 764 l 172 811 q 219 852 189 829 q 279 889 249 875 q 479 903 379 932 q 571 849 533 888 q 618 749 608 810 q 567 576 629 675 q 432 411 528 515 l 286 253 q 201 119 217 169 q 192 99 199 111 l 189 93 l 190 93 q 271 89 219 90 q 361 88 307 88 l 419 88 q 586 92 486 86 q 615 82 603 93 q 628 55 626 71 q 618 27 629 39 q 592 14 607 15 q 417 10 488 8 l 358 10 q 269 11 306 10 q 182 15 214 13 q 147 22 161 18 q 131 29 138 25 q 110 53 115 38 q 114 114 99 81 q 122 132 115 118 q 126 144 126 140 q 226 303 147 208 l 375 464 q 501 619 464 561 q 540 738 547 692 q 457 828 529 807 q 310 817 385 849 q 252 779 278 803 q 189 714 226 756 q 163 700 179 701 q 134 709 146 699 q 121 736 122 719 q 131 764 119 753 z "},"3":{"ha":632,"x_min":56,"x_max":640,"o":"m 190 847 q 298 893 231 875 q 429 908 365 911 q 554 872 507 907 q 613 746 614 829 q 456 539 610 624 q 545 474 506 517 q 601 383 585 432 q 602 155 640 249 q 467 21 564 61 q 268 6 381 -19 q 68 115 156 31 q 56 142 56 126 q 67 170 56 158 q 94 182 78 182 q 121 171 110 182 q 229 99 171 124 q 339 74 288 74 q 438 92 390 75 q 508 144 481 110 q 543 233 535 179 q 526 358 551 288 q 472 437 513 401 q 388 479 432 472 q 363 476 385 481 q 300 488 325 471 q 286 503 290 494 q 283 538 276 519 q 299 557 288 550 q 313 563 304 560 l 322 565 q 404 600 360 576 q 497 667 461 629 q 535 749 533 706 q 508 810 536 790 q 426 831 481 829 q 319 817 375 832 q 235 783 264 803 q 205 777 221 774 q 180 794 189 781 q 174 823 171 807 q 190 847 178 839 z "},"4":{"ha":632,"x_min":79,"x_max":619,"o":"m 493 882 q 350 597 447 782 l 236 379 l 190 292 l 176 263 q 297 258 221 260 q 457 256 374 256 q 444 514 451 408 q 454 542 443 531 q 481 556 465 554 q 509 546 497 557 q 522 519 521 535 q 535 256 529 413 q 579 257 558 257 q 608 246 596 257 q 619 219 619 235 q 608 191 619 203 q 582 179 597 179 q 536 178 561 179 l 542 32 q 531 3 542 15 q 504 -8 521 -8 q 476 2 488 -8 q 464 29 464 13 l 458 178 q 294 181 372 178 q 169 185 217 182 l 129 189 q 113 192 119 190 l 101 197 q 82 222 86 206 q 82 240 79 231 q 83 247 82 243 q 86 256 85 250 q 94 275 89 263 l 121 328 l 167 415 l 281 632 q 424 915 376 815 q 444 935 429 929 q 474 934 460 940 q 494 913 489 928 q 493 882 500 897 z "},"5":{"ha":596,"x_min":67,"x_max":601,"o":"m 126 539 q 129 646 129 596 q 126 748 129 661 q 126 854 124 835 l 107 854 q 78 865 90 854 q 67 892 67 875 q 77 920 67 908 q 104 932 88 932 q 331 938 182 935 q 550 943 479 940 q 578 932 567 943 q 590 905 590 921 q 579 877 590 889 q 553 865 568 865 q 363 860 486 863 q 206 857 239 858 q 204 754 201 842 q 207 646 207 667 l 207 594 q 253 614 233 608 q 388 617 325 635 q 497 557 450 599 q 572 455 544 515 q 600 328 600 394 q 549 156 601 233 q 415 36 497 78 q 305 3 363 10 q 187 15 247 -4 q 79 81 126 35 q 67 108 67 92 q 78 135 67 124 q 105 147 89 147 q 132 136 121 147 q 253 81 183 88 q 381 106 322 74 q 483 197 444 138 q 522 328 522 257 q 445 499 521 433 q 275 539 369 565 q 218 510 242 529 q 214 499 218 508 q 203 476 210 486 q 161 458 186 457 q 135 469 146 460 q 121 494 124 479 q 122 521 118 506 q 125 535 122 522 q 126 539 126 538 z "},"6":{"ha":650,"x_min":56,"x_max":661,"o":"m 154 472 q 372 575 274 574 q 554 506 481 576 q 649 335 628 435 q 648 208 661 269 q 590 95 635 147 q 471 22 544 43 q 317 17 388 -1 q 192 82 246 35 q 106 197 139 129 q 68 340 74 265 q 151 683 56 511 q 393 938 246 854 q 423 942 407 946 q 447 924 439 938 q 450 894 454 910 q 432 871 446 878 q 255 704 331 814 q 154 472 179 594 m 144 360 q 146 346 146 353 q 244 140 156 217 q 449 97 333 64 q 555 181 524 119 q 572 319 586 243 q 503 447 557 396 q 372 497 449 497 q 331 490 353 497 q 295 477 310 483 q 256 453 281 471 q 222 426 232 435 q 183 392 211 418 q 144 360 154 367 z "},"7":{"ha":626,"x_min":89,"x_max":631,"o":"m 128 917 q 369 922 140 917 l 521 926 q 571 928 553 928 l 585 928 l 590 928 l 592 928 l 596 928 q 600 926 597 928 q 614 919 607 925 q 631 886 631 908 q 629 868 631 878 q 618 835 626 854 q 579 753 606 806 l 550 694 l 517 632 q 497 589 504 606 q 340 24 349 258 q 328 -3 340 7 q 300 -14 317 -14 q 273 -2 283 -14 q 263 26 263 10 q 425 619 271 276 q 447 664 433 638 l 481 729 l 510 788 q 539 849 529 826 l 522 849 q 371 844 475 847 q 128 839 142 839 q 100 850 111 839 q 89 878 89 861 q 100 906 89 894 q 128 917 111 917 z "},"8":{"ha":650,"x_min":72,"x_max":672,"o":"m 374 572 q 458 657 419 606 q 514 800 519 739 q 486 853 511 835 q 417 869 460 871 q 328 846 372 868 q 260 789 283 824 q 243 722 238 756 q 279 656 249 692 q 374 572 310 621 m 307 526 q 221 606 251 569 q 167 708 176 657 q 196 833 154 772 q 292 915 231 885 q 415 947 353 946 q 531 917 483 949 q 592 806 586 878 q 521 610 599 715 q 438 524 483 561 q 594 329 542 439 q 581 61 672 169 q 462 -10 538 10 q 308 -18 386 -31 q 165 39 228 -6 q 90 163 103 85 q 163 390 72 278 q 307 526 210 449 m 371 478 q 224 342 265 394 q 168 174 154 256 q 216 99 175 129 q 319 58 257 68 q 438 64 382 49 q 522 111 494 79 q 525 294 581 181 q 460 392 500 344 q 381 471 421 439 l 371 478 z "},"9":{"ha":650,"x_min":39,"x_max":629,"o":"m 551 538 l 551 553 q 528 664 551 606 q 464 764 504 722 q 271 821 375 860 q 156 727 192 792 q 128 592 119 663 q 185 469 136 519 q 317 415 235 419 q 358 419 336 414 q 394 431 379 425 q 435 453 408 436 q 471 476 461 469 q 513 508 481 483 q 551 538 544 533 m 533 426 q 311 338 408 332 q 131 414 200 343 q 50 582 63 483 q 89 767 39 679 q 243 893 139 854 q 349 908 297 915 q 443 878 401 901 q 521 818 485 856 q 600 692 571 764 q 629 553 629 621 q 525 216 629 381 q 267 -24 421 51 q 238 -26 253 -31 q 215 -6 222 -21 q 213 24 208 8 q 233 46 218 39 q 419 201 338 97 q 533 426 501 306 z "}," ":{"ha":417,"x_min":0,"x_max":0,"o":""},"!":{"ha":158,"x_min":60,"x_max":147,"o":"m 139 860 q 145 706 143 790 q 147 563 147 622 q 147 403 147 503 q 146 257 146 304 q 135 229 146 240 q 107 218 124 218 q 79 229 90 218 q 68 257 68 240 q 69 403 68 306 q 69 559 69 500 q 67 701 69 618 q 61 854 65 785 q 71 883 60 871 q 98 896 82 894 q 126 886 114 897 q 139 860 138 875 m 131 78 q 136 72 131 78 q 142 50 142 67 q 131 22 142 33 q 103 11 119 11 q 75 22 86 11 q 64 50 64 33 q 75 78 64 67 q 103 89 86 89 q 131 78 119 89 z "},"\"":{"ha":306,"x_min":54,"x_max":296,"o":"m 133 976 q 139 754 139 918 q 128 726 139 738 q 100 715 117 715 q 72 726 83 715 q 61 754 61 738 q 56 968 61 917 q 65 997 54 985 q 91 1011 75 1010 q 119 1002 107 1013 q 133 976 132 992 m 296 976 q 294 865 296 939 q 293 753 293 790 q 282 725 293 736 q 254 714 271 714 q 226 725 238 714 q 215 753 215 736 q 217 865 215 790 q 218 976 218 939 q 229 1004 218 993 q 257 1015 240 1015 q 285 1004 274 1015 q 296 976 296 993 z "},"#":{"ha":836,"x_min":42,"x_max":840,"o":"m 260 543 q 250 339 257 449 q 635 351 514 354 q 640 553 635 442 q 439 538 551 540 q 260 543 350 536 m 257 856 q 261 621 263 744 q 438 615 350 614 q 643 632 554 618 q 650 745 646 671 q 656 856 654 819 q 669 883 657 872 q 697 893 681 894 q 724 880 713 892 q 733 853 735 868 q 728 747 732 815 q 722 650 724 679 q 768 667 749 658 q 799 668 783 674 q 820 648 814 663 q 821 618 826 633 q 801 597 815 603 q 718 568 767 581 q 713 349 713 444 q 804 342 760 346 q 831 328 821 340 q 839 299 840 315 q 825 272 838 282 q 796 264 813 263 q 713 271 756 268 q 719 93 713 178 q 710 65 721 76 q 683 51 700 53 q 655 60 667 50 q 642 88 643 71 q 635 274 635 176 q 246 261 521 276 l 233 89 q 219 62 232 72 q 191 53 207 51 q 165 67 175 54 q 156 94 154 79 l 168 257 q 88 253 125 254 q 59 263 71 253 q 47 290 47 274 q 58 319 47 307 q 85 331 68 331 q 172 335 124 332 q 182 550 179 451 q 75 567 121 557 q 51 583 60 569 q 45 612 42 596 q 62 637 49 628 q 92 642 75 646 q 183 628 131 633 q 179 853 185 746 q 189 880 178 868 q 216 893 200 892 q 244 883 232 894 q 257 856 256 872 z "},"$":{"ha":746,"x_min":61,"x_max":740,"o":"m 381 606 q 383 717 382 664 q 392 864 385 754 q 364 854 378 860 q 273 790 301 831 q 260 701 244 749 q 336 631 269 669 l 381 606 m 458 479 q 464 68 458 471 q 606 119 551 75 q 661 232 660 163 q 613 367 664 311 q 463 476 561 424 l 458 479 m 474 951 q 631 885 576 947 q 640 858 642 874 q 627 831 639 842 q 599 821 615 819 q 572 835 583 822 q 469 874 540 871 q 461 714 463 747 q 458 567 458 644 l 500 544 q 586 492 551 517 q 663 427 624 465 q 721 339 701 389 q 739 229 740 289 q 656 60 736 121 q 465 -10 576 -1 l 465 -103 q 454 -131 465 -119 q 426 -142 443 -142 q 399 -131 410 -142 q 388 -103 388 -119 l 388 -10 q 199 48 286 -1 q 68 182 113 97 q 66 212 61 196 q 85 235 71 228 q 115 237 99 242 q 138 218 131 232 q 237 115 169 154 q 386 68 304 76 q 381 519 381 479 q 297 563 325 547 q 185 679 204 618 q 206 831 158 764 q 336 928 254 896 q 396 944 364 939 q 397 1024 397 988 q 408 1051 397 1040 q 436 1063 419 1063 q 464 1051 453 1063 q 475 1024 475 1040 q 474 951 475 990 z "},"%":{"ha":879,"x_min":76,"x_max":864,"o":"m 703 249 q 657 207 669 236 q 653 143 644 178 q 688 94 663 110 q 747 92 713 79 q 782 130 772 100 q 779 197 792 160 q 742 244 767 232 q 703 249 725 253 m 686 325 q 775 314 735 333 q 853 224 829 288 q 863 147 863 186 q 840 69 864 107 q 772 17 815 32 q 649 27 701 -7 q 578 122 596 61 q 576 207 567 161 q 617 285 586 253 q 636 307 622 300 q 683 324 661 319 q 686 325 685 324 m 213 875 q 167 833 179 863 q 163 769 154 804 q 197 721 172 736 q 257 718 222 706 q 292 756 282 726 q 289 824 301 786 q 251 871 276 858 q 213 875 235 879 m 196 951 q 285 940 244 960 q 363 850 339 914 q 373 773 372 813 q 349 696 374 733 q 282 643 325 658 q 158 653 211 619 q 88 749 106 688 q 86 833 76 788 q 126 911 96 879 q 146 933 132 926 q 193 950 171 946 q 196 951 194 950 m 121 53 l 764 1010 q 789 1026 774 1022 q 817 1019 804 1029 q 834 994 831 1010 q 828 965 838 979 l 185 8 q 160 -8 175 -6 q 131 -1 144 -11 q 114 24 117 8 q 121 53 111 39 z "},"&":{"ha":871,"x_min":28,"x_max":875,"o":"m 290 442 l 268 421 q 151 286 185 338 q 121 176 111 222 q 186 79 138 107 q 304 61 232 54 q 431 97 365 68 q 546 164 497 126 q 371 340 454 243 q 290 442 325 393 m 304 564 l 350 613 q 426 728 414 683 q 389 831 447 806 q 329 835 364 842 q 269 801 294 828 q 265 642 221 754 q 304 564 281 606 m 836 3 q 617 107 756 3 l 608 114 q 471 31 551 67 q 313 -15 392 -7 q 149 11 215 -26 q 46 160 69 56 q 86 328 28 238 q 214 476 121 383 l 246 508 q 193 613 213 564 q 214 857 131 772 q 314 911 257 899 q 418 903 371 924 q 497 828 472 881 q 501 708 521 776 q 408 560 483 644 l 346 497 q 429 390 383 444 q 603 218 511 296 q 718 406 674 294 q 739 426 724 419 q 769 426 754 432 q 790 406 783 421 q 790 375 796 390 q 664 168 740 254 q 836 81 782 81 q 864 69 853 81 q 875 42 875 58 q 864 14 875 25 q 836 3 853 3 z "},"'":{"ha":176,"x_min":86,"x_max":168,"o":"m 167 1004 q 166 840 168 946 q 164 697 164 733 q 153 669 164 681 q 125 658 142 658 q 97 669 108 658 q 86 697 86 681 q 88 839 86 733 q 89 1001 90 944 q 100 1030 89 1018 q 127 1042 111 1042 q 155 1031 143 1042 q 167 1004 167 1019 z "},"(":{"ha":368,"x_min":39,"x_max":360,"o":"m 308 1010 q 165 745 214 907 q 122 404 117 583 q 186 67 128 224 q 347 -183 244 -90 q 359 -210 358 -194 q 349 -238 360 -226 q 323 -251 339 -250 q 294 -242 307 -251 q 114 37 178 -135 q 44 401 50 208 q 92 770 39 594 q 250 1063 144 946 q 277 1074 261 1074 q 305 1065 293 1075 q 317 1038 317 1054 q 308 1010 318 1022 z "},")":{"ha":369,"x_min":39,"x_max":369,"o":"m 51 -194 q 215 62 154 -96 q 283 397 275 219 q 244 735 290 575 q 101 1001 199 896 q 92 1030 92 1014 q 105 1056 93 1046 q 133 1066 117 1067 q 160 1054 149 1065 q 319 760 268 935 q 361 393 369 585 q 286 32 351 203 q 104 -250 221 -139 q 77 -261 93 -261 q 50 -249 61 -261 q 39 -222 39 -237 q 51 -194 39 -206 z "},"*":{"ha":556,"x_min":50,"x_max":543,"o":"m 239 672 l 110 600 q 81 598 96 593 q 58 617 65 603 q 55 646 50 631 q 74 669 60 661 l 233 758 l 86 899 q 75 926 75 910 q 86 954 75 943 q 114 965 97 965 q 142 954 131 965 l 269 831 l 311 1021 q 328 1045 314 1036 q 357 1051 342 1054 q 381 1033 372 1047 q 386 1004 390 1019 l 347 824 l 482 900 q 513 904 497 908 q 535 885 528 900 q 539 856 543 871 q 521 833 535 840 l 365 744 l 503 629 q 517 602 515 618 q 508 574 518 586 q 481 560 497 561 q 453 568 465 558 l 319 682 q 296 535 306 606 q 280 510 293 519 q 251 502 267 500 q 226 517 236 504 q 218 546 217 531 l 239 672 z "},"+":{"ha":501,"x_min":49,"x_max":503,"o":"m 93 363 q 239 357 164 356 q 235 476 238 399 q 233 569 233 554 q 244 598 233 586 q 272 610 256 610 q 299 599 288 610 q 311 572 311 588 q 313 481 311 560 q 317 361 315 403 q 453 381 388 368 q 483 376 469 385 q 499 351 496 367 q 494 322 503 335 q 469 306 485 308 q 317 283 396 290 q 314 126 318 197 q 301 99 313 110 q 273 89 289 88 q 246 102 257 90 q 236 129 235 114 q 239 279 239 199 q 85 285 160 278 q 59 299 69 286 q 50 327 49 311 q 64 353 51 343 q 93 363 76 364 z "},",":{"ha":238,"x_min":56,"x_max":244,"o":"m 240 106 q 122 -128 207 -40 q 95 -140 111 -140 q 67 -129 79 -140 q 56 -102 56 -118 q 67 -75 56 -86 q 165 122 136 -3 q 182 147 168 139 q 212 152 196 156 q 236 135 228 149 q 240 106 244 121 z "},"-":{"ha":489,"x_min":36,"x_max":468,"o":"m 78 344 q 428 344 201 338 q 456 333 444 344 q 468 306 468 322 q 457 278 468 290 q 431 267 446 267 q 75 267 200 260 q 47 280 58 268 q 38 308 36 292 q 51 335 39 324 q 78 344 63 346 z "},".":{"ha":132,"x_min":58,"x_max":136,"o":"m 125 69 q 131 64 125 69 q 136 42 136 58 q 125 14 136 25 q 97 3 114 3 q 69 14 81 3 q 58 42 58 25 q 69 69 58 58 q 97 81 81 81 q 125 69 114 81 z "},"/":{"ha":582,"x_min":40,"x_max":588,"o":"m 47 -33 l 290 521 l 510 1031 q 532 1051 517 1046 q 562 1051 547 1057 q 582 1029 576 1044 q 582 1000 588 1014 l 360 489 q 117 -67 207 126 q 96 -86 111 -81 q 66 -85 81 -92 q 46 -64 51 -79 q 47 -33 40 -49 z "},":":{"ha":149,"x_min":63,"x_max":144,"o":"m 129 560 q 135 554 129 560 q 140 532 140 549 q 129 504 140 515 q 101 493 118 493 q 74 504 85 493 q 63 532 63 515 q 74 560 63 549 q 101 571 85 571 q 129 560 118 571 m 133 147 q 139 142 133 147 q 144 119 144 136 q 133 92 144 103 q 106 81 122 81 q 78 92 89 81 q 67 119 67 103 q 78 147 67 136 q 106 158 89 158 q 133 147 122 158 z "},";":{"ha":236,"x_min":32,"x_max":229,"o":"m 225 124 q 179 17 208 61 q 99 -81 149 -29 q 72 -93 88 -93 q 44 -82 56 -93 q 32 -55 32 -71 q 43 -28 32 -39 q 112 57 88 19 q 150 143 136 94 q 168 167 154 160 q 198 171 182 175 q 222 153 214 167 q 225 124 229 139 m 213 547 q 218 542 213 547 q 224 519 224 536 q 213 492 224 503 q 185 481 201 481 q 157 492 168 481 q 146 519 146 503 q 157 547 146 536 q 185 558 168 558 q 213 547 201 558 z "},"<":{"ha":556,"x_min":82,"x_max":547,"o":"m 161 303 l 156 299 l 151 297 q 161 303 160 288 m 501 533 l 286 389 l 188 322 l 194 319 q 315 258 239 296 q 521 163 465 185 q 541 141 535 156 q 541 112 547 126 q 520 91 535 97 q 490 90 506 85 q 281 188 433 114 l 157 250 l 115 274 q 100 285 106 279 q 93 292 96 288 q 82 315 83 303 q 84 331 82 324 q 89 342 86 339 l 92 344 q 97 351 93 349 q 108 361 101 356 l 140 385 l 242 453 l 457 597 q 485 604 469 607 q 511 588 501 601 q 518 559 521 575 q 501 533 515 543 z "},"=":{"ha":501,"x_min":58,"x_max":499,"o":"m 101 426 q 456 436 219 418 q 483 427 471 438 q 497 401 496 417 q 488 372 499 385 q 461 358 478 360 q 96 349 219 340 q 69 362 79 350 q 60 390 58 374 q 73 417 61 407 q 101 426 85 428 m 119 293 q 454 304 356 293 q 483 296 469 306 q 497 270 496 286 q 489 241 499 254 q 463 226 479 228 q 119 215 361 215 q 92 226 103 215 q 81 254 81 238 q 92 282 81 271 q 119 293 103 293 z "},">":{"ha":556,"x_min":94,"x_max":551,"o":"m 117 176 l 343 306 l 446 364 l 439 368 q 324 436 404 390 q 124 547 168 525 q 105 569 110 554 q 107 599 100 585 q 129 619 114 614 q 160 617 144 624 q 363 504 214 589 q 481 433 433 464 q 521 406 508 415 q 536 394 531 400 q 543 386 540 390 q 551 363 551 375 q 544 339 551 350 q 540 333 543 336 q 533 328 538 331 q 522 319 529 324 q 488 299 510 311 l 382 238 l 156 110 q 126 106 142 101 q 103 124 111 110 q 99 153 94 138 q 117 176 103 168 z "},"?":{"ha":507,"x_min":46,"x_max":553,"o":"m 51 781 q 141 883 74 842 q 286 936 208 925 q 385 935 338 943 q 474 896 432 928 q 529 810 515 864 q 506 658 553 722 q 393 578 471 614 q 329 551 371 568 l 269 528 q 194 481 213 503 q 194 476 194 479 q 192 469 193 474 q 190 459 192 465 q 189 446 189 453 q 186 361 186 414 q 189 271 186 326 q 192 201 192 215 q 181 174 192 185 q 153 163 169 163 q 125 174 136 163 q 114 201 114 185 q 111 271 114 215 q 108 360 108 326 q 111 453 108 417 q 133 528 117 506 q 239 600 163 567 q 297 622 256 606 q 361 649 339 639 q 443 706 421 676 q 454 790 468 739 q 401 849 443 831 q 297 858 360 868 q 186 820 235 850 q 124 753 138 790 q 103 731 118 738 q 74 731 89 725 q 52 751 58 736 q 51 781 46 765 m 182 89 q 188 83 182 89 q 193 61 193 78 q 182 33 193 44 q 154 22 171 22 q 126 33 138 22 q 115 61 115 44 q 126 89 115 78 q 154 100 138 100 q 182 89 171 100 z "},"@":{"ha":972,"x_min":49,"x_max":982,"o":"m 639 375 q 565 269 607 310 q 401 221 489 196 q 335 267 358 233 q 315 464 276 351 q 429 628 347 558 q 594 689 515 701 q 673 643 643 682 q 713 540 703 604 q 704 511 714 524 q 679 496 694 499 l 672 496 q 679 483 676 490 q 685 458 679 482 q 715 406 692 429 q 749 388 732 390 q 793 394 765 386 q 892 526 867 421 q 899 623 903 575 q 878 704 896 671 q 775 827 838 783 q 645 874 713 871 q 504 857 578 878 q 303 731 393 821 q 183 529 214 642 q 159 345 157 425 q 190 206 161 265 q 262 108 218 146 q 363 51 306 69 q 628 60 483 10 q 882 247 774 111 q 908 262 892 260 q 936 254 924 264 q 951 228 949 244 q 943 200 953 213 q 651 -14 819 44 q 338 -22 485 -72 q 116 180 183 29 q 108 549 49 331 q 249 786 144 682 q 481 931 351 889 q 611 952 546 951 q 738 933 676 953 q 854 863 800 913 q 947 740 908 814 q 977 629 972 693 q 968 508 982 565 q 915 392 951 443 q 818 322 878 342 q 663 350 725 289 q 639 375 649 363 m 635 529 q 583 613 625 607 q 479 568 539 619 q 389 439 414 514 q 399 311 363 363 q 424 296 406 301 q 511 325 467 283 q 579 431 550 364 q 581 433 581 432 q 581 440 581 435 q 583 453 582 446 q 617 507 589 492 q 642 513 629 514 q 635 529 636 519 z "},"A":{"ha":850,"x_min":76,"x_max":847,"o":"m 263 375 q 629 388 419 369 l 544 640 q 536 671 543 647 q 519 725 529 694 l 501 781 l 478 847 l 461 817 q 404 710 419 740 q 263 375 325 549 m 235 299 q 156 21 189 158 q 139 -4 153 4 q 109 -9 125 -12 q 85 8 93 -6 q 81 38 76 22 q 156 304 111 171 q 129 307 142 306 q 103 321 113 308 q 94 350 93 333 q 108 376 96 367 q 138 385 121 386 q 181 381 160 382 q 335 743 247 568 q 393 854 358 793 q 429 917 415 894 l 444 939 q 456 950 450 946 q 503 951 479 968 q 528 924 517 943 q 544 890 535 911 q 575 806 558 858 l 593 749 l 610 694 q 619 665 617 671 l 708 396 l 750 400 q 779 392 767 401 q 793 365 792 382 q 785 336 794 349 q 758 322 775 324 l 735 319 q 842 38 788 169 q 841 7 847 22 q 820 -14 835 -8 q 790 -13 806 -19 q 769 7 775 -7 q 656 313 710 154 q 235 299 414 290 z "},"B":{"ha":710,"x_min":57,"x_max":710,"o":"m 290 490 q 244 474 261 479 q 200 461 226 468 q 182 457 188 458 q 176 456 179 456 l 168 456 q 163 64 168 229 q 521 160 389 63 q 593 239 565 190 q 626 338 621 288 q 532 489 636 444 q 290 490 442 528 m 268 565 q 342 594 319 585 q 481 678 435 640 q 547 788 547 732 q 511 865 547 842 q 404 885 475 888 q 280 865 346 883 q 168 825 214 847 l 168 678 l 168 535 q 268 565 222 553 m 118 888 q 247 936 168 914 q 401 963 326 960 q 551 931 496 967 q 625 788 625 885 q 529 617 625 694 q 482 583 508 600 q 563 561 525 576 q 675 465 640 528 q 703 329 710 403 q 661 200 697 264 q 568 96 624 138 q 94 -11 392 -32 q 67 2 78 -10 q 58 31 57 14 q 85 65 60 57 q 89 266 88 156 q 91 449 90 376 q 91 656 92 522 q 90 846 90 790 q 106 876 90 865 q 118 888 110 883 z "},"C":{"ha":810,"x_min":67,"x_max":813,"o":"m 639 765 q 513 878 579 856 q 400 864 458 896 q 286 757 340 832 q 196 583 232 682 q 152 388 160 485 q 169 214 144 292 q 424 71 225 51 q 563 106 506 79 q 743 251 649 147 q 770 264 754 263 q 798 254 786 265 q 811 227 810 243 q 801 199 813 211 q 596 36 696 83 q 432 -7 525 3 q 215 34 300 -19 q 96 190 131 88 q 75 394 67 288 q 122 610 83 501 q 225 805 163 718 q 363 932 288 892 q 538 951 451 979 q 703 810 629 921 q 709 780 713 796 q 692 755 706 764 q 663 749 679 746 q 639 765 647 753 z "},"D":{"ha":776,"x_min":36,"x_max":800,"o":"m 193 71 q 208 72 201 72 q 519 165 407 75 q 674 375 629 254 q 694 615 719 499 q 578 810 669 733 q 335 894 486 888 q 194 872 265 897 q 193 675 192 864 q 194 478 194 486 q 195 313 194 422 q 196 147 196 203 q 194 85 196 122 q 193 71 194 79 m 115 838 l 96 828 q 65 826 81 821 q 43 845 50 831 q 41 875 36 860 q 60 897 46 890 q 202 956 140 938 q 338 972 264 975 q 628 871 515 965 q 771 632 740 776 q 747 349 800 493 q 569 104 694 206 q 208 -6 436 -3 q 200 -7 206 -6 q 182 -8 186 -8 q 125 8 146 -12 q 111 68 103 31 q 114 78 113 74 q 116 83 115 82 q 117 86 117 85 l 117 88 q 118 147 118 125 q 117 313 118 203 q 117 478 117 422 q 116 658 117 507 q 115 838 115 808 z "},"E":{"ha":740,"x_min":60,"x_max":735,"o":"m 171 128 l 171 126 l 171 128 m 94 931 q 699 957 407 985 q 724 943 714 956 q 733 914 735 931 q 719 887 732 897 q 690 878 707 876 q 182 864 447 901 q 183 697 182 817 q 183 513 183 576 q 469 542 267 513 q 499 533 486 543 q 513 508 511 524 q 506 478 515 492 q 481 463 496 465 q 182 433 272 433 q 175 215 181 314 q 172 158 172 167 q 171 126 171 138 l 193 111 q 238 90 215 94 q 385 81 294 78 q 540 94 463 82 q 653 119 617 107 q 683 117 668 124 q 702 94 697 110 q 700 64 707 79 q 678 43 693 49 q 552 16 635 29 q 388 1 469 3 q 219 13 288 -3 q 99 88 129 33 q 93 111 94 97 l 93 125 q 94 163 93 139 q 97 221 94 171 q 104 450 103 324 q 97 476 96 461 q 106 499 99 489 q 105 690 106 565 q 104 851 104 814 q 77 860 89 850 q 63 883 65 869 q 69 914 60 900 q 94 931 79 928 z "},"F":{"ha":618,"x_min":76,"x_max":678,"o":"m 108 26 q 97 192 101 104 q 91 344 93 283 q 86 515 89 404 q 82 669 83 626 q 81 687 82 671 q 80 728 81 703 q 78 776 79 754 q 76 846 78 821 l 76 871 q 78 879 76 876 l 78 886 q 88 904 79 896 q 206 954 118 942 q 367 963 272 964 q 643 939 532 960 q 669 921 660 935 q 674 891 678 907 q 658 866 671 875 q 629 860 644 857 q 365 883 525 881 q 217 876 276 885 q 154 860 176 871 l 154 847 q 156 779 156 822 q 158 731 157 757 q 159 690 158 706 q 160 672 160 674 q 163 539 161 625 q 314 533 218 532 q 481 532 443 535 q 508 517 497 531 q 517 488 518 504 q 503 462 515 472 q 475 453 490 451 q 315 454 440 456 q 165 460 221 453 q 186 35 172 210 q 177 6 188 18 q 151 -8 167 -7 q 122 1 135 -10 q 108 26 110 11 z "},"G":{"ha":836,"x_min":63,"x_max":861,"o":"m 499 358 q 560 357 510 358 q 631 356 611 356 l 688 356 q 756 358 726 356 q 815 364 786 360 q 844 356 832 365 q 859 330 857 346 q 851 301 861 314 q 826 286 842 289 q 776 282 801 283 q 647 50 746 124 q 361 -6 542 -29 q 208 53 275 6 q 110 182 142 100 q 97 488 63 315 q 222 794 132 661 q 447 963 325 944 q 708 810 592 985 q 715 780 718 796 q 698 755 711 764 q 669 749 685 746 q 644 765 653 753 q 458 886 554 900 q 286 751 369 874 q 173 473 204 631 q 182 210 142 315 q 372 72 231 90 q 601 113 519 53 q 696 278 669 164 q 496 281 661 276 q 469 292 481 281 q 458 320 458 304 q 470 347 458 336 q 499 358 482 358 z "},"H":{"ha":781,"x_min":79,"x_max":799,"o":"m 629 386 q 160 388 294 383 q 157 19 157 160 q 146 -8 157 3 q 118 -19 135 -19 q 90 -8 101 -19 q 79 19 79 3 q 83 461 79 167 q 88 903 88 756 q 99 931 88 919 q 126 942 110 942 q 154 931 143 942 q 165 903 165 919 q 161 465 165 756 q 628 464 296 461 q 622 697 625 546 q 618 901 619 849 q 629 930 618 918 q 656 942 640 942 q 684 931 672 942 q 696 904 696 919 q 700 698 697 850 q 706 464 703 546 l 760 464 q 788 453 776 464 q 799 425 799 442 q 788 397 799 408 q 760 386 776 386 l 707 386 q 726 18 714 181 q 717 -10 728 3 q 691 -24 707 -22 q 663 -15 675 -25 q 649 13 650 -4 q 629 386 636 176 z "},"I":{"ha":508,"x_min":96,"x_max":507,"o":"m 140 956 q 294 953 203 950 l 454 956 q 482 944 471 956 q 493 917 493 933 q 482 889 493 900 q 454 878 471 878 q 332 875 421 878 q 328 479 332 743 q 324 82 324 215 q 468 85 358 83 q 495 74 483 85 q 507 47 507 63 q 496 19 507 31 q 468 7 485 7 q 133 6 236 3 q 107 17 118 6 q 96 45 96 29 q 108 72 96 61 q 136 83 119 83 q 246 82 188 82 q 250 479 246 215 q 254 874 254 743 q 135 878 186 874 q 108 892 118 879 q 99 920 97 904 q 113 947 100 936 q 140 956 125 957 z "},"J":{"ha":678,"x_min":46,"x_max":682,"o":"m 325 936 q 484 938 378 936 q 643 939 590 939 q 671 928 660 939 q 682 901 682 917 q 671 874 682 885 q 643 864 660 864 l 561 864 q 578 719 564 824 q 597 522 593 593 q 539 147 613 278 q 397 26 490 63 q 217 13 304 -10 q 85 118 121 38 q 99 326 46 206 q 120 347 106 342 q 150 347 135 353 q 171 326 165 340 q 171 297 176 311 q 157 149 131 206 q 238 86 178 101 q 368 96 300 71 q 469 182 436 121 q 519 518 533 296 q 500 710 515 586 q 482 863 485 835 q 325 861 378 861 q 297 872 308 861 q 286 899 286 882 q 297 926 286 915 q 325 936 308 936 z "},"K":{"ha":694,"x_min":94,"x_max":713,"o":"m 283 532 l 186 444 q 182 31 182 175 q 171 3 182 14 q 143 -8 160 -8 q 115 3 126 -8 q 104 31 104 14 q 108 424 104 172 l 106 426 q 96 453 94 438 q 108 481 97 469 q 113 894 113 750 q 124 922 113 911 q 151 933 135 933 q 179 922 168 933 q 190 894 190 911 q 188 550 190 760 q 492 917 410 751 q 514 935 499 931 q 544 933 529 940 q 563 911 558 926 q 561 881 568 896 q 340 589 492 742 l 703 63 q 710 34 713 50 q 694 8 707 18 q 665 1 681 -1 q 639 18 649 4 l 283 532 z "},"L":{"ha":644,"x_min":83,"x_max":654,"o":"m 165 925 q 163 721 163 828 q 163 474 163 614 q 164 269 164 333 q 163 226 164 267 q 163 157 161 185 q 165 97 163 119 q 168 86 167 90 q 178 85 172 85 q 228 79 197 81 q 372 78 285 76 q 520 83 433 79 q 615 86 607 86 q 642 75 631 86 q 654 48 654 64 q 643 20 654 32 q 615 8 632 8 q 522 5 608 8 q 374 0 435 1 q 224 1 285 -1 q 165 7 188 3 q 118 24 133 13 q 96 56 103 35 q 89 86 92 68 q 85 156 85 113 q 85 225 83 183 q 86 269 86 267 q 85 474 86 333 q 85 722 85 615 q 88 928 85 829 q 99 954 88 943 q 127 965 111 965 q 154 953 143 965 q 165 925 165 942 z "},"M":{"ha":1029,"x_min":50,"x_max":1038,"o":"m 50 42 q 75 422 53 179 q 104 708 92 603 q 106 733 104 711 q 111 781 108 754 l 118 832 q 135 907 125 881 q 150 938 140 926 q 176 954 161 950 q 213 947 196 960 l 224 936 q 225 932 225 935 q 229 925 228 929 q 238 907 232 919 l 265 843 l 347 650 q 481 324 457 386 l 510 244 l 517 228 l 519 235 q 536 282 528 254 l 547 314 q 729 769 692 682 l 764 854 l 788 911 q 796 929 793 922 l 800 938 q 804 943 801 940 q 810 950 807 947 q 844 957 825 963 q 876 929 864 951 q 888 903 882 919 q 906 839 896 879 q 926 733 911 813 q 1036 42 982 444 q 1028 13 1038 25 q 1002 -2 1018 0 q 974 6 986 -4 q 958 31 961 15 q 851 719 903 451 q 831 814 839 779 l 801 739 q 619 286 764 651 q 618 280 619 283 q 615 270 617 276 q 611 258 613 264 q 592 206 601 228 q 563 151 578 171 q 492 126 531 111 q 472 142 481 131 q 467 150 469 144 q 457 168 463 157 l 438 217 l 408 296 q 275 619 388 351 l 194 813 q 189 765 192 790 l 183 721 q 182 700 182 701 q 153 414 169 594 q 128 39 131 174 q 116 13 128 24 q 88 1 104 1 q 61 13 72 1 q 50 42 50 25 z "},"N":{"ha":789,"x_min":85,"x_max":785,"o":"m 97 14 q 90 671 97 390 q 90 693 90 676 q 88 736 89 710 q 86 783 88 763 q 85 850 85 826 l 85 872 l 85 881 l 85 885 q 86 890 85 888 q 89 897 88 894 q 101 913 93 907 q 135 918 117 922 q 147 913 140 917 q 158 904 153 910 q 178 883 167 897 q 225 825 196 863 l 304 718 l 493 463 q 675 196 617 296 l 681 185 l 689 169 l 692 163 l 693 182 q 697 317 697 301 q 701 600 697 393 q 704 925 707 853 q 715 953 704 942 q 742 965 726 965 q 770 954 758 965 q 782 928 782 943 q 779 597 785 851 q 775 317 775 392 q 771 179 775 301 q 767 88 768 121 q 764 56 765 67 q 763 44 764 49 q 761 38 763 42 q 760 32 761 35 q 740 13 753 18 q 690 19 715 0 q 672 39 682 26 q 643 88 660 57 q 619 135 632 107 l 611 151 q 608 156 610 154 l 608 157 q 431 417 547 258 l 240 674 l 164 775 q 166 733 165 757 q 167 693 167 708 q 168 674 168 678 q 175 14 175 392 q 164 -14 175 -3 q 136 -25 153 -25 q 108 -14 119 -25 q 97 14 97 -3 z "},"O":{"ha":832,"x_min":72,"x_max":843,"o":"m 456 885 q 375 867 396 876 q 208 673 268 814 q 158 379 147 532 q 250 136 169 224 q 492 58 339 40 q 683 184 610 72 q 762 453 756 296 q 704 731 768 610 q 522 881 640 851 q 456 885 513 883 m 483 961 q 542 956 519 961 q 715 849 644 931 q 814 664 786 767 q 839 450 843 563 q 814 290 836 368 q 750 146 790 213 q 645 35 710 79 q 500 -19 581 -10 q 193 83 308 -42 q 81 374 94 190 q 99 594 72 483 q 188 798 125 704 q 339 936 250 892 q 425 958 371 951 q 444 963 435 963 l 453 963 q 467 964 461 963 q 483 961 475 965 z "},"P":{"ha":694,"x_min":68,"x_max":739,"o":"m 188 385 q 413 425 313 392 q 625 594 583 482 q 601 765 653 676 q 492 863 563 831 q 344 892 422 894 q 186 863 267 890 q 188 385 190 722 m 122 921 q 264 960 190 949 q 414 965 338 972 q 558 917 490 958 q 668 804 626 876 q 697 569 739 683 q 436 351 644 421 q 188 307 322 314 q 189 21 186 138 q 178 -8 189 4 q 151 -19 167 -19 q 123 -8 135 -19 q 111 18 111 3 q 110 306 108 136 l 106 306 q 79 317 90 306 q 68 345 68 329 q 80 372 68 361 q 108 383 92 383 l 110 383 q 108 858 113 718 q 101 869 104 864 q 101 899 96 885 q 122 921 107 914 z "},"Q":{"ha":832,"x_min":79,"x_max":863,"o":"m 644 39 q 364 -15 528 -42 q 219 50 281 -1 q 128 174 158 101 q 89 328 99 247 q 88 494 79 408 q 189 801 107 671 q 414 957 282 950 l 422 957 q 444 963 432 963 q 775 769 676 949 q 828 389 857 619 q 704 92 804 201 q 833 33 758 57 q 856 13 849 28 q 858 -17 863 -1 q 838 -39 853 -32 q 808 -42 824 -46 q 644 39 713 -10 m 511 875 q 487 869 500 868 q 459 874 474 871 q 435 878 444 878 q 417 879 426 879 q 254 760 326 875 q 165 486 182 646 q 172 288 154 378 q 243 137 190 199 q 378 63 296 75 q 583 93 497 42 q 500 204 538 139 q 496 233 492 218 q 514 257 500 249 q 543 261 528 265 q 567 243 558 257 q 644 142 603 183 q 750 400 729 233 q 707 732 776 606 q 511 875 646 844 z "},"R":{"ha":750,"x_min":28,"x_max":758,"o":"m 190 424 q 407 468 310 433 q 593 617 557 522 q 569 769 621 689 q 354 885 501 878 q 190 865 276 889 q 190 424 194 725 m 54 900 q 357 963 211 969 q 636 811 546 953 q 665 589 707 697 q 458 406 619 471 l 747 60 q 757 33 758 49 q 744 6 756 17 q 716 -4 732 -6 q 689 10 700 -3 l 381 378 q 189 346 290 353 q 190 32 188 156 q 179 3 190 15 q 152 -8 168 -8 q 124 3 136 -8 q 113 29 113 14 q 113 361 110 158 q 106 381 106 369 q 113 404 106 393 q 114 840 117 710 q 85 828 99 835 q 56 828 71 822 q 34 848 40 833 q 33 878 28 863 q 54 900 39 893 z "},"S":{"ha":764,"x_min":79,"x_max":758,"o":"m 590 835 q 503 873 563 867 q 382 855 444 879 q 291 790 319 831 q 278 701 263 749 q 354 631 288 669 q 439 585 382 614 q 518 544 496 557 q 605 492 568 518 q 681 427 642 465 q 739 339 719 389 q 757 229 758 289 q 710 98 754 153 q 602 17 665 43 q 465 -11 539 -8 q 244 33 350 -17 q 86 182 138 83 q 84 212 79 196 q 103 235 89 228 q 133 237 117 242 q 156 218 149 232 q 280 103 194 143 q 463 67 365 63 q 617 114 557 69 q 679 232 678 158 q 631 367 682 311 q 481 476 579 424 l 401 517 q 315 563 342 547 q 203 679 222 618 q 224 830 176 764 q 354 928 272 896 q 456 951 403 946 q 563 940 510 956 q 649 885 615 924 q 658 858 660 874 q 645 831 657 842 q 617 821 633 819 q 590 835 601 822 z "},"T":{"ha":649,"x_min":78,"x_max":718,"o":"m 118 933 q 675 947 378 928 q 703 938 692 949 q 717 910 715 926 q 707 883 718 894 q 681 869 696 871 q 421 857 547 861 q 415 35 415 619 q 404 7 415 18 q 376 -4 393 -4 q 349 7 360 -4 q 338 35 338 18 q 343 856 338 617 q 115 856 226 853 q 89 867 100 856 q 78 895 78 879 q 90 922 78 911 q 118 933 101 933 z "},"U":{"ha":726,"x_min":83,"x_max":732,"o":"m 163 922 q 165 726 167 865 q 165 503 164 569 q 250 138 174 236 q 429 71 322 43 q 519 118 476 82 q 583 207 561 154 q 635 378 618 282 q 653 542 651 475 q 652 733 654 610 q 651 913 650 857 q 663 940 651 929 q 691 951 675 951 q 718 940 707 951 q 729 913 729 928 q 730 772 728 863 q 732 617 732 682 q 726 472 732 553 q 703 317 721 392 q 655 174 685 242 q 569 59 625 107 q 447 -6 514 11 q 308 1 376 -22 q 189 90 240 24 q 88 500 97 208 q 88 726 86 568 q 85 917 89 863 q 94 944 83 932 q 120 958 104 957 q 149 949 136 960 q 163 922 161 939 z "},"V":{"ha":740,"x_min":42,"x_max":785,"o":"m 118 919 l 151 850 l 183 774 l 213 704 q 243 628 225 675 l 268 558 q 297 481 278 535 l 324 411 l 350 333 l 375 261 q 382 239 376 258 l 397 194 q 414 143 406 167 l 417 136 l 422 154 l 438 211 l 453 261 q 460 288 458 282 q 707 950 569 633 q 729 971 714 965 q 759 970 744 976 q 779 949 774 964 q 779 919 785 933 q 535 265 643 607 q 526 239 532 260 l 513 189 q 497 133 504 157 q 472 54 482 82 q 463 25 467 36 q 457 15 460 19 q 451 6 454 10 q 425 -8 440 -7 q 389 6 404 -10 q 379 19 385 11 q 367 46 374 29 q 340 118 356 72 q 324 169 332 142 l 310 214 q 303 236 304 232 q 277 308 299 247 q 249 385 256 369 q 224 454 243 400 l 196 531 l 169 600 l 140 675 l 113 744 q 79 817 96 783 l 49 886 q 47 915 42 900 q 66 938 51 931 q 96 940 81 944 q 118 919 111 935 z "},"W":{"ha":1151,"x_min":28,"x_max":1181,"o":"m 106 928 q 144 817 125 876 l 178 713 l 211 597 l 242 493 l 275 378 l 306 271 l 340 153 l 342 147 l 357 201 q 369 242 368 239 q 394 322 371 247 l 438 449 q 483 576 464 529 l 504 624 q 531 658 518 649 q 576 664 553 676 q 602 639 590 658 q 658 532 614 619 q 786 249 689 471 l 832 147 q 893 371 865 285 q 1004 673 929 479 q 1103 932 1079 867 q 1123 953 1108 946 q 1152 954 1138 960 q 1174 934 1167 949 q 1175 904 1181 919 q 1078 647 1153 840 q 968 346 1003 454 q 907 129 940 263 q 889 54 892 67 l 881 29 q 875 18 878 22 q 867 7 872 13 q 833 -1 853 -6 q 815 7 822 0 q 810 11 813 8 l 807 17 q 803 22 806 19 q 797 36 800 26 l 776 79 l 715 218 q 589 496 625 422 l 560 556 l 556 547 q 511 424 539 503 l 469 297 q 442 217 444 222 q 432 181 442 215 q 413 111 421 139 q 388 44 399 68 q 372 18 381 28 q 351 3 364 7 q 308 11 328 -6 l 300 24 l 297 29 q 294 38 296 32 q 286 61 292 46 l 265 131 l 231 249 q 194 375 225 269 l 154 517 l 119 636 q 75 778 96 717 l 33 903 q 35 932 28 918 q 57 951 42 946 q 86 950 72 957 q 106 928 100 943 z "},"X":{"ha":794,"x_min":82,"x_max":822,"o":"m 432 431 q 160 29 296 206 q 132 13 149 15 q 101 20 115 11 q 84 45 86 29 q 90 74 82 61 q 381 503 235 260 l 104 899 q 98 927 94 911 q 115 952 101 943 q 147 958 129 961 q 172 940 164 954 l 425 581 q 622 946 510 728 q 647 966 631 961 q 678 964 663 971 q 699 942 694 957 q 697 913 704 926 q 476 507 571 668 q 813 63 661 247 q 820 34 822 50 q 805 8 818 18 q 774 1 792 -1 q 746 15 757 3 q 432 431 603 190 z "},"Y":{"ha":694,"x_min":28,"x_max":717,"o":"m 107 929 q 114 907 108 922 q 150 789 136 832 q 190 681 164 746 q 248 568 217 615 q 318 490 279 521 q 411 481 364 451 q 515 603 463 511 q 594 776 561 681 q 636 922 628 871 q 652 947 639 938 q 681 954 665 957 q 707 938 697 951 q 714 908 717 925 q 668 750 704 851 q 583 564 632 649 q 451 414 519 454 q 411 396 432 401 q 413 211 414 381 q 411 26 411 42 q 400 -1 411 10 q 372 -12 389 -12 q 344 -1 356 -12 q 333 26 333 10 q 335 210 333 40 q 333 394 336 381 q 268 429 300 404 q 187 521 224 467 q 121 646 150 575 q 76 761 92 717 l 40 879 q 32 907 35 899 q 35 937 28 922 q 58 956 43 951 q 88 952 74 960 q 107 929 103 944 z "},"Z":{"ha":733,"x_min":61,"x_max":731,"o":"m 165 943 q 376 943 200 944 l 403 943 l 463 943 l 532 943 q 632 942 596 942 l 665 942 q 676 940 672 940 l 681 940 l 685 940 q 689 939 688 939 q 703 931 697 936 q 718 893 719 917 q 714 875 717 885 l 699 844 q 653 771 683 817 l 575 657 q 333 319 574 656 l 193 124 l 167 86 l 181 86 l 221 86 q 257 87 243 86 q 274 88 271 88 q 693 75 542 88 q 720 61 710 74 q 729 33 731 49 q 715 6 728 17 q 688 -3 703 -4 q 274 10 539 10 q 257 9 271 10 q 222 8 243 8 l 182 8 q 124 8 144 7 q 103 10 110 8 q 90 11 96 10 l 79 17 q 61 50 61 28 q 65 69 61 60 q 71 79 68 74 q 85 101 75 88 l 129 168 l 269 365 l 511 699 l 588 813 q 619 864 610 846 q 532 865 586 864 l 463 865 l 403 865 l 376 865 q 168 865 203 867 q 141 875 153 864 q 128 902 129 886 q 138 930 126 918 q 165 943 149 942 z "},"[":{"ha":1242,"x_min":114,"x_max":1249,"o":"m 778 719 q 792 714 785 718 q 887 615 850 669 q 936 505 924 561 q 944 394 949 449 q 918 290 939 340 q 836 182 889 225 q 714 128 783 139 q 568 157 644 118 q 481 230 515 185 q 433 326 446 275 q 422 431 419 378 q 440 536 424 485 q 508 656 463 604 q 621 731 554 707 q 768 724 688 754 q 778 719 774 722 m 743 651 q 605 638 667 678 q 514 511 543 597 q 508 347 485 431 q 604 226 532 264 q 747 219 682 190 q 847 322 813 247 q 867 401 863 360 q 861 485 871 442 q 822 572 851 529 q 746 650 793 615 q 743 651 744 650 m 821 794 q 871 856 844 825 l 935 925 l 985 978 q 1012 990 996 989 q 1040 980 1028 990 q 1052 953 1051 969 q 1043 925 1053 938 l 990 869 q 930 804 954 832 q 885 747 906 776 q 859 733 875 735 q 830 740 843 731 q 815 765 817 749 q 821 794 813 781 m 982 615 q 1081 653 1011 625 q 1185 693 1146 681 q 1214 690 1200 697 q 1233 667 1228 682 q 1230 638 1238 651 q 1207 618 1222 624 q 1110 582 1172 607 q 1007 540 1039 551 q 977 543 992 536 q 958 565 963 550 q 960 595 953 581 q 982 615 967 610 m 994 326 l 1115 303 q 1214 283 1193 289 q 1240 267 1231 281 q 1245 238 1249 254 q 1228 213 1242 222 q 1200 208 1215 204 l 1099 228 q 978 251 1021 242 q 953 268 963 254 q 948 297 944 282 q 965 322 951 313 q 994 326 979 331 m 875 101 q 911 22 883 71 q 957 -67 946 -42 q 956 -97 963 -82 q 935 -117 950 -111 q 906 -117 921 -124 q 885 -97 892 -111 q 843 -15 876 -75 q 800 79 811 40 q 803 109 796 94 q 826 128 811 124 q 856 124 842 132 q 875 101 871 117 m 594 47 q 489 -132 529 -79 q 463 -147 479 -144 q 435 -139 447 -149 q 420 -113 422 -129 q 428 -85 418 -97 q 525 83 464 -37 q 547 102 532 97 q 577 100 563 107 q 597 78 592 93 q 594 47 601 63 m 383 206 q 297 168 369 200 q 204 132 243 143 q 174 135 189 128 q 156 158 160 143 q 159 188 151 174 q 182 207 167 203 q 267 239 215 217 q 356 278 340 272 q 385 277 371 283 q 406 256 400 271 q 405 226 411 240 q 383 206 399 211 m 310 446 q 276 458 300 450 l 238 474 q 203 488 224 479 q 165 508 183 497 q 131 529 147 518 q 116 555 118 539 q 123 584 114 571 q 148 599 132 597 q 178 593 164 601 q 215 569 193 581 l 249 553 q 294 534 260 547 q 338 518 329 521 q 359 498 353 513 q 360 468 365 483 q 340 447 354 453 q 310 446 325 440 m 399 665 q 340 764 378 696 q 285 851 307 822 q 276 880 275 864 q 291 906 278 896 q 320 914 304 915 q 346 899 336 913 q 408 801 372 865 q 463 713 443 738 q 469 683 471 699 q 453 658 467 667 q 424 651 440 649 q 399 665 408 653 m 621 800 q 624 1050 617 951 q 637 1076 625 1065 q 665 1086 649 1088 q 692 1073 681 1085 q 701 1044 703 1061 q 699 803 694 950 q 688 774 699 786 q 660 763 676 763 q 633 774 644 763 q 621 800 621 785 z "},"\\":{"ha":608,"x_min":58,"x_max":613,"o":"m 535 -62 q 276 528 449 146 l 64 1000 q 64 1029 58 1014 q 84 1051 69 1044 q 114 1051 99 1057 q 136 1031 129 1046 l 349 558 q 607 -32 521 176 q 606 -62 613 -47 q 585 -83 600 -76 q 556 -83 571 -89 q 535 -62 542 -76 z "},"]":{"ha":1340,"x_min":89,"x_max":1344,"o":"m 313 286 q 210 407 264 336 q 226 215 232 297 l 226 210 l 313 286 m 167 604 l 172 596 q 374 335 292 417 q 673 529 517 446 q 960 638 829 613 q 1081 645 1010 650 q 1207 617 1151 640 q 1309 531 1274 588 q 1331 390 1344 474 q 1160 167 1307 251 q 897 90 1043 100 q 422 196 604 72 q 371 233 396 213 q 263 136 313 185 q 215 88 225 100 q 206 67 214 85 q 178 28 193 40 q 169 22 174 24 q 140 18 156 14 q 111 50 115 25 q 111 64 110 57 q 118 83 113 72 q 123 93 121 88 q 126 101 125 99 q 128 106 128 104 q 144 160 142 150 q 149 221 146 169 q 145 330 153 275 q 118 465 138 385 q 92 582 99 546 q 98 610 89 597 q 124 628 107 624 q 149 623 138 629 q 167 604 161 617 m 1150 253 q 1253 404 1239 314 q 1176 546 1269 504 q 1076 568 1133 564 q 974 563 1018 572 q 713 463 857 539 q 433 283 568 386 q 465 260 449 271 q 892 168 626 151 q 1021 192 957 172 q 874 276 954 211 q 860 303 861 288 q 869 332 858 319 q 895 346 879 344 q 924 338 911 347 q 1029 270 983 288 q 1147 253 1075 253 l 1150 253 m 1142 471 q 1147 465 1142 471 q 1153 443 1153 460 q 1142 415 1153 426 q 1114 404 1131 404 q 1086 415 1097 404 q 1075 443 1075 426 q 1086 471 1075 460 q 1114 482 1097 482 q 1142 471 1131 482 z "},"^":{"ha":511,"x_min":61,"x_max":496,"o":"m 72 858 l 174 976 q 260 1042 224 1033 q 364 1003 308 1054 q 486 865 400 969 q 494 837 496 853 q 481 810 493 821 q 452 801 468 800 q 425 815 436 803 q 311 944 343 917 q 291 961 300 956 q 281 967 282 967 l 278 967 q 233 925 267 964 q 128 806 142 819 q 101 793 117 793 q 73 804 85 793 q 61 831 61 815 q 72 858 61 847 z "},"_":{"ha":833,"x_min":60,"x_max":811,"o":"m 100 -35 q 463 -33 228 -39 q 772 -28 697 -28 q 800 -39 789 -28 q 811 -67 811 -50 q 800 -94 811 -83 q 772 -106 789 -106 q 462 -111 697 -106 q 97 -112 226 -117 q 71 -101 82 -112 q 60 -73 60 -89 q 72 -46 60 -57 q 100 -35 83 -35 z "},"`":{"ha":369,"x_min":51,"x_max":356,"o":"m 118 974 q 229 863 139 956 q 339 760 294 796 q 354 734 353 750 q 346 705 356 718 q 320 690 336 692 q 292 699 304 689 q 174 808 244 736 q 65 915 93 890 q 53 942 54 926 q 63 970 51 958 q 90 983 74 982 q 118 974 106 985 z "},"a":{"ha":631,"x_min":50,"x_max":626,"o":"m 511 174 q 499 255 504 214 q 492 346 494 296 q 488 425 489 396 q 485 515 486 454 q 482 593 483 576 q 311 569 394 628 q 181 397 228 511 q 157 188 132 279 q 279 78 182 94 q 400 90 342 67 q 503 165 457 114 l 511 174 m 560 615 q 563 504 560 597 q 567 377 565 411 q 576 274 569 343 q 593 152 582 204 q 622 50 604 100 q 619 20 626 35 q 597 1 613 6 q 567 3 582 -4 q 547 25 553 10 l 531 83 q 265 0 413 -25 q 145 58 192 14 q 82 168 99 103 q 108 426 50 285 q 174 543 133 489 q 272 637 215 597 q 392 683 328 676 q 531 657 457 689 q 547 643 542 653 q 560 615 560 632 z "},"b":{"ha":654,"x_min":58,"x_max":664,"o":"m 171 458 q 149 140 165 311 q 154 136 151 139 q 396 88 265 53 q 545 204 499 115 q 574 393 592 293 q 489 539 556 492 q 306 553 415 590 q 172 460 253 533 q 171 458 171 460 m 161 928 q 174 564 176 758 q 281 625 228 608 q 533 603 426 676 q 650 407 626 538 q 646 249 664 328 q 568 104 628 171 q 415 13 508 38 q 140 51 267 -28 l 138 28 q 124 1 136 11 q 94 -7 111 -8 q 68 7 78 -6 q 60 36 58 19 q 83 919 115 543 q 92 949 82 936 q 119 963 103 961 q 147 953 135 964 q 161 928 160 943 z "},"c":{"ha":614,"x_min":82,"x_max":611,"o":"m 503 553 q 335 601 418 632 q 204 472 256 574 q 164 335 169 406 q 186 201 158 264 q 274 107 214 139 q 421 78 347 67 q 465 91 442 81 q 501 110 489 101 l 547 139 q 577 145 561 149 q 602 128 593 142 q 608 99 611 115 q 592 75 604 83 q 578 66 590 74 q 563 57 565 58 l 550 47 q 535 39 539 40 l 521 31 l 504 22 q 488 15 499 19 q 469 9 478 11 q 451 4 461 7 q 432 0 442 1 q 238 38 332 -14 q 135 132 172 74 q 90 256 97 190 q 94 385 82 321 q 135 508 106 450 q 308 675 200 638 q 556 611 438 721 q 568 583 568 600 q 558 555 568 567 q 531 543 547 543 q 503 553 514 543 z "},"d":{"ha":618,"x_min":64,"x_max":618,"o":"m 533 132 q 522 506 524 311 q 351 567 440 583 q 208 464 269 550 q 157 343 169 407 q 165 217 144 279 q 242 115 186 156 q 401 79 315 63 q 533 132 478 93 m 604 894 q 617 40 590 431 q 607 12 618 24 q 580 -1 596 0 q 552 8 564 -3 q 539 35 540 19 l 539 43 q 415 1 486 15 q 197 51 297 -19 q 92 192 118 107 q 81 358 64 278 q 144 507 97 439 q 338 643 224 619 q 521 604 433 661 q 526 897 522 747 q 538 924 526 913 q 566 935 550 935 q 593 923 582 935 q 604 894 604 911 z "},"e":{"ha":694,"x_min":63,"x_max":688,"o":"m 536 463 q 524 503 542 478 q 442 567 496 543 q 365 588 403 585 q 286 572 326 590 q 214 513 246 554 q 154 308 150 428 q 346 378 236 336 q 482 433 431 410 q 526 456 511 446 q 536 463 532 458 m 165 231 q 272 93 193 140 q 447 67 350 46 q 624 165 521 83 q 652 174 636 175 q 678 159 668 172 q 686 130 688 146 q 671 104 685 114 q 464 -8 556 11 q 204 44 317 -42 q 78 275 92 131 q 153 560 63 440 q 255 644 196 618 q 368 665 314 669 q 474 638 422 661 q 588 547 547 604 q 601 419 636 476 q 564 388 592 404 q 514 363 546 378 q 374 306 460 339 q 165 231 263 263 z "},"f":{"ha":499,"x_min":61,"x_max":557,"o":"m 482 829 q 427 881 461 861 q 358 901 393 900 q 253 826 281 903 q 233 704 236 776 q 235 569 231 632 q 415 578 301 571 q 444 568 432 579 q 457 541 456 557 q 447 513 458 525 q 421 500 436 501 q 235 493 306 494 l 235 43 q 224 15 235 26 q 196 4 213 4 q 168 15 179 4 q 157 43 157 26 l 157 492 q 99 493 126 492 q 72 505 82 493 q 61 533 61 517 q 73 560 61 550 q 101 571 85 571 q 157 569 128 569 q 156 710 151 625 q 181 851 160 794 q 251 949 203 917 q 360 979 300 981 q 466 949 415 978 q 549 871 517 919 q 553 842 557 857 q 536 817 550 826 q 507 812 522 808 q 482 829 492 815 z "},"g":{"ha":626,"x_min":69,"x_max":628,"o":"m 522 490 q 333 579 428 600 q 193 456 249 561 q 150 314 157 388 q 176 178 144 240 q 275 86 208 115 q 378 71 331 63 q 430 86 404 75 q 469 107 456 97 l 521 142 q 547 149 533 150 q 550 254 550 197 q 543 478 550 350 q 522 490 531 481 m 611 615 q 628 254 628 368 q 578 -108 628 15 q 486 -231 547 -185 q 360 -281 426 -275 q 227 -253 294 -287 q 115 -149 160 -219 q 110 -119 107 -135 q 128 -94 114 -103 q 158 -90 142 -86 q 182 -107 174 -93 q 290 -197 225 -176 q 415 -185 354 -218 q 506 -78 475 -153 q 539 60 528 -24 q 392 -7 460 6 q 244 14 321 -18 q 128 104 171 46 q 78 230 86 163 q 81 366 69 297 q 125 493 93 435 q 208 598 158 554 q 317 654 257 642 q 535 588 429 679 l 533 610 q 543 638 532 626 q 570 651 554 650 q 598 642 586 653 q 611 615 610 631 z "},"h":{"ha":600,"x_min":49,"x_max":604,"o":"m 143 389 q 140 206 142 326 q 136 32 138 86 q 124 4 136 15 q 97 -7 113 -7 q 69 5 81 -7 q 58 32 58 17 q 62 238 58 81 q 66 469 65 396 q 63 665 67 543 q 50 883 60 786 q 59 913 49 900 q 85 926 69 925 q 114 917 101 928 q 128 892 126 907 q 143 514 143 726 q 369 629 250 626 q 524 543 467 632 q 582 364 565 478 q 585 15 604 215 q 571 -10 583 0 q 542 -19 558 -21 q 516 -6 526 -18 q 507 24 506 7 q 506 351 526 211 q 458 501 490 450 q 372 551 425 553 q 146 393 256 549 q 143 389 144 392 z "},"i":{"ha":149,"x_min":75,"x_max":156,"o":"m 154 639 q 156 33 156 565 q 144 6 156 17 q 117 -6 133 -6 q 89 6 100 -6 q 78 33 78 17 q 76 636 78 565 q 88 665 76 653 q 115 676 99 676 q 142 665 131 676 q 154 639 154 654 m 142 853 q 147 847 142 853 q 153 825 153 842 q 142 797 153 808 q 114 786 131 786 q 86 797 97 786 q 75 825 75 808 q 86 853 75 842 q 114 864 97 864 q 142 853 131 864 z "},"j":{"ha":232,"x_min":-289,"x_max":222,"o":"m 211 635 q 218 271 222 501 q 181 -90 213 -4 q 94 -215 153 -168 q -29 -271 36 -262 q -162 -249 -94 -279 q -279 -150 -232 -218 q -286 -121 -289 -136 q -269 -96 -283 -106 q -240 -89 -256 -86 q -215 -106 -225 -92 q -103 -189 -169 -171 q 22 -173 -37 -207 q 108 -62 81 -139 q 140 272 135 11 q 133 629 144 499 q 142 657 132 644 q 169 671 153 669 q 197 662 185 672 q 211 635 210 651 m 203 844 q 208 839 203 844 q 214 817 214 833 q 203 789 214 800 q 175 778 192 778 q 147 789 158 778 q 136 817 136 800 q 147 844 136 833 q 175 856 158 856 q 203 844 192 856 z "},"k":{"ha":578,"x_min":72,"x_max":588,"o":"m 150 925 q 153 435 154 801 q 317 539 238 467 q 438 690 396 611 q 461 709 446 704 q 490 706 476 714 q 509 683 504 699 q 507 654 514 668 q 415 526 472 589 q 289 418 357 464 l 578 61 q 586 33 588 49 q 572 6 585 17 q 544 -3 560 -4 q 517 11 528 -1 l 221 379 q 153 353 186 363 q 158 49 153 176 q 148 22 158 33 q 122 9 138 10 q 94 19 106 8 q 81 46 82 29 q 75 484 74 200 q 72 922 76 768 q 83 951 72 939 q 110 963 93 963 q 138 952 126 963 q 150 925 150 942 z "},"l":{"ha":175,"x_min":86,"x_max":171,"o":"m 164 917 q 166 478 168 781 q 171 40 164 176 q 160 13 171 25 q 134 1 150 1 q 106 10 118 0 q 93 38 94 21 q 88 475 86 190 q 86 914 90 760 q 97 942 86 931 q 124 954 107 954 q 152 944 140 954 q 164 917 164 933 z "},"m":{"ha":793,"x_min":86,"x_max":806,"o":"m 460 457 q 461 324 463 401 q 459 175 461 274 q 458 50 457 76 q 448 22 458 33 q 421 10 438 10 q 392 20 404 10 q 381 47 381 31 q 381 174 379 74 q 383 324 383 275 q 381 475 385 418 q 367 556 375 540 q 283 599 336 610 q 175 533 232 588 l 172 531 q 164 32 174 408 q 152 6 164 17 q 124 -6 140 -6 q 97 6 108 -6 q 86 35 86 18 q 93 642 97 481 q 104 670 93 658 q 131 682 115 682 q 159 671 147 682 q 171 644 171 660 l 171 631 q 267 674 221 664 q 433 594 376 697 q 443 572 439 585 q 486 622 465 601 q 646 669 565 694 q 760 550 721 646 q 800 365 789 479 q 804 289 803 329 q 806 208 806 249 q 805 140 806 167 q 802 75 804 114 q 800 29 800 36 q 788 2 800 13 q 760 -8 776 -8 q 733 3 743 -8 q 722 32 722 15 q 724 78 722 40 q 727 143 726 117 q 728 208 728 169 q 726 285 728 247 q 722 358 725 324 q 688 521 713 460 q 624 594 663 582 q 539 565 585 607 q 464 464 504 532 q 460 457 463 460 z "},"n":{"ha":556,"x_min":78,"x_max":582,"o":"m 158 457 q 157 247 158 386 q 156 39 156 107 q 144 11 156 22 q 117 0 133 0 q 89 11 100 0 q 78 39 78 22 q 81 322 78 72 q 79 606 83 572 q 90 634 79 622 q 117 646 101 646 q 145 635 133 646 q 157 608 157 624 q 158 575 157 592 q 208 618 183 600 q 385 658 297 681 q 568 369 536 621 q 571 28 582 261 q 558 0 569 11 q 530 -10 546 -11 q 503 3 514 -8 q 493 31 492 15 q 492 360 504 257 q 365 583 465 558 q 253 554 313 596 q 158 457 204 521 z "},"o":{"ha":636,"x_min":57,"x_max":650,"o":"m 344 672 q 379 681 360 686 q 547 581 483 651 q 631 426 613 510 q 633 256 650 342 q 589 138 621 193 q 508 44 557 83 q 394 -7 458 6 q 250 0 329 -19 q 146 58 189 17 q 85 150 103 99 q 63 261 68 201 q 71 375 57 321 q 167 577 94 490 q 344 672 240 664 m 368 596 q 230 530 292 597 q 147 360 168 463 q 158 176 126 256 q 269 75 190 97 q 457 104 379 46 q 557 271 535 163 q 533 467 578 375 q 383 599 489 560 q 368 596 376 596 z "},"p":{"ha":592,"x_min":61,"x_max":600,"o":"m 151 40 q 154 -247 153 -146 q 143 -274 154 -262 q 116 -286 132 -286 q 88 -275 100 -286 q 76 -247 76 -264 q 74 28 75 -147 q 72 351 74 204 q 63 628 69 499 q 72 655 61 643 q 99 668 83 667 q 127 658 115 669 q 140 631 139 647 q 143 578 142 606 q 299 654 211 639 q 437 640 371 667 q 543 544 503 614 q 590 333 600 439 q 515 140 581 228 q 419 53 475 86 q 294 15 363 21 q 151 40 225 8 m 147 460 q 151 121 150 332 q 169 117 161 121 q 331 100 258 79 q 453 188 403 121 q 513 340 504 256 q 476 506 521 424 q 311 578 422 597 q 217 538 261 568 q 151 467 174 507 q 147 460 149 463 z "},"q":{"ha":574,"x_min":56,"x_max":578,"o":"m 564 603 q 573 327 571 475 q 576 3 575 179 q 578 -275 576 -174 q 567 -302 578 -290 q 540 -314 556 -314 q 512 -303 524 -314 q 500 -275 500 -292 q 497 78 499 -182 q 410 36 461 54 q 181 57 288 -7 q 90 149 121 92 q 57 270 58 207 q 72 396 56 333 q 119 511 88 457 q 304 661 193 635 q 492 621 400 685 q 524 640 501 639 q 551 631 539 642 q 564 603 563 619 m 489 518 q 322 586 408 607 q 186 471 243 567 q 138 340 149 408 q 147 213 126 272 q 219 124 168 154 q 385 108 297 78 q 494 178 450 132 q 496 181 496 179 q 490 518 494 379 l 489 518 z "},"r":{"ha":511,"x_min":64,"x_max":553,"o":"m 161 476 q 167 358 165 424 q 170 256 169 293 q 170 135 171 218 q 169 31 169 51 q 158 3 169 14 q 131 -8 147 -8 q 103 3 114 -8 q 92 31 92 14 q 92 142 92 47 q 92 269 93 236 q 90 374 92 303 q 82 500 88 446 q 67 607 76 554 q 74 637 64 624 q 99 653 83 650 q 128 646 115 656 q 144 621 142 636 l 150 585 q 306 682 224 665 q 542 583 432 708 q 551 556 553 572 q 538 529 550 540 q 510 519 526 518 q 483 533 494 521 q 321 606 403 624 q 167 482 242 589 l 161 476 z "},"s":{"ha":529,"x_min":53,"x_max":533,"o":"m 428 563 q 364 606 407 594 q 275 606 321 618 q 205 563 229 593 q 186 492 181 533 q 232 438 189 465 q 347 376 251 425 q 413 341 388 357 q 471 298 439 325 q 518 234 503 271 q 531 153 533 197 q 478 47 526 85 q 365 -4 431 8 q 246 -6 306 -14 q 142 22 186 1 q 117 36 131 28 q 90 55 103 44 q 72 68 76 65 q 56 92 60 76 q 62 122 53 108 q 87 138 71 135 q 117 132 103 142 l 139 117 q 158 101 150 107 q 175 92 167 96 q 255 71 207 76 q 351 72 303 65 q 453 158 449 90 q 422 238 456 204 q 314 307 390 269 q 189 372 213 357 q 108 483 117 419 q 143 610 99 558 q 256 681 188 663 q 384 681 314 700 q 492 607 454 661 q 498 577 501 593 q 481 552 494 561 q 452 547 468 543 q 428 563 436 550 z "},"t":{"ha":489,"x_min":43,"x_max":504,"o":"m 310 907 q 313 635 314 793 q 360 637 335 636 q 417 638 386 638 q 464 639 447 639 q 492 628 481 639 q 504 601 504 617 q 493 573 504 585 q 467 561 482 561 q 313 558 326 558 q 317 31 310 179 q 306 3 317 15 q 280 -9 296 -8 q 252 1 264 -10 q 239 28 240 11 q 235 557 232 175 q 81 561 150 557 q 54 574 65 563 q 44 602 43 586 q 58 629 46 618 q 86 639 69 640 q 235 635 154 635 q 232 904 236 792 q 242 933 232 921 q 269 944 253 944 q 298 934 286 944 q 310 907 310 924 z "},"u":{"ha":561,"x_min":44,"x_max":563,"o":"m 540 615 q 543 431 543 549 q 546 219 543 314 q 561 42 549 125 q 553 13 563 25 q 527 -2 543 0 q 499 6 511 -4 q 483 31 486 15 q 479 63 482 46 q 235 10 358 -36 q 54 300 71 71 q 89 638 44 435 q 106 662 92 653 q 135 667 119 671 q 159 650 150 664 q 164 621 168 636 q 132 306 122 431 q 263 82 146 126 q 365 82 315 63 q 465 154 414 101 q 471 158 468 157 q 465 401 465 244 q 463 613 464 558 q 473 641 463 629 q 500 653 483 653 q 528 642 517 653 q 540 615 540 632 z "},"v":{"ha":550,"x_min":26,"x_max":571,"o":"m 103 650 q 258 261 163 532 l 300 149 l 311 118 l 319 139 q 386 325 346 207 l 429 456 l 471 579 q 493 643 488 629 q 513 665 499 658 q 542 667 528 672 q 564 647 557 661 q 565 618 571 632 q 544 553 561 603 l 504 431 l 460 300 q 392 111 419 179 q 364 46 376 69 q 351 22 357 31 q 332 0 343 7 q 282 6 306 -17 q 271 19 276 11 q 257 46 265 29 q 226 121 244 74 l 186 236 q 33 614 90 504 q 31 644 26 629 q 51 667 36 660 q 81 669 65 674 q 103 650 96 664 z "},"w":{"ha":876,"x_min":17,"x_max":903,"o":"m 94 639 q 131 539 113 593 q 158 444 147 483 l 186 339 l 210 246 l 242 132 l 244 122 l 247 129 q 313 301 268 176 l 356 424 l 397 539 q 418 599 413 585 q 438 620 424 614 q 468 621 453 626 q 492 593 488 614 q 536 471 499 575 l 597 300 q 663 128 638 189 l 667 119 l 671 132 q 704 244 689 188 q 765 447 724 315 q 824 642 806 579 q 842 665 828 657 q 872 668 856 672 q 895 650 888 664 q 899 619 903 636 l 839 426 l 779 225 l 744 108 l 722 40 q 713 17 717 25 q 706 4 708 8 q 694 -7 700 -3 q 653 -7 674 -19 q 632 14 642 -1 q 619 36 626 22 q 592 97 608 58 q 524 274 565 161 l 454 468 l 386 275 q 319 99 346 163 q 292 38 303 60 q 279 15 285 24 q 258 -6 269 1 q 219 -7 239 -17 q 207 4 213 -3 q 199 17 203 10 q 189 42 194 26 q 167 110 181 65 l 135 226 q 110 322 126 256 q 83 424 93 388 q 56 514 72 461 q 22 608 39 567 q 23 639 17 624 q 44 660 29 654 q 74 659 58 665 q 94 639 89 653 z "},"x":{"ha":593,"x_min":53,"x_max":589,"o":"m 324 281 q 138 0 218 129 q 113 -17 129 -14 q 83 -12 97 -21 q 66 11 69 -4 q 71 40 63 26 q 275 347 158 179 q 64 615 168 492 q 54 643 53 628 q 68 669 56 658 q 97 678 81 679 q 122 664 113 676 q 322 414 221 549 l 504 667 q 530 683 514 681 q 559 676 546 686 q 575 651 572 667 q 568 624 578 636 l 371 349 l 581 43 q 585 15 589 29 q 568 -9 582 0 q 539 -15 554 -18 q 514 3 524 -11 l 324 281 z "},"y":{"ha":636,"x_min":56,"x_max":656,"o":"m 313 29 q 212 162 254 92 q 141 313 169 232 q 95 462 113 394 q 60 626 78 529 q 65 655 56 642 q 90 672 74 668 q 119 666 106 675 q 135 640 132 657 q 217 331 172 456 q 351 103 263 207 q 576 643 504 399 q 595 666 581 658 q 625 669 610 674 q 648 651 640 665 q 651 621 656 636 q 396 21 572 354 q 392 13 394 17 l 235 -272 q 212 -290 228 -286 q 182 -287 196 -294 q 164 -263 168 -279 q 168 -233 160 -247 l 313 29 z "},"z":{"ha":649,"x_min":86,"x_max":658,"o":"m 151 675 q 260 676 189 674 q 363 678 331 678 q 379 678 365 678 q 414 680 393 679 q 453 681 435 681 q 515 678 492 681 q 542 671 532 675 q 575 633 571 660 q 572 610 576 622 q 567 599 569 606 q 551 575 561 589 q 504 506 536 550 l 361 313 l 219 122 l 190 81 l 196 81 q 344 85 303 85 q 481 81 353 85 q 618 82 610 78 q 645 72 633 82 q 658 45 657 61 q 648 17 658 29 q 621 4 638 6 q 483 4 615 1 q 344 7 350 7 q 199 3 304 7 l 146 3 q 126 4 135 3 q 114 7 119 4 q 89 33 94 14 q 89 60 86 46 q 94 72 92 65 q 108 97 99 82 l 156 167 l 299 360 l 442 551 l 476 601 q 453 603 467 603 q 414 602 435 603 q 378 601 393 601 q 363 600 364 600 q 258 598 329 600 q 149 597 188 596 q 122 609 133 597 q 111 637 111 621 q 123 664 111 653 q 151 675 135 675 z "},"{":{"ha":417,"x_min":74,"x_max":451,"o":"m 403 1008 q 285 968 314 1004 q 265 882 261 940 q 285 749 265 865 q 286 606 300 657 q 204 500 272 556 l 169 472 l 197 447 l 240 406 q 272 358 267 378 q 282 188 294 297 q 272 101 282 183 q 265 21 267 51 q 289 -97 263 -60 q 414 -151 322 -143 q 441 -165 431 -153 q 450 -194 451 -178 q 436 -220 449 -210 q 408 -229 424 -231 q 225 -143 279 -218 q 188 22 183 -83 q 194 110 189 57 q 206 196 204 192 q 200 333 215 289 l 199 335 q 193 341 197 336 q 183 351 189 346 q 144 389 172 364 l 106 428 q 89 446 94 438 q 82 489 74 468 q 97 513 86 501 q 114 528 104 519 l 154 560 q 211 628 204 601 q 208 735 221 661 q 188 876 189 857 q 225 1018 182 967 q 397 1086 276 1079 q 426 1076 414 1088 q 439 1049 438 1065 q 429 1022 440 1033 q 403 1008 418 1010 z "},"|":{"ha":1229,"x_min":100,"x_max":1226,"o":"m 372 925 q 390 938 379 935 q 509 976 458 963 q 623 997 560 989 q 748 994 686 1004 q 874 954 810 983 q 1067 814 986 904 q 1188 619 1149 724 q 1225 399 1226 514 q 1182 184 1224 285 q 1047 1 1140 83 q 822 -122 954 -82 q 519 -144 681 -165 q 330 -81 413 -131 q 199 43 247 -31 q 125 202 150 117 q 100 381 100 288 q 171 703 100 553 q 372 925 243 857 m 460 536 q 441 456 439 493 q 458 393 443 419 q 497 350 472 367 q 555 331 525 333 q 613 346 585 328 q 657 401 642 364 q 665 508 679 463 q 613 581 651 554 q 536 597 579 606 q 467 543 493 589 q 460 536 464 539 m 701 531 q 1024 749 844 690 q 840 885 949 835 q 732 917 788 908 q 636 790 681 869 q 574 639 592 711 q 636 615 607 635 q 701 531 682 583 m 688 368 q 803 274 736 319 q 924 200 871 228 l 1058 131 q 1149 420 1151 258 q 1051 713 1146 582 q 713 479 861 656 q 696 385 715 432 l 688 368 m 574 290 l 574 289 q 603 91 574 186 q 692 -69 632 -4 q 800 -47 747 -64 q 1032 97 942 -4 q 822 211 908 158 q 663 333 735 264 q 574 290 626 294 m 432 357 q 304 250 363 326 q 240 122 253 186 q 531 -67 333 -42 q 640 -74 588 -75 q 532 289 532 67 l 532 292 q 475 315 501 299 q 432 357 450 332 m 431 568 q 439 583 435 576 q 451 592 443 590 q 531 639 483 631 q 587 787 546 708 q 678 921 628 865 q 461 881 590 922 q 450 875 456 876 q 244 675 322 831 q 289 653 257 668 l 340 626 q 385 601 358 617 q 431 568 411 585 m 413 531 q 406 533 410 532 q 363 564 388 550 l 321 589 q 274 614 304 599 l 226 638 q 178 382 176 517 q 214 179 178 271 q 271 276 233 228 q 411 393 335 357 q 413 531 386 457 z "},"}":{"ha":376,"x_min":25,"x_max":404,"o":"m 75 -150 q 193 -110 164 -146 q 213 -22 217 -82 q 193 111 213 -7 q 192 254 178 204 q 274 360 206 304 l 308 388 l 281 413 q 238 454 251 439 q 204 501 210 481 q 194 672 182 563 q 204 758 194 678 q 211 839 210 808 q 188 957 214 919 q 63 1010 154 1001 q 35 1024 46 1011 q 26 1052 25 1036 q 40 1078 28 1068 q 68 1088 53 1089 q 251 1001 197 1076 q 289 836 293 943 q 282 749 288 803 q 271 664 272 668 q 276 526 261 572 l 278 525 l 279 524 q 282 520 281 522 q 286 515 283 518 q 293 508 289 511 q 333 471 304 496 l 372 433 q 389 414 383 422 q 396 371 404 392 q 381 347 392 358 q 364 332 374 340 l 324 300 q 267 232 274 258 q 269 124 257 200 q 290 -18 289 3 q 253 -160 296 -108 q 81 -228 201 -221 q 52 -218 64 -229 q 39 -191 40 -207 q 49 -163 38 -175 q 75 -150 60 -151 z "},"~":{"ha":694,"x_min":68,"x_max":715,"o":"m 75 629 q 133 714 103 681 q 211 768 163 747 q 369 750 290 801 q 404 724 385 740 l 443 689 q 471 665 463 671 q 538 638 511 631 q 640 747 581 647 q 664 765 649 761 q 693 761 679 769 q 711 738 707 753 q 707 708 715 722 q 556 561 631 581 q 421 604 492 546 l 378 643 q 326 685 346 672 q 242 696 283 714 q 188 659 208 682 q 144 593 168 636 q 121 574 136 578 q 91 577 106 569 q 72 600 76 585 q 75 629 68 615 z "},"":{"ha":139,"x_min":56,"x_max":146,"o":"m 138 454 q 144 301 142 385 q 146 157 146 217 q 145 -2 146 97 q 144 -149 144 -101 q 133 -176 144 -165 q 106 -187 122 -187 q 78 -176 89 -187 q 67 -149 67 -165 q 67 -3 67 -100 q 68 153 68 94 q 66 296 68 213 q 60 449 64 379 q 69 477 58 465 q 97 490 81 489 q 124 481 113 492 q 138 454 136 469 m 122 707 q 128 701 122 707 q 133 679 133 696 q 122 651 133 663 q 94 640 111 640 q 67 651 78 640 q 56 679 56 663 q 67 707 56 696 q 94 718 78 718 q 122 707 111 718 z "},"":{"ha":556,"x_min":61,"x_max":560,"o":"m 265 260 q 271 358 267 294 q 276 450 274 411 q 285 644 283 576 q 275 640 279 643 q 204 585 236 624 q 157 497 172 546 q 165 321 121 392 q 265 260 197 271 m 361 729 q 521 657 442 721 q 535 630 533 646 q 526 601 536 614 q 499 588 515 589 q 471 596 483 586 q 363 651 415 642 q 354 446 361 579 q 349 356 353 410 q 343 260 344 293 q 350 261 347 260 q 369 265 360 263 q 387 269 379 267 q 406 276 394 271 q 424 283 418 281 q 443 292 429 285 q 460 301 457 299 q 481 312 464 303 q 500 322 497 321 q 529 324 514 329 q 552 306 544 319 q 555 276 560 292 q 536 253 550 261 q 515 242 533 251 q 491 229 497 232 q 468 218 485 226 q 442 206 451 210 l 417 197 q 389 189 401 192 l 361 183 l 339 181 q 336 50 336 110 q 325 22 336 33 q 297 11 314 11 q 269 22 281 11 q 258 50 258 33 q 261 182 258 110 q 100 279 151 196 q 65 397 68 329 q 82 521 61 464 q 146 635 104 585 q 243 711 188 686 q 285 725 264 721 q 278 844 283 782 q 287 872 276 860 q 313 886 297 885 q 342 877 329 888 q 356 850 354 867 q 361 729 360 793 z "},"":{"ha":781,"x_min":51,"x_max":806,"o":"m 92 517 q 193 517 140 515 q 256 722 219 633 q 383 901 310 851 q 603 904 482 969 q 621 883 617 897 q 617 854 625 868 q 594 836 610 840 q 564 840 579 832 q 429 840 488 882 q 328 696 374 801 q 272 518 296 618 q 454 526 329 519 q 481 517 469 528 q 494 490 493 506 q 485 464 496 475 q 457 451 474 453 q 257 443 324 444 q 236 308 246 382 q 193 99 219 182 q 310 89 231 101 q 375 71 335 85 q 429 54 414 58 q 597 63 525 35 q 735 169 668 90 q 762 183 746 182 q 790 174 778 183 q 804 149 803 164 q 796 121 806 133 q 624 -7 715 29 q 413 -17 533 -43 q 350 1 392 -12 q 296 15 315 13 q 196 24 221 28 q 194 23 194 24 q 188 21 193 22 q 175 15 183 19 q 106 21 133 -4 q 90 65 85 39 q 101 90 93 78 q 108 100 106 96 q 112 106 111 104 q 113 108 113 107 q 114 110 114 108 q 158 315 140 183 q 178 440 168 385 q 89 442 132 440 q 63 453 74 442 q 51 481 51 465 q 63 506 51 496 q 92 517 75 517 z "},"":{"ha":763,"x_min":74,"x_max":735,"o":"m 301 610 q 188 506 221 585 q 176 335 154 428 q 269 189 200 242 q 440 156 339 136 q 592 254 543 174 q 625 429 642 335 q 528 581 608 524 q 315 618 449 639 q 301 610 310 613 m 150 597 l 136 614 q 128 622 129 621 q 124 628 128 624 q 117 633 119 632 q 107 642 115 633 l 89 657 q 75 683 76 667 q 84 711 74 699 q 110 725 94 724 q 139 715 126 726 l 158 700 q 169 690 168 692 l 176 683 l 183 678 q 192 667 183 676 q 207 650 201 657 q 279 685 239 672 l 282 685 q 301 694 290 692 q 581 640 468 721 q 668 722 635 688 q 696 733 679 733 q 724 722 713 733 q 735 694 735 711 q 724 667 735 678 l 638 586 q 701 442 688 524 q 698 308 714 375 q 640 188 682 240 q 711 104 667 160 q 719 76 721 92 q 705 50 718 60 q 676 42 692 40 q 650 57 660 43 q 585 133 608 108 q 454 78 529 92 q 225 125 322 54 l 160 65 q 132 56 149 56 q 105 67 115 56 q 94 96 94 79 q 107 124 94 113 l 168 179 q 101 317 121 239 q 96 463 83 385 q 151 597 108 540 l 150 597 z "},"":{"ha":601,"x_min":46,"x_max":625,"o":"m 121 915 q 247 729 160 849 q 329 626 296 661 q 353 603 342 611 q 382 638 365 615 q 447 738 410 675 q 547 925 513 847 q 569 944 554 939 q 599 944 585 950 q 619 922 614 938 q 619 892 625 907 q 514 697 582 810 q 443 590 475 631 q 393 536 415 553 q 400 418 399 479 q 511 460 449 433 q 542 459 526 465 q 563 438 557 453 q 562 408 568 424 q 542 388 556 393 q 401 338 461 356 q 400 240 401 290 q 504 260 425 244 q 533 255 519 264 q 549 230 546 246 q 544 201 553 214 q 518 185 535 188 q 397 161 428 165 q 392 54 396 113 q 378 28 390 39 q 351 18 367 17 q 324 31 335 19 q 314 60 313 43 q 319 149 317 108 q 193 140 253 140 q 165 151 176 140 q 154 179 154 163 q 165 207 154 196 q 193 218 176 218 q 322 228 254 218 q 324 317 324 274 q 168 300 244 300 q 140 311 151 300 q 129 339 129 322 q 140 367 129 356 q 168 378 151 378 q 324 396 244 378 q 315 533 321 469 l 311 536 q 272 574 294 549 q 183 683 236 613 q 54 876 94 806 q 50 906 46 890 q 68 930 54 922 q 98 933 82 938 q 121 915 114 929 z "},"":{"ha":161,"x_min":54,"x_max":158,"o":"m 67 546 q 79 858 67 710 q 93 885 81 875 q 122 894 106 896 q 148 881 138 893 q 157 853 158 868 q 144 546 144 708 q 133 518 144 529 q 106 507 122 507 q 78 518 89 507 q 67 546 67 529 m 60 7 q 57 149 60 22 q 58 296 54 246 q 72 322 60 311 q 99 332 83 333 q 126 319 115 331 q 136 290 138 307 q 135 151 132 236 q 138 7 138 22 q 126 -21 138 -10 q 99 -32 115 -32 q 71 -21 82 -32 q 60 7 60 -10 z "},"":{"ha":483,"x_min":54,"x_max":507,"o":"m 290 544 q 227 513 257 540 q 181 442 197 485 q 169 354 163 396 q 203 288 175 313 q 213 279 207 283 q 221 281 217 281 q 321 303 317 301 q 406 358 383 326 q 414 413 422 382 q 372 480 406 444 q 290 544 339 515 m 371 882 q 338 881 360 882 q 308 878 315 879 q 286 876 300 878 q 262 869 272 874 q 239 856 251 864 q 171 775 197 828 q 164 693 144 722 q 226 654 176 675 l 256 644 q 294 629 278 636 q 322 615 311 622 q 429 533 383 582 q 489 432 475 485 q 469 315 506 368 q 346 231 433 261 q 324 224 343 229 q 446 142 407 188 q 472 -3 507 67 q 367 -89 446 -56 q 226 -122 303 -114 q 101 -115 149 -129 q 79 -95 86 -110 q 77 -65 72 -81 q 97 -43 82 -50 q 126 -40 111 -36 q 218 -45 151 -51 q 337 -17 285 -39 q 403 32 389 6 q 385 92 415 56 q 283 157 358 125 q 266 164 282 157 q 246 173 250 171 q 228 181 242 175 q 206 192 214 188 l 188 203 q 167 215 176 208 l 150 229 q 102 302 117 260 q 90 386 88 344 q 108 469 93 428 q 192 585 135 542 q 100 649 124 613 q 101 810 54 717 q 197 919 138 881 q 233 940 215 932 q 270 951 250 947 q 301 957 290 956 q 335 959 311 958 q 365 960 360 960 q 394 950 382 961 q 407 923 406 939 q 397 895 408 907 q 371 882 386 883 z "},"":{"ha":328,"x_min":82,"x_max":332,"o":"m 149 986 q 154 981 149 986 q 160 958 160 975 q 149 931 160 942 q 121 919 138 919 q 93 931 104 919 q 82 958 82 942 q 93 986 82 975 q 121 997 104 997 q 149 986 138 997 m 321 988 q 326 982 321 988 q 332 960 332 976 q 321 932 332 943 q 293 921 310 921 q 265 932 276 921 q 254 960 254 943 q 265 988 254 976 q 293 999 276 999 q 321 988 310 999 z "},"":{"ha":789,"x_min":33,"x_max":804,"o":"m 417 885 q 336 867 357 876 q 169 673 229 814 q 119 379 108 532 q 211 136 131 224 q 453 58 300 40 q 644 184 571 72 q 723 453 717 296 q 665 731 729 610 q 483 881 601 851 q 417 885 474 883 m 444 961 q 503 956 481 961 q 676 849 606 931 q 775 664 747 767 q 800 450 804 563 q 775 290 797 368 q 711 146 751 213 q 606 35 671 79 q 461 -19 542 -10 q 154 83 269 -42 q 42 374 56 190 q 60 594 33 483 q 149 798 86 704 q 300 936 211 892 q 386 958 332 951 q 406 963 396 963 l 414 963 q 428 964 422 963 q 444 961 436 965 m 482 611 q 388 668 440 681 q 289 576 332 653 q 256 419 243 496 q 354 304 269 338 q 513 331 440 271 q 541 339 525 340 q 567 325 557 338 q 576 297 578 313 q 563 269 575 281 q 326 232 454 182 q 179 407 200 282 q 221 615 163 510 q 368 743 281 721 q 467 732 421 756 q 549 650 514 708 q 553 621 557 636 q 535 597 549 606 q 506 593 521 589 q 482 611 490 597 z "},"":{"ha":556,"x_min":82,"x_max":549,"o":"m 346 929 q 265 951 303 964 q 196 882 225 938 q 165 760 165 824 q 196 668 165 697 q 239 646 218 646 q 279 664 258 646 q 320 715 303 683 q 342 774 338 746 q 347 878 347 801 l 347 886 q 347 896 347 890 q 346 906 346 901 q 346 924 344 917 l 346 929 m 376 658 q 329 604 356 626 q 240 568 288 568 q 140 613 186 567 q 93 706 104 649 q 92 817 82 763 q 126 919 101 872 q 240 1025 171 1003 q 406 981 324 1053 q 418 940 425 964 q 422 932 421 936 q 438 831 436 897 q 440 733 440 736 q 458 668 444 689 q 514 639 475 644 q 539 624 529 636 q 547 595 549 611 q 532 569 544 579 q 503 561 519 560 q 394 624 431 572 q 376 658 385 639 z "},"":{"ha":556,"x_min":40,"x_max":581,"o":"m 560 703 q 432 572 558 701 l 357 496 l 340 478 q 356 458 346 469 q 431 382 382 429 l 513 306 q 569 251 561 258 q 581 223 581 239 q 569 196 581 207 q 541 185 557 185 q 514 196 525 185 q 457 250 507 204 l 376 326 q 297 408 324 376 q 269 443 279 428 q 256 489 254 468 l 263 507 q 267 513 264 510 q 275 522 269 517 l 301 550 l 378 628 q 499 750 492 742 q 524 765 508 763 q 553 757 540 767 q 567 731 565 747 q 560 703 569 715 m 346 696 q 218 565 344 694 l 143 489 l 126 471 q 142 451 132 463 q 217 375 168 422 l 299 297 q 356 244 347 251 q 367 216 367 232 q 355 189 367 200 q 327 178 343 178 q 300 189 311 178 q 243 243 293 197 l 163 319 q 83 401 110 369 q 56 436 65 421 q 42 482 40 461 l 49 500 q 53 506 50 503 q 61 515 56 510 l 88 543 l 164 621 q 285 743 278 735 q 310 758 294 756 q 339 750 326 760 q 353 724 351 740 q 346 696 356 708 z "},"":{"ha":611,"x_min":69,"x_max":628,"o":"m 113 561 q 540 553 328 547 l 543 553 q 556 556 546 554 q 604 546 583 561 q 618 526 614 539 q 621 518 619 524 q 622 504 621 513 q 624 468 624 490 q 625 363 625 431 q 626 288 626 322 q 626 227 625 254 q 626 193 626 200 q 617 165 628 176 q 590 151 606 153 q 562 161 574 150 q 549 188 550 172 q 547 363 549 189 q 546 465 547 447 l 546 475 l 543 475 q 107 483 326 469 q 81 497 92 485 q 71 524 69 508 q 84 551 72 540 q 113 561 96 563 z "},"":{"ha":785,"x_min":33,"x_max":804,"o":"m 417 885 q 336 867 357 876 q 169 673 229 814 q 119 379 108 532 q 211 136 131 224 q 453 58 300 40 q 644 184 571 72 q 723 453 717 296 q 665 731 729 610 q 483 881 601 851 q 417 885 474 883 m 444 961 q 503 956 481 961 q 676 849 606 931 q 775 664 747 767 q 800 450 804 563 q 775 290 797 368 q 711 146 751 213 q 606 35 671 79 q 461 -19 542 -10 q 154 83 269 -42 q 42 374 56 190 q 60 594 33 483 q 149 798 86 704 q 300 936 211 892 q 386 958 332 951 q 406 963 396 963 l 414 963 q 428 964 422 963 q 444 961 436 965 m 347 608 q 350 599 349 604 l 363 506 q 433 533 406 519 q 486 579 481 557 q 479 613 492 604 q 414 619 460 624 q 347 608 382 618 m 208 636 q 294 674 236 656 q 407 697 353 693 q 519 678 479 703 q 561 563 579 642 q 467 464 549 504 l 463 461 q 500 429 483 449 q 558 264 551 371 q 549 235 560 247 q 522 222 538 224 q 494 232 506 221 q 481 258 482 243 q 442 378 475 339 q 372 410 415 407 q 379 269 379 336 q 368 242 379 253 q 340 231 357 231 q 313 242 324 231 q 301 269 301 253 q 296 399 301 331 q 261 393 276 394 l 253 393 q 244 394 249 393 q 226 406 233 397 q 218 450 206 425 q 232 465 224 460 q 242 471 236 468 l 271 481 l 286 483 q 274 583 282 526 q 253 572 260 578 q 224 565 240 563 q 199 581 208 568 q 192 610 189 594 q 208 636 194 626 z "},"":{"ha":626,"x_min":51,"x_max":617,"o":"m 92 953 q 213 953 131 950 q 333 957 296 956 q 453 964 371 958 q 575 971 536 969 q 602 961 590 972 q 615 934 614 950 q 606 906 617 918 q 578 893 594 894 q 457 886 542 892 q 335 879 372 881 q 212 875 297 878 q 89 875 126 872 q 63 887 74 875 q 51 915 51 899 q 63 942 51 931 q 92 953 75 953 z "},"":{"ha":372,"x_min":35,"x_max":358,"o":"m 128 978 q 142 1001 131 992 q 167 1010 153 1010 q 277 981 231 1010 q 341 909 324 953 q 357 819 358 865 q 328 732 356 772 q 254 674 300 692 q 126 678 182 646 q 51 774 69 710 q 54 885 35 829 q 128 978 74 942 m 190 922 q 131 867 147 903 q 125 796 115 831 q 162 747 135 761 q 226 746 189 732 q 276 799 263 760 q 269 878 289 839 q 200 928 249 918 q 190 922 196 925 z "},"":{"ha":610,"x_min":60,"x_max":596,"o":"m 378 731 q 376 593 376 681 q 489 600 436 594 q 518 591 506 601 q 532 565 531 581 q 523 536 533 549 q 497 522 513 524 q 376 515 438 517 q 374 371 376 429 q 360 343 372 354 q 333 333 349 332 q 306 347 317 335 q 296 374 294 358 q 299 513 299 432 q 154 511 242 511 q 126 522 138 511 q 115 550 115 533 q 126 578 115 567 q 154 589 138 589 q 299 590 244 589 q 300 733 299 683 q 312 760 300 749 q 340 771 324 771 q 367 759 356 771 q 378 731 378 747 m 101 238 q 329 235 122 232 q 557 239 536 239 q 585 228 574 239 q 596 200 596 217 q 585 172 596 183 q 557 161 574 161 q 404 159 504 161 q 251 157 304 157 q 99 160 197 157 q 71 173 82 161 q 61 201 60 185 q 74 228 63 217 q 101 238 86 239 z "},"":{"ha":476,"x_min":64,"x_max":449,"o":"m 96 831 q 154 901 113 865 q 240 956 196 936 q 342 969 297 981 q 419 889 401 956 q 392 785 432 844 q 311 693 365 747 q 243 628 286 668 q 186 574 200 589 q 313 569 285 569 q 404 575 353 569 q 433 566 421 576 q 447 540 446 556 q 438 511 449 524 q 413 497 428 499 q 313 492 354 492 q 165 497 299 492 l 163 497 q 156 496 161 497 q 143 493 151 494 q 83 508 106 486 q 72 556 64 529 q 86 579 75 567 l 97 590 l 100 594 q 138 636 113 610 l 201 694 q 256 749 238 729 q 326 829 304 796 q 344 869 347 858 q 324 894 339 890 q 271 885 306 899 q 206 843 236 869 q 165 797 175 817 q 143 777 158 782 q 113 779 128 772 q 94 801 99 786 q 96 831 89 817 z "},"":{"ha":507,"x_min":57,"x_max":517,"o":"m 113 879 q 133 895 115 882 q 157 913 150 908 q 180 926 164 918 q 213 940 196 935 q 335 947 272 960 q 399 917 375 939 q 429 842 431 888 q 371 743 426 788 q 481 640 449 717 q 475 481 517 550 q 356 399 438 422 q 206 390 289 376 q 71 449 122 403 q 58 476 60 460 q 68 503 57 492 q 95 517 79 515 q 124 507 111 518 q 218 467 157 476 q 335 474 279 457 q 408 522 388 489 q 408 610 431 557 q 336 671 388 661 q 276 667 318 675 l 246 660 q 236 657 239 657 q 231 656 233 657 l 224 656 q 215 657 219 656 q 190 675 199 660 q 185 706 182 689 q 199 732 186 721 q 224 746 207 740 q 233 749 226 747 q 240 751 239 750 l 244 751 q 254 758 249 756 l 268 767 q 281 775 276 772 q 318 799 304 789 q 351 844 350 825 q 346 860 351 856 q 319 871 339 867 q 235 865 278 879 q 215 858 224 863 q 200 850 206 853 l 181 835 l 160 818 q 131 810 147 808 q 106 825 115 813 q 98 853 96 838 q 113 879 100 869 z "},"":{"ha":399,"x_min":79,"x_max":386,"o":"m 90 744 q 118 771 94 747 l 146 800 l 172 825 l 201 854 l 229 879 q 260 906 247 896 l 290 931 l 324 956 q 352 962 336 964 q 377 947 368 960 q 384 917 386 933 q 368 892 382 901 q 338 869 354 882 l 310 847 q 281 821 299 838 l 254 797 q 226 769 247 790 l 201 744 l 174 717 l 146 689 q 118 678 135 678 q 90 689 101 678 q 79 717 79 700 q 90 744 79 733 z "},"":{"ha":754,"x_min":63,"x_max":758,"o":"m 253 204 q 281 127 257 157 q 340 86 306 97 q 415 88 375 76 q 488 133 454 99 q 535 194 514 163 q 574 268 557 225 l 600 338 q 622 423 610 364 q 637 501 633 482 q 651 588 640 519 q 667 613 654 603 q 697 619 681 622 q 722 603 713 617 q 729 574 732 590 q 724 547 728 565 q 699 408 710 458 q 660 280 688 357 q 596 147 633 203 q 653 81 625 103 q 725 49 681 60 q 750 32 742 46 q 755 2 758 18 q 738 -22 751 -14 q 708 -26 724 -31 q 615 13 651 -14 q 546 83 578 39 l 543 81 q 435 13 496 31 q 318 13 375 -6 q 211 92 250 32 q 139 -83 179 0 q 117 -103 132 -97 q 88 -101 103 -108 q 68 -80 74 -94 q 69 -50 63 -65 q 257 656 213 264 q 272 682 258 672 q 301 690 285 692 q 326 676 317 689 q 335 647 336 663 q 250 215 308 418 l 253 204 z "},"":{"ha":694,"x_min":36,"x_max":707,"o":"m 383 458 l 383 465 q 394 863 394 800 q 268 806 326 844 q 172 715 210 765 q 128 551 101 622 q 313 463 158 474 q 383 458 351 460 m 461 460 q 560 467 513 461 q 551 868 561 704 q 472 874 513 875 q 461 463 472 804 l 461 460 m 382 381 q 307 385 344 382 q 56 524 103 400 q 51 645 36 586 q 110 763 67 704 q 256 888 167 838 q 457 951 344 939 q 683 906 569 963 q 702 883 697 899 q 700 853 707 868 q 678 834 693 839 q 647 836 663 829 l 631 844 q 638 592 638 725 q 635 290 638 458 q 632 38 632 122 q 621 10 632 21 q 593 -1 610 -1 q 565 10 576 -1 q 554 38 554 21 q 558 389 554 88 q 460 382 511 383 q 463 39 454 181 q 453 10 464 22 q 426 -3 442 -1 q 398 7 410 -4 q 385 33 386 18 q 382 381 376 176 z "},"":{"ha":161,"x_min":71,"x_max":149,"o":"m 138 474 q 143 468 138 474 q 149 446 149 463 q 138 418 149 429 q 110 407 126 407 q 82 418 93 407 q 71 446 71 429 q 82 474 71 463 q 110 485 93 485 q 138 474 126 485 z "},"":{"ha":389,"x_min":42,"x_max":394,"o":"m 106 -193 q 175 -223 133 -215 q 251 -221 217 -231 q 296 -193 283 -212 q 300 -133 310 -171 q 244 -92 292 -103 q 203 -86 231 -89 q 185 -85 190 -85 q 172 -82 178 -83 q 150 -62 158 -76 q 144 3 132 -33 q 172 51 153 26 q 231 113 182 63 q 258 124 242 124 q 286 113 275 124 q 297 85 297 101 q 286 57 297 68 q 234 3 240 11 q 224 -10 228 -4 q 263 -17 246 -12 q 375 -114 354 -37 q 361 -236 394 -185 q 271 -296 332 -281 q 161 -299 221 -310 q 58 -257 101 -287 q 44 -231 46 -247 q 51 -202 42 -215 q 76 -187 60 -189 q 106 -193 92 -185 z "},"":{"ha":150,"x_min":53,"x_max":147,"o":"m 132 932 q 132 439 147 715 q 119 413 131 424 q 91 403 107 401 q 64 416 75 404 q 54 444 53 428 q 54 926 69 714 q 64 955 53 943 q 91 968 75 967 q 119 958 107 969 q 132 932 131 947 z "},"":{"ha":419,"x_min":68,"x_max":431,"o":"m 190 942 q 222 968 199 965 q 368 925 313 976 q 425 804 418 879 q 394 672 431 735 q 289 588 358 608 q 133 611 196 561 q 74 736 79 656 q 99 856 68 797 q 190 942 129 914 m 258 882 q 176 833 204 874 q 150 742 147 792 q 183 672 154 696 q 267 663 214 647 q 328 713 306 674 q 347 797 351 751 q 315 868 343 843 q 275 889 299 883 q 258 882 267 883 z "},"":{"ha":556,"x_min":19,"x_max":582,"o":"m 268 257 q 400 382 275 265 l 478 454 l 496 472 q 481 493 489 481 q 408 572 456 524 q 331 653 379 604 l 274 708 q 264 737 263 721 q 277 764 265 753 q 305 774 289 775 q 332 761 321 772 q 388 706 339 753 l 465 626 q 540 542 514 575 q 567 504 558 519 q 579 458 582 478 q 572 440 578 449 q 568 435 569 438 l 558 425 l 532 399 l 453 325 q 326 207 335 215 q 301 193 317 194 q 272 202 285 192 q 258 228 260 213 q 268 257 257 244 m 81 235 q 197 374 89 247 l 267 457 l 282 475 l 264 493 q 183 564 236 519 l 96 633 q 35 683 42 676 q 21 710 22 693 q 30 738 19 726 q 57 751 40 750 q 85 742 74 753 l 146 693 l 233 624 q 318 549 289 578 q 349 515 338 529 q 367 471 367 492 l 361 451 q 357 446 360 449 q 350 436 354 442 l 326 407 l 256 324 q 144 190 149 199 q 120 174 136 178 q 91 180 104 171 q 74 205 78 189 q 81 235 71 221 z "},"":{"ha":818,"x_min":42,"x_max":810,"o":"m 569 251 l 569 288 q 568 418 568 361 l 532 365 l 465 269 l 460 261 q 519 254 482 257 q 569 251 542 253 m 247 949 q 274 628 274 828 q 263 600 274 611 q 235 589 251 589 q 207 600 218 589 q 196 628 196 611 q 172 932 196 819 q 177 961 168 947 q 201 978 186 975 q 231 973 217 982 q 247 949 244 964 m 621 931 q 532 753 608 907 l 429 547 l 340 378 q 225 176 278 261 q 115 8 172 90 q 90 -8 106 -4 q 62 -1 75 -11 q 45 24 49 8 q 51 53 42 39 q 158 217 107 133 q 271 414 210 300 l 360 581 q 463 788 388 633 l 551 967 q 574 985 558 981 q 603 983 589 990 q 623 961 618 976 q 621 931 628 946 m 651 540 q 647 289 644 440 l 647 249 q 705 246 661 247 q 772 243 749 244 q 799 230 789 242 q 809 202 810 218 q 797 176 808 186 q 769 165 785 165 q 703 168 746 167 q 650 169 660 169 q 651 33 651 86 q 640 6 651 17 q 613 -6 629 -6 q 585 6 596 -6 q 574 33 574 17 q 572 174 574 88 q 514 178 539 175 q 425 188 456 182 q 393 199 406 193 q 364 244 364 215 q 368 260 364 251 q 371 267 368 263 q 378 279 374 272 l 400 314 l 468 410 q 582 575 571 557 q 605 593 589 589 q 635 589 621 597 q 652 568 647 582 q 651 540 657 554 z "},"":{"ha":696,"x_min":32,"x_max":683,"o":"m 238 949 q 264 628 264 828 q 253 600 264 611 q 225 589 242 589 q 197 600 208 589 q 186 628 186 611 q 163 932 186 819 q 167 961 158 947 q 192 978 176 975 q 221 973 207 982 q 238 949 235 964 m 611 931 q 522 753 599 907 l 419 547 l 331 378 q 215 176 268 261 q 106 8 163 90 q 81 -8 96 -4 q 52 -1 65 -11 q 35 24 39 8 q 42 53 32 39 q 149 217 97 133 q 261 414 200 300 l 350 581 q 453 788 378 633 l 542 967 q 564 985 549 981 q 594 983 579 990 q 613 961 608 976 q 611 931 618 946 m 454 422 q 528 462 488 451 q 604 460 568 472 q 661 403 647 444 q 653 311 674 363 q 608 243 640 282 q 558 188 575 204 q 496 129 542 171 q 442 76 457 93 l 507 76 l 567 76 l 619 76 l 644 76 q 672 65 661 76 q 683 38 683 54 q 672 10 683 21 q 644 -1 661 -1 l 619 -1 l 567 -1 l 508 -1 l 425 -1 l 397 -1 l 389 -1 l 388 -1 l 385 -1 l 382 0 q 378 0 379 0 q 358 11 368 1 q 346 68 336 35 q 368 110 351 88 q 443 186 386 133 l 504 244 q 548 292 524 263 q 581 342 572 321 q 588 379 592 367 q 579 386 585 385 q 545 385 567 390 q 504 364 524 381 q 476 354 492 353 q 449 368 460 356 q 440 397 439 381 q 454 422 442 413 z "},"":{"ha":985,"x_min":47,"x_max":957,"o":"m 717 251 l 717 288 q 715 418 715 361 l 679 365 l 613 269 l 607 261 q 667 254 629 257 q 717 251 689 253 m 768 931 q 679 753 756 907 l 576 547 l 488 378 q 372 176 425 261 q 263 8 319 90 q 238 -8 253 -4 q 209 -1 222 -11 q 192 24 196 8 q 199 53 189 39 q 306 217 254 133 q 418 414 357 300 l 507 581 q 610 788 535 633 l 699 967 q 721 985 706 981 q 751 983 736 990 q 770 961 765 976 q 768 931 775 946 m 799 540 q 794 289 792 440 l 794 249 q 852 246 808 247 q 919 243 896 244 q 947 230 936 242 q 956 202 957 218 q 944 176 956 186 q 917 165 932 165 q 850 168 893 167 q 797 169 807 169 q 799 33 799 86 q 788 6 799 17 q 760 -6 776 -6 q 732 6 743 -6 q 721 33 721 17 q 719 174 721 88 q 661 178 686 175 q 572 188 603 182 q 540 199 553 193 q 511 244 511 215 q 515 260 511 251 q 518 267 515 263 q 525 279 521 272 l 547 314 l 615 410 q 729 575 718 557 q 752 593 736 589 q 782 589 768 597 q 799 568 794 582 q 799 540 804 554 m 176 926 q 300 1011 226 990 q 383 1010 346 1024 q 451 946 428 993 q 451 840 478 892 q 389 776 433 806 l 379 769 q 469 649 457 724 q 428 522 481 572 q 311 472 386 485 q 182 468 246 461 q 72 496 115 475 q 53 517 58 501 q 53 547 47 532 q 75 567 60 561 q 106 565 90 572 q 190 546 136 551 q 297 549 243 540 q 375 581 350 557 q 392 638 397 601 q 332 706 386 679 l 329 706 q 307 707 319 706 q 275 713 289 707 q 243 751 249 724 q 250 785 239 769 q 260 793 254 789 q 269 800 264 796 q 292 810 274 801 q 346 840 326 826 q 383 876 374 860 q 382 910 390 893 q 357 936 372 931 q 321 936 342 942 q 238 879 272 922 q 212 865 228 867 q 183 872 196 863 q 169 898 171 882 q 176 926 167 914 z "},"":{"ha":556,"x_min":50,"x_max":558,"o":"m 554 -43 q 467 -149 532 -106 q 324 -207 401 -193 q 226 -208 274 -212 q 135 -174 178 -204 q 76 -89 93 -143 q 94 63 50 -3 q 204 147 128 108 q 268 176 226 158 l 325 201 q 399 251 383 229 l 399 253 q 399 256 399 253 q 401 263 400 258 q 402 273 401 267 q 404 288 403 279 q 403 371 406 319 q 397 460 401 404 q 392 531 392 517 q 403 559 392 547 q 430 571 414 571 q 458 560 446 571 q 469 533 469 549 q 474 464 469 519 q 481 375 479 411 q 482 283 483 315 q 463 207 478 229 q 358 132 435 167 q 301 106 343 124 q 239 78 263 90 q 158 18 179 49 q 151 -67 135 -15 q 206 -124 164 -107 q 311 -131 249 -140 q 419 -87 372 -119 q 479 -18 467 -56 q 499 4 485 -3 q 529 6 514 11 q 551 -13 544 1 q 554 -43 558 -28 m 465 750 q 471 744 465 750 q 476 722 476 739 q 465 694 476 706 q 438 683 454 683 q 410 694 421 683 q 399 722 399 706 q 410 750 399 739 q 438 761 421 761 q 465 750 454 761 z "},"":{"ha":840,"x_min":63,"x_max":833,"o":"m 249 375 q 615 388 406 369 l 531 640 q 522 671 529 647 q 506 725 515 694 l 488 781 l 464 847 l 447 817 q 390 710 406 740 q 249 375 311 549 m 221 299 q 142 21 175 158 q 125 -4 139 4 q 95 -9 111 -12 q 71 8 79 -6 q 67 38 63 22 q 142 304 97 171 q 115 307 128 306 q 89 321 99 308 q 81 350 79 333 q 94 376 82 367 q 124 385 107 386 q 167 381 146 382 q 321 743 233 568 q 379 854 344 793 q 415 917 401 894 l 431 939 q 442 950 436 946 q 489 951 465 968 q 514 924 503 943 q 531 890 521 911 q 561 806 544 858 l 579 749 l 596 694 q 606 665 603 671 l 694 396 l 736 400 q 765 392 753 401 q 779 365 778 382 q 771 336 781 349 q 744 322 761 324 l 721 319 q 828 38 774 169 q 827 7 833 22 q 806 -14 821 -8 q 776 -13 792 -19 q 756 7 761 -7 q 642 313 696 154 q 221 299 400 290 m 410 1132 q 592 1019 450 1110 q 609 994 606 1010 q 603 965 613 979 q 579 948 594 951 q 550 953 564 944 q 374 1063 411 1043 q 355 1086 360 1071 q 358 1115 350 1101 q 381 1134 365 1129 q 410 1132 396 1139 z "},"":{"ha":822,"x_min":67,"x_max":838,"o":"m 253 375 q 619 388 410 369 l 535 640 q 526 671 533 647 q 510 725 519 694 l 492 781 l 468 847 l 451 817 q 394 710 410 740 q 253 375 315 549 m 225 299 q 146 21 179 158 q 129 -4 143 4 q 99 -9 115 -12 q 75 8 83 -6 q 71 38 67 22 q 146 304 101 171 q 119 307 132 306 q 93 321 103 308 q 85 350 83 333 q 99 376 86 367 q 128 385 111 386 q 171 381 150 382 q 325 743 238 568 q 383 854 349 793 q 419 917 406 894 l 435 939 q 446 950 440 946 q 493 951 469 968 q 518 924 507 943 q 535 890 525 911 q 565 806 549 858 l 583 749 l 600 694 q 610 665 607 671 l 699 396 l 740 400 q 769 392 757 401 q 783 365 782 382 q 775 336 785 349 q 749 322 765 324 l 725 319 q 832 38 778 169 q 831 7 838 22 q 810 -14 825 -8 q 781 -13 796 -19 q 760 7 765 -7 q 646 313 700 154 q 225 299 404 290 m 371 1050 q 517 1129 439 1068 q 545 1137 529 1139 q 571 1122 561 1135 q 578 1094 581 1110 q 564 1068 576 1078 q 390 975 474 997 q 361 979 375 971 q 343 1003 347 988 q 347 1032 339 1018 q 371 1050 356 1046 z "},"":{"ha":836,"x_min":67,"x_max":838,"o":"m 253 375 q 619 388 410 369 l 535 640 q 526 671 533 647 q 510 725 519 694 l 492 781 l 468 847 l 451 817 q 394 710 410 740 q 253 375 315 549 m 225 299 q 146 21 179 158 q 129 -4 143 4 q 99 -9 115 -12 q 75 8 83 -6 q 71 38 67 22 q 146 304 101 171 q 119 307 132 306 q 93 321 103 308 q 85 350 83 333 q 99 376 86 367 q 128 385 111 386 q 171 381 150 382 q 325 743 238 568 q 383 854 349 793 q 419 917 406 894 l 435 939 q 446 950 440 946 q 493 951 469 968 q 518 924 507 943 q 535 890 525 911 q 565 806 549 858 l 583 749 l 600 694 q 610 665 607 671 l 699 396 l 740 400 q 769 392 757 401 q 783 365 782 382 q 775 336 785 349 q 749 322 765 324 l 725 319 q 832 38 778 169 q 831 7 838 22 q 810 -14 825 -8 q 781 -13 796 -19 q 760 7 765 -7 q 646 313 700 154 q 225 299 404 290 m 329 1004 l 375 1058 q 404 1093 401 1089 q 476 1140 444 1139 q 553 1090 515 1143 q 622 971 569 1065 q 626 941 631 957 q 608 917 622 925 q 578 914 594 910 q 556 932 563 918 q 489 1046 504 1024 q 479 1058 483 1054 q 464 1042 472 1053 q 433 1006 460 1038 l 388 951 q 360 939 376 940 q 333 949 344 938 q 319 976 321 960 q 329 1004 318 992 z "},"":{"ha":840,"x_min":67,"x_max":838,"o":"m 253 375 q 619 388 410 369 l 535 640 q 526 671 533 647 q 510 725 519 694 l 492 781 l 468 847 l 451 817 q 394 710 410 740 q 253 375 315 549 m 225 299 q 146 21 179 158 q 129 -4 143 4 q 99 -9 115 -12 q 75 8 83 -6 q 71 38 67 22 q 146 304 101 171 q 119 307 132 306 q 93 321 103 308 q 85 350 83 333 q 99 376 86 367 q 128 385 111 386 q 171 381 150 382 q 325 743 238 568 q 383 854 349 793 q 419 917 406 894 l 435 939 q 446 950 440 946 q 493 951 469 968 q 518 924 507 943 q 535 890 525 911 q 565 806 549 858 l 583 749 l 600 694 q 610 665 607 671 l 699 396 l 740 400 q 769 392 757 401 q 783 365 782 382 q 775 336 785 349 q 749 322 765 324 l 725 319 q 832 38 778 169 q 831 7 838 22 q 810 -14 825 -8 q 781 -13 796 -19 q 760 7 765 -7 q 646 313 700 154 q 225 299 404 290 m 283 988 q 401 1108 346 1089 q 507 1089 450 1126 q 568 1057 553 1060 q 650 1090 601 1051 q 678 1099 663 1100 q 704 1084 694 1097 q 713 1055 714 1071 q 697 1029 711 1039 q 556 981 624 969 q 533 987 544 983 q 511 996 522 990 q 494 1005 500 1001 q 477 1016 488 1008 q 465 1024 467 1024 q 428 1036 440 1040 q 350 946 399 1025 q 326 928 342 932 q 296 933 310 925 q 278 958 282 942 q 283 988 275 974 z "},"":{"ha":826,"x_min":71,"x_max":842,"o":"m 257 375 q 624 388 414 369 l 539 640 q 531 671 538 647 q 514 725 524 694 l 496 781 l 472 847 l 456 817 q 399 710 414 740 q 257 375 319 549 m 229 299 q 150 21 183 158 q 133 -4 147 4 q 103 -9 119 -12 q 79 8 88 -6 q 75 38 71 22 q 150 304 106 171 q 124 307 136 306 q 97 321 107 308 q 89 350 88 333 q 103 376 90 367 q 132 385 115 386 q 175 381 154 382 q 329 743 242 568 q 388 854 353 793 q 424 917 410 894 l 439 939 q 450 950 444 946 q 497 951 474 968 q 522 924 511 943 q 539 890 529 911 q 569 806 553 858 l 588 749 l 604 694 q 614 665 611 671 l 703 396 l 744 400 q 774 392 761 401 q 788 365 786 382 q 779 336 789 349 q 753 322 769 324 l 729 319 q 836 38 782 169 q 835 7 842 22 q 815 -14 829 -8 q 785 -13 800 -19 q 764 7 769 -7 q 650 313 704 154 q 229 299 408 290 m 418 1046 q 424 1040 418 1046 q 429 1018 429 1035 q 418 990 429 1001 q 390 979 407 979 q 363 990 374 979 q 351 1018 351 1001 q 363 1046 351 1035 q 390 1057 374 1057 q 418 1046 407 1057 m 582 1044 q 588 1039 582 1044 q 593 1017 593 1033 q 582 989 593 1000 q 554 978 571 978 q 526 989 538 978 q 515 1017 515 1000 q 526 1044 515 1033 q 554 1056 538 1056 q 582 1044 571 1056 z "},"":{"ha":844,"x_min":67,"x_max":838,"o":"m 253 375 q 619 388 410 369 l 535 640 q 526 671 533 647 q 510 725 519 694 l 492 781 l 468 847 l 451 817 q 394 710 410 740 q 253 375 315 549 m 225 299 q 146 21 179 158 q 129 -4 143 4 q 99 -9 115 -12 q 75 8 83 -6 q 71 38 67 22 q 146 304 101 171 q 119 307 132 306 q 93 321 103 308 q 85 350 83 333 q 99 376 86 367 q 128 385 111 386 q 171 381 150 382 q 325 743 238 568 q 383 854 349 793 l 383 856 q 301 892 332 864 q 264 964 269 919 q 301 1074 258 1022 q 417 1147 343 1125 q 572 1151 503 1174 q 663 1069 642 1129 q 647 965 683 1013 q 533 893 610 917 l 535 890 q 565 806 549 858 l 583 749 l 600 694 q 610 665 607 671 l 699 396 l 740 400 q 769 392 757 401 q 783 365 782 382 q 775 336 785 349 q 749 322 765 324 l 725 319 q 832 38 778 169 q 831 7 838 22 q 810 -14 825 -8 q 781 -13 796 -19 q 760 7 765 -7 q 646 313 700 154 q 225 299 404 290 m 478 960 q 533 975 510 965 q 567 994 557 985 q 585 1015 578 1004 q 590 1032 592 1025 q 589 1043 589 1039 q 569 1067 585 1056 q 519 1083 553 1078 q 439 1072 486 1088 q 363 1027 388 1057 q 342 972 339 997 q 349 955 343 964 q 376 938 356 946 q 429 931 397 929 q 435 939 432 936 q 446 950 440 946 q 475 958 460 960 q 478 960 476 958 z "},"":{"ha":1139,"x_min":76,"x_max":1153,"o":"m 263 378 q 632 378 432 369 l 544 640 q 536 671 543 647 q 519 725 529 694 l 501 781 l 478 847 l 461 817 q 404 710 419 740 q 263 378 325 549 m 504 953 q 968 953 706 967 q 996 940 985 951 q 1006 912 1007 928 q 992 885 1004 896 q 965 875 981 874 q 549 878 731 888 q 575 806 561 847 l 593 749 l 610 694 q 619 665 617 671 l 713 382 q 978 400 828 388 q 1006 391 993 401 q 1019 365 1018 381 q 1010 336 1021 349 q 983 322 1000 324 q 740 306 846 311 l 831 63 q 967 65 874 65 q 1110 69 1060 65 q 1138 60 1126 71 q 1151 33 1150 50 q 1142 5 1153 17 q 1115 -8 1132 -7 q 967 -12 1063 -12 q 824 -15 868 -12 l 817 -15 q 789 -13 803 -19 q 769 7 775 -7 q 658 301 715 143 q 236 301 428 290 q 156 21 189 160 q 139 -4 153 4 q 109 -9 125 -12 q 85 8 93 -6 q 81 38 76 22 q 156 306 111 171 l 144 307 q 117 321 128 308 q 108 349 107 333 q 122 376 110 365 q 150 385 135 386 l 182 382 q 335 743 249 569 q 393 854 358 793 q 429 917 415 894 l 444 939 q 456 950 450 946 q 503 953 479 967 l 504 953 z "},"":{"ha":792,"x_min":54,"x_max":800,"o":"m 626 765 q 500 878 567 856 q 388 864 446 896 q 274 757 328 832 q 183 583 219 682 q 140 388 147 485 q 157 214 132 292 q 411 71 213 51 q 550 106 493 79 q 731 251 636 147 q 758 264 742 263 q 785 254 774 265 q 799 227 797 243 q 789 199 800 211 q 583 36 683 83 q 422 -7 517 4 q 410 -53 414 -39 l 404 -64 l 422 -64 q 544 -124 508 -65 q 563 -196 561 -150 q 518 -300 565 -262 q 421 -335 482 -328 q 236 -317 342 -343 q 213 -299 221 -312 q 208 -270 204 -286 q 226 -246 213 -254 q 256 -242 239 -237 q 413 -257 347 -264 q 469 -239 451 -253 q 485 -199 486 -225 q 478 -165 483 -174 q 421 -142 464 -143 l 399 -142 q 375 -140 383 -142 q 318 -110 335 -137 q 324 -44 300 -79 q 330 -35 328 -39 q 333 -31 332 -32 q 335 -31 335 -31 l 335 -28 q 342 -8 339 -19 q 177 51 242 -1 q 83 190 113 104 q 63 394 54 288 q 110 610 71 501 q 213 805 150 718 q 350 932 275 892 q 525 951 439 979 q 690 810 617 921 q 697 780 700 796 q 680 755 693 764 q 651 749 667 746 q 626 765 635 753 z "},"":{"ha":740,"x_min":60,"x_max":735,"o":"m 171 128 l 171 126 l 171 128 m 94 931 q 699 957 407 985 q 724 943 714 956 q 733 914 735 931 q 719 887 732 897 q 690 878 707 876 q 182 864 447 901 q 183 697 182 817 q 183 513 183 576 q 469 542 267 513 q 499 533 486 543 q 513 508 511 524 q 506 478 515 492 q 481 463 496 465 q 182 433 272 433 q 175 215 181 314 q 172 158 172 167 q 171 126 171 138 l 193 111 q 238 90 215 94 q 385 81 294 78 q 540 94 463 82 q 653 119 617 107 q 683 117 668 124 q 702 94 697 110 q 700 64 707 79 q 678 43 693 49 q 552 16 635 29 q 388 1 469 3 q 219 13 288 -3 q 99 88 129 33 q 93 111 94 97 l 93 125 q 94 163 93 139 q 97 221 94 171 q 104 450 103 324 q 97 476 96 461 q 106 499 99 489 q 105 690 106 565 q 104 851 104 814 q 77 860 89 850 q 63 883 65 869 q 69 914 60 900 q 94 931 79 928 m 292 1132 q 451 1068 371 1108 q 470 1046 465 1061 q 468 1016 475 1031 q 446 997 461 1001 q 415 999 431 992 q 269 1057 342 1036 q 247 1076 254 1061 q 243 1106 239 1090 q 262 1128 247 1121 q 292 1132 276 1136 z "},"":{"ha":694,"x_min":60,"x_max":735,"o":"m 171 128 l 171 126 l 171 128 m 94 931 q 699 957 407 985 q 724 943 714 956 q 733 914 735 931 q 719 887 732 897 q 690 878 707 876 q 182 864 447 901 q 183 695 182 815 q 183 510 183 575 q 469 540 267 510 q 499 532 486 542 q 513 506 511 522 q 506 476 515 489 q 481 461 496 464 q 182 431 272 431 q 175 213 181 311 q 172 156 172 163 q 171 124 171 135 l 193 107 q 238 86 215 90 q 385 76 294 74 q 540 90 463 78 q 653 115 617 103 q 683 113 668 121 q 702 90 697 106 q 700 60 707 75 q 678 40 693 46 q 552 12 635 25 q 388 -3 469 -1 q 219 8 288 -7 q 99 83 129 29 q 93 107 94 93 l 93 122 q 94 158 93 136 q 97 218 94 167 q 104 449 103 321 q 97 475 96 460 q 106 496 99 486 q 105 688 106 564 q 104 851 104 813 q 77 860 89 850 q 63 883 65 869 q 69 914 60 900 q 94 931 79 928 m 256 1060 l 357 1108 q 450 1161 414 1138 q 479 1166 464 1169 q 503 1149 494 1163 q 509 1119 513 1135 q 492 1094 506 1104 q 390 1039 451 1069 l 292 990 q 261 988 276 983 q 239 1008 246 993 q 237 1038 232 1022 q 256 1060 242 1053 z "},"":{"ha":694,"x_min":60,"x_max":735,"o":"m 171 128 l 171 126 l 171 128 m 94 931 q 699 957 407 985 q 724 943 714 956 q 733 914 735 931 q 719 887 732 897 q 690 878 707 876 q 182 864 447 901 q 183 695 182 815 q 183 510 183 575 q 469 540 267 510 q 499 532 486 542 q 513 506 511 522 q 506 476 515 489 q 481 461 496 464 q 182 431 272 431 q 175 213 181 311 q 172 156 172 163 q 171 124 171 135 l 193 107 q 238 86 215 90 q 385 76 294 74 q 540 90 463 78 q 653 115 617 103 q 683 113 668 121 q 702 90 697 106 q 700 60 707 75 q 678 40 693 46 q 552 12 635 25 q 388 -3 469 -1 q 219 8 288 -7 q 99 83 129 29 q 93 107 94 93 l 93 122 q 94 158 93 136 q 97 218 94 167 q 104 449 103 321 q 97 475 96 460 q 106 496 99 486 q 105 688 106 564 q 104 851 104 813 q 77 860 89 850 q 63 883 65 869 q 69 914 60 900 q 94 931 79 928 m 214 1058 q 311 1163 301 1154 q 396 1203 357 1207 q 472 1154 426 1199 q 569 1063 547 1082 q 583 1036 582 1053 q 574 1008 585 1019 q 547 994 564 996 q 519 1004 531 993 q 418 1099 503 1019 q 386 1125 394 1121 q 365 1107 379 1121 q 272 1006 357 1100 q 245 993 261 994 q 217 1003 229 992 q 204 1030 206 1014 q 214 1058 203 1046 z "},"":{"ha":694,"x_min":60,"x_max":735,"o":"m 171 128 l 171 126 l 171 128 m 94 931 q 699 957 407 985 q 724 943 714 956 q 733 914 735 931 q 719 887 732 897 q 690 878 707 876 q 182 864 447 901 q 183 697 182 817 q 183 513 183 576 q 469 542 267 513 q 499 533 486 543 q 513 508 511 524 q 506 478 515 492 q 481 463 496 465 q 182 433 272 433 q 175 215 181 314 q 172 158 172 167 q 171 126 171 138 l 193 111 q 238 90 215 94 q 385 81 294 78 q 540 94 463 82 q 653 119 617 107 q 683 117 668 124 q 702 94 697 110 q 700 64 707 79 q 678 43 693 49 q 552 16 635 29 q 388 1 469 3 q 219 13 288 -3 q 99 88 129 33 q 93 111 94 97 l 93 125 q 94 163 93 139 q 97 221 94 171 q 104 450 103 324 q 97 476 96 461 q 106 499 99 489 q 105 690 106 565 q 104 851 104 814 q 77 860 89 850 q 63 883 65 869 q 69 914 60 900 q 94 931 79 928 m 363 1094 q 368 1089 363 1094 q 374 1067 374 1083 q 363 1039 374 1050 q 335 1028 351 1028 q 307 1039 318 1028 q 296 1067 296 1050 q 307 1094 296 1083 q 335 1106 318 1106 q 363 1094 351 1106 m 529 1104 q 535 1099 529 1104 q 540 1076 540 1093 q 529 1049 540 1060 q 501 1038 518 1038 q 474 1049 485 1038 q 463 1076 463 1060 q 474 1104 463 1093 q 501 1115 485 1115 q 529 1104 518 1115 z "},"":{"ha":465,"x_min":47,"x_max":458,"o":"m 92 956 q 246 953 154 950 l 406 956 q 433 944 422 956 q 444 917 444 933 q 433 888 444 900 q 406 876 422 876 q 283 874 372 876 q 279 477 283 742 q 275 79 275 213 q 419 82 310 81 q 447 70 435 82 q 458 42 458 58 q 447 15 458 26 q 419 3 436 3 q 85 1 188 -1 q 58 13 69 1 q 47 41 47 25 q 59 69 47 57 q 88 81 71 81 q 197 79 139 79 q 201 477 197 213 q 206 872 206 742 q 86 876 138 872 q 59 891 69 878 q 50 920 49 904 q 64 947 51 936 q 92 956 76 957 m 164 1136 q 210 1106 188 1124 q 263 1064 233 1089 l 299 1033 q 313 1007 311 1024 q 304 978 314 990 q 278 964 294 965 q 249 972 261 963 l 210 1007 q 165 1043 183 1029 q 128 1067 147 1057 q 109 1090 114 1075 q 112 1119 104 1106 q 135 1138 119 1133 q 164 1136 150 1143 z "},"":{"ha":456,"x_min":51,"x_max":463,"o":"m 96 956 q 250 953 158 950 l 410 956 q 438 944 426 956 q 449 917 449 933 q 438 888 449 900 q 410 876 426 876 q 288 874 376 876 q 283 477 288 742 q 279 79 279 213 q 424 82 314 81 q 451 70 439 82 q 463 42 463 58 q 451 15 463 26 q 424 3 440 3 q 89 1 192 -1 q 63 13 74 1 q 51 41 51 25 q 63 69 51 57 q 92 81 75 81 q 201 79 143 79 q 206 477 201 213 q 210 872 210 742 q 90 876 142 872 q 63 891 74 878 q 54 920 53 904 q 68 947 56 936 q 96 956 81 957 m 181 1069 q 315 1161 269 1135 q 344 1165 329 1169 q 368 1147 360 1161 q 372 1118 376 1133 q 354 1094 368 1103 q 228 1006 313 1069 q 198 999 214 997 q 173 1015 182 1001 q 166 1044 164 1028 q 181 1069 168 1060 z "},"":{"ha":469,"x_min":47,"x_max":458,"o":"m 92 956 q 246 953 154 950 l 406 956 q 433 944 422 956 q 444 916 444 933 q 433 888 444 899 q 406 876 422 876 q 283 874 372 876 q 279 475 283 742 q 275 75 275 208 q 419 78 310 76 q 447 67 435 78 q 458 39 458 56 q 447 10 458 22 q 419 -1 436 -1 q 85 -3 188 -6 q 58 9 69 -3 q 47 38 47 21 q 59 65 47 54 q 88 76 71 76 q 197 75 139 75 q 201 475 197 208 q 206 872 206 742 q 86 876 138 872 q 59 890 69 878 q 50 919 49 903 q 64 947 51 936 q 92 956 76 957 m 94 1053 l 143 1103 l 185 1144 q 261 1181 226 1185 q 331 1138 290 1178 q 415 1054 394 1074 q 428 1027 426 1043 q 418 999 429 1011 q 391 986 407 988 q 363 996 375 985 q 275 1083 340 1017 q 254 1101 263 1096 q 238 1088 249 1097 l 199 1047 l 150 997 q 122 986 139 986 q 94 997 106 986 q 83 1025 83 1008 q 94 1053 83 1042 z "},"":{"ha":464,"x_min":51,"x_max":463,"o":"m 96 956 q 250 953 158 950 l 410 956 q 438 944 426 956 q 449 917 449 933 q 438 888 449 900 q 410 876 426 876 q 288 874 376 876 q 283 477 288 742 q 279 79 279 213 q 424 82 314 81 q 451 70 439 82 q 463 42 463 58 q 451 15 463 26 q 424 3 440 3 q 89 1 192 -1 q 63 13 74 1 q 51 41 51 25 q 63 69 51 57 q 92 81 75 81 q 201 79 143 79 q 206 477 201 213 q 210 872 210 742 q 90 876 142 872 q 63 891 74 878 q 54 920 53 904 q 68 947 56 936 q 96 956 81 957 m 192 1088 q 197 1082 192 1088 q 203 1060 203 1076 q 192 1032 203 1043 q 164 1021 181 1021 q 136 1032 147 1021 q 125 1060 125 1043 q 136 1088 125 1076 q 164 1099 147 1099 q 192 1088 181 1099 m 347 1096 q 353 1090 347 1096 q 358 1068 358 1085 q 347 1040 358 1051 q 319 1029 336 1029 q 292 1040 303 1029 q 281 1068 281 1051 q 292 1096 281 1085 q 319 1107 303 1107 q 347 1096 336 1107 z "},"":{"ha":840,"x_min":47,"x_max":865,"o":"m 258 71 q 274 72 267 72 q 585 165 472 75 q 739 375 694 254 q 760 615 785 499 q 643 810 735 733 q 400 894 551 888 q 260 872 331 897 q 258 675 257 864 q 260 478 260 486 l 260 475 q 344 481 297 476 q 372 472 360 482 q 386 445 385 461 q 377 417 388 429 q 350 403 367 404 q 260 396 306 399 q 260 318 260 368 q 261 226 261 268 l 261 147 q 260 85 261 122 q 258 71 260 79 m 182 393 q 86 392 133 392 q 58 403 69 392 q 47 431 47 414 q 58 458 47 447 q 86 469 69 469 q 182 471 135 469 l 182 478 q 181 658 182 507 q 181 838 181 808 l 161 828 q 131 826 146 821 q 108 845 115 831 q 106 875 101 860 q 125 897 111 890 q 267 956 206 938 q 403 972 329 975 q 693 871 581 965 q 836 632 806 776 q 813 349 865 493 q 635 104 760 206 q 274 -6 501 -3 q 265 -7 271 -6 q 247 -8 251 -8 q 190 8 211 -12 q 176 68 168 31 q 179 78 178 74 q 181 83 181 82 q 182 86 182 85 l 182 88 q 183 147 183 125 q 182 393 183 151 z "},"":{"ha":789,"x_min":85,"x_max":785,"o":"m 97 14 q 90 671 97 390 q 90 693 90 676 q 88 736 89 710 q 86 783 88 763 q 85 850 85 826 l 85 872 l 85 881 l 85 885 q 86 890 85 888 q 89 897 88 894 q 101 913 93 907 q 135 918 117 922 q 147 913 140 917 q 158 904 153 910 q 178 883 167 897 q 225 825 196 863 l 304 718 l 493 463 q 675 196 617 296 l 681 185 l 689 169 l 692 163 l 693 182 q 697 317 697 301 q 701 600 697 393 q 704 925 707 853 q 715 953 704 942 q 742 965 726 965 q 770 954 758 965 q 782 928 782 943 q 779 597 785 851 q 775 317 775 392 q 771 179 775 301 q 767 88 768 121 q 764 56 765 67 q 763 44 764 49 q 761 38 763 42 q 760 32 761 35 q 740 13 753 18 q 690 19 715 0 q 672 39 682 26 q 643 88 660 57 q 619 135 632 107 l 611 151 q 608 156 610 154 l 608 157 q 431 417 547 258 l 240 674 l 164 775 q 166 733 165 757 q 167 693 167 708 q 168 674 168 678 q 175 14 175 392 q 164 -14 175 -3 q 136 -25 153 -25 q 108 -14 119 -25 q 97 14 97 -3 m 249 974 q 375 1069 308 1061 q 478 1039 418 1074 q 528 1015 517 1015 q 572 1067 546 1017 q 596 1085 581 1081 q 625 1083 611 1090 q 644 1060 639 1075 q 642 1031 649 1044 q 532 939 594 943 q 438 971 499 936 q 383 992 400 993 q 313 929 353 988 q 288 913 304 917 q 259 919 272 910 q 242 944 246 928 q 249 974 239 960 z "},"":{"ha":828,"x_min":72,"x_max":843,"o":"m 456 885 q 375 867 396 876 q 208 673 268 814 q 158 379 147 532 q 250 136 169 224 q 492 58 339 40 q 683 184 610 72 q 762 453 756 296 q 704 731 768 610 q 522 881 640 851 q 456 885 513 883 m 483 961 q 542 956 519 961 q 715 849 644 931 q 814 664 786 767 q 839 450 843 563 q 814 290 836 368 q 750 146 790 213 q 645 35 710 79 q 500 -19 581 -10 q 193 83 308 -42 q 81 374 94 190 q 99 594 72 483 q 188 798 125 704 q 339 936 250 892 q 425 958 371 951 q 444 963 435 963 l 453 963 q 467 964 461 963 q 483 961 475 965 m 425 1144 q 492 1100 440 1133 q 563 1053 539 1069 q 577 1027 575 1043 q 570 998 579 1011 q 545 983 561 985 q 515 989 529 981 q 450 1035 494 1006 l 381 1081 q 365 1106 367 1090 q 372 1135 363 1122 q 397 1151 381 1149 q 425 1144 413 1153 z "},"":{"ha":832,"x_min":72,"x_max":843,"o":"m 456 885 q 375 867 396 876 q 208 673 268 814 q 158 379 147 532 q 250 136 169 224 q 492 58 339 40 q 683 184 610 72 q 762 453 756 296 q 704 731 768 610 q 522 881 640 851 q 456 885 513 883 m 483 961 q 542 956 519 961 q 715 849 644 931 q 814 664 786 767 q 839 450 843 563 q 814 290 836 368 q 750 146 790 213 q 645 35 710 79 q 500 -19 581 -10 q 193 83 308 -42 q 81 374 94 190 q 99 594 72 483 q 188 798 125 704 q 339 936 250 892 q 425 958 371 951 q 444 963 435 963 l 453 963 q 467 964 461 963 q 483 961 475 965 m 344 1060 q 431 1111 376 1076 q 499 1153 486 1146 q 527 1157 511 1161 q 551 1140 543 1153 q 556 1110 560 1126 q 538 1086 551 1094 l 469 1044 l 383 990 q 353 988 368 983 q 330 1006 338 992 q 326 1036 322 1021 q 344 1060 331 1051 z "},"":{"ha":832,"x_min":72,"x_max":843,"o":"m 456 885 q 375 867 396 876 q 208 673 268 814 q 158 379 147 532 q 250 136 169 224 q 492 58 339 40 q 683 184 610 72 q 762 453 756 296 q 704 731 768 610 q 522 881 640 851 q 456 885 513 883 m 483 961 q 542 956 519 961 q 715 849 644 931 q 814 664 786 767 q 839 450 843 563 q 814 290 836 368 q 750 146 790 213 q 645 35 710 79 q 500 -19 581 -10 q 193 83 308 -42 q 81 374 94 190 q 99 594 72 483 q 188 798 125 704 q 339 936 250 892 q 425 958 371 951 q 444 963 435 963 l 453 963 q 467 964 461 963 q 483 961 475 965 m 275 1035 q 375 1133 364 1124 q 463 1176 422 1175 q 551 1135 503 1176 q 651 1032 572 1117 q 663 1005 663 1021 q 651 978 663 989 q 623 967 639 967 q 596 979 607 967 q 500 1076 518 1060 q 463 1099 474 1099 q 426 1075 453 1099 l 331 979 q 303 968 319 968 q 275 979 286 968 q 264 1007 264 990 q 275 1035 264 1024 z "},"":{"ha":828,"x_min":72,"x_max":843,"o":"m 456 885 q 375 867 396 876 q 208 673 268 814 q 158 379 147 532 q 250 136 169 224 q 492 58 339 40 q 683 184 610 72 q 762 453 756 296 q 704 731 768 610 q 522 881 640 851 q 456 885 513 883 m 483 961 q 542 956 519 961 q 715 849 644 931 q 814 664 786 767 q 839 450 843 563 q 814 290 836 368 q 750 146 790 213 q 645 35 710 79 q 500 -19 581 -10 q 193 83 308 -42 q 81 374 94 190 q 99 594 72 483 q 188 798 125 704 q 339 936 250 892 q 425 958 371 951 q 444 963 435 963 l 453 963 q 467 964 461 963 q 483 961 475 965 m 269 1054 q 415 1119 349 1126 q 431 1116 424 1118 q 445 1112 439 1114 q 458 1106 451 1110 q 470 1099 465 1101 q 482 1092 475 1097 l 492 1086 q 501 1078 494 1083 q 508 1072 507 1072 q 557 1050 540 1049 q 653 1121 592 1054 q 680 1133 664 1132 q 708 1124 696 1135 q 721 1097 719 1113 q 711 1068 722 1081 q 565 972 631 979 q 461 1010 517 968 q 407 1042 422 1040 q 322 996 375 1044 q 294 986 310 985 q 267 999 278 988 q 257 1027 256 1011 q 269 1054 258 1043 z "},"":{"ha":828,"x_min":72,"x_max":843,"o":"m 456 885 q 375 867 396 876 q 208 673 268 814 q 158 379 147 532 q 250 136 169 224 q 492 58 339 40 q 683 184 610 72 q 762 453 756 296 q 704 731 768 610 q 522 881 640 851 q 456 885 513 883 m 483 961 q 542 956 519 961 q 715 849 644 931 q 814 664 786 767 q 839 450 843 563 q 814 290 836 368 q 750 146 790 213 q 645 35 710 79 q 500 -19 581 -10 q 193 83 308 -42 q 81 374 94 190 q 99 594 72 483 q 188 798 125 704 q 339 936 250 892 q 425 958 371 951 q 444 963 435 963 l 453 963 q 467 964 461 963 q 483 961 475 965 m 419 1064 q 425 1058 419 1064 q 431 1036 431 1053 q 419 1008 431 1019 q 392 997 408 997 q 364 1008 375 997 q 353 1036 353 1019 q 364 1064 353 1053 q 392 1075 375 1075 q 419 1064 408 1075 m 567 1061 q 572 1056 567 1061 q 578 1033 578 1050 q 567 1006 578 1017 q 539 994 556 994 q 511 1006 522 994 q 500 1033 500 1017 q 511 1061 500 1050 q 539 1072 522 1072 q 567 1061 556 1072 z "},"":{"ha":419,"x_min":54,"x_max":414,"o":"m 246 472 q 125 314 172 372 q 99 300 115 301 q 69 308 82 299 q 56 335 57 318 q 64 364 54 351 q 194 535 113 424 q 93 638 144 593 q 79 664 81 647 q 88 692 78 681 q 115 706 99 704 q 143 696 132 707 q 242 599 193 653 l 333 718 q 359 733 343 731 q 388 725 375 735 q 402 699 400 715 q 394 671 404 683 l 293 538 q 404 382 349 468 q 410 353 414 369 q 394 328 407 338 q 365 323 381 319 q 340 340 349 326 q 246 472 293 413 z "},"":{"ha":832,"x_min":72,"x_max":843,"o":"m 649 807 q 522 881 594 863 q 456 885 513 883 q 375 867 396 876 q 208 673 268 814 q 158 379 147 532 q 213 189 167 268 l 350 372 l 519 617 l 649 807 m 697 742 l 597 594 l 486 433 l 386 290 l 272 140 l 261 125 q 492 58 347 40 q 683 183 610 72 q 761 453 756 294 q 697 742 768 622 m 100 32 q 154 107 121 57 l 163 121 q 81 374 92 224 q 99 594 72 483 q 188 798 125 704 q 339 936 250 892 q 425 958 371 951 q 444 963 435 963 l 453 963 q 467 964 461 963 q 483 961 475 965 q 542 956 519 961 q 693 872 628 935 l 735 931 q 760 947 744 944 q 790 940 776 950 q 806 915 803 931 q 799 886 808 899 l 746 811 q 819 644 796 739 q 839 450 843 550 q 814 290 836 367 q 750 146 790 213 q 645 35 710 79 q 500 -19 581 -10 q 217 60 328 -40 q 158 -18 182 10 q 133 -32 149 -31 q 104 -23 117 -33 q 90 3 92 -12 q 100 32 89 19 z "},"":{"ha":718,"x_min":65,"x_max":714,"o":"m 144 922 q 147 726 149 865 q 147 503 146 569 q 232 138 156 236 q 411 71 304 43 q 501 118 458 82 q 565 207 543 154 q 617 378 600 282 q 635 542 633 475 q 634 733 636 610 q 633 913 632 857 q 645 940 633 929 q 673 951 657 951 q 700 940 689 951 q 711 913 711 928 q 712 772 710 863 q 714 617 714 682 q 708 472 714 553 q 685 317 703 392 q 637 174 667 242 q 551 59 607 107 q 429 -6 496 11 q 290 1 358 -22 q 171 90 222 24 q 69 500 79 208 q 69 726 68 568 q 67 917 71 863 q 76 944 65 932 q 102 958 86 957 q 131 949 118 960 q 144 922 143 939 m 356 1093 q 489 992 385 1067 q 503 966 501 982 q 497 937 506 950 q 472 922 488 924 q 442 928 456 919 q 303 1035 333 1007 q 290 1062 292 1046 q 300 1090 289 1078 q 327 1103 311 1101 q 356 1093 343 1104 z "},"":{"ha":713,"x_min":65,"x_max":714,"o":"m 144 922 q 147 726 149 865 q 147 503 146 569 q 232 138 156 236 q 411 71 304 43 q 501 118 458 82 q 565 207 543 154 q 617 378 600 282 q 635 542 633 475 q 634 733 636 610 q 633 913 632 857 q 645 940 633 929 q 673 951 657 951 q 700 940 689 951 q 711 913 711 928 q 712 772 710 863 q 714 617 714 682 q 708 472 714 553 q 685 317 703 392 q 637 174 667 242 q 551 59 607 107 q 429 -6 496 11 q 290 1 358 -22 q 171 90 222 24 q 69 500 79 208 q 69 726 68 568 q 67 917 71 863 q 76 944 65 932 q 102 958 86 957 q 131 949 118 960 q 144 922 143 939 m 296 1000 q 483 1146 351 1036 q 512 1154 496 1156 q 538 1140 528 1153 q 547 1112 549 1128 q 533 1085 546 1096 q 340 936 397 974 q 310 930 326 926 q 285 947 294 933 q 280 976 276 960 q 296 1000 283 992 z "},"":{"ha":728,"x_min":75,"x_max":724,"o":"m 154 922 q 157 726 158 865 q 157 503 156 569 q 242 138 165 236 q 421 71 314 43 q 510 118 468 82 q 575 207 553 154 q 626 378 610 282 q 644 542 643 475 q 644 733 646 610 q 643 913 642 857 q 655 940 643 929 q 683 951 667 951 q 710 940 699 951 q 721 913 721 928 q 722 772 719 863 q 724 617 724 682 q 718 472 724 553 q 694 317 713 392 q 647 174 676 242 q 561 59 617 107 q 439 -6 506 11 q 300 1 368 -22 q 181 90 232 24 q 79 500 89 208 q 79 726 78 568 q 76 917 81 863 q 85 944 75 932 q 112 958 96 957 q 140 949 128 960 q 154 922 153 939 m 208 1011 q 304 1132 276 1103 q 399 1174 353 1181 q 485 1119 436 1169 q 531 1069 497 1107 l 585 1010 q 596 983 596 999 q 584 956 596 967 q 556 944 572 944 q 529 957 540 944 l 474 1017 q 429 1065 440 1051 q 388 1097 399 1096 q 360 1076 381 1097 q 269 964 335 1051 q 245 949 261 951 q 216 956 229 947 q 201 981 203 965 q 208 1011 199 997 z "},"":{"ha":722,"x_min":69,"x_max":718,"o":"m 149 922 q 151 726 153 865 q 151 503 150 569 q 236 138 160 236 q 415 71 308 43 q 505 118 463 82 q 569 207 547 154 q 621 378 604 282 q 639 542 638 475 q 638 733 640 610 q 638 913 636 857 q 649 940 638 929 q 677 951 661 951 q 704 940 693 951 q 715 913 715 928 q 716 772 714 863 q 718 617 718 682 q 713 472 718 553 q 689 317 707 392 q 641 174 671 242 q 556 59 611 107 q 433 -6 500 11 q 294 1 363 -22 q 175 90 226 24 q 74 500 83 208 q 74 726 72 568 q 71 917 75 863 q 80 944 69 932 q 106 958 90 957 q 135 949 122 960 q 149 922 147 939 m 378 1068 q 383 1063 378 1068 q 389 1040 389 1057 q 378 1013 389 1024 q 350 1001 367 1001 q 322 1013 333 1001 q 311 1040 311 1024 q 322 1068 311 1057 q 350 1079 333 1079 q 378 1068 367 1079 m 519 1065 q 525 1060 519 1065 q 531 1038 531 1054 q 519 1010 531 1021 q 492 999 508 999 q 464 1010 475 999 q 453 1038 453 1021 q 464 1065 453 1054 q 492 1076 475 1076 q 519 1065 508 1076 z "},"":{"ha":694,"x_min":28,"x_max":717,"o":"m 107 929 q 114 907 108 922 q 150 789 136 832 q 190 681 164 746 q 248 568 217 615 q 318 490 279 521 q 411 481 364 451 q 515 603 463 511 q 594 776 561 681 q 636 922 628 871 q 652 947 639 938 q 681 954 665 957 q 707 938 697 951 q 714 908 717 925 q 668 750 704 851 q 583 564 632 649 q 451 414 519 454 q 411 396 432 401 q 413 211 414 381 q 411 26 411 42 q 400 -1 411 10 q 372 -12 389 -12 q 344 -1 356 -12 q 333 26 333 10 q 335 210 333 40 q 333 394 336 381 q 268 429 300 404 q 187 521 224 467 q 121 646 150 575 q 76 761 92 717 l 40 879 q 32 907 35 899 q 35 937 28 922 q 58 956 43 951 q 88 952 74 960 q 107 929 103 944 m 261 985 q 408 1097 333 1033 q 436 1107 419 1108 q 463 1094 453 1106 q 472 1065 474 1082 q 458 1039 471 1049 q 306 921 381 971 q 276 915 292 911 q 251 931 260 918 q 245 960 242 944 q 261 985 249 976 z "},"":{"ha":578,"x_min":82,"x_max":596,"o":"m 169 146 q 168 -82 168 6 q 157 -110 168 -99 q 129 -121 146 -121 q 101 -110 113 -121 q 90 -82 90 -99 q 94 221 90 8 q 96 590 97 433 q 83 893 94 747 q 92 922 82 910 q 119 935 103 933 q 148 926 136 936 q 161 899 160 915 q 172 646 169 782 q 289 708 224 688 q 414 725 353 729 q 549 658 506 719 q 560 479 596 590 q 385 275 525 379 q 169 146 303 214 m 171 233 q 339 339 272 289 q 485 504 460 426 q 485 614 510 578 q 408 649 464 644 q 281 622 347 651 q 181 543 215 593 q 174 535 178 539 q 171 233 174 426 z "},"":{"ha":772,"x_min":54,"x_max":764,"o":"m 63 43 q 74 57 67 50 l 83 68 q 92 79 90 75 q 97 142 97 99 q 96 182 97 156 q 94 221 94 208 q 94 295 94 239 q 93 385 93 351 q 96 469 93 418 q 106 561 99 519 q 276 869 138 779 q 449 917 367 931 q 528 875 499 908 q 569 796 558 842 q 554 633 589 714 q 506 553 533 590 q 636 524 572 563 q 746 381 714 475 q 758 261 764 317 q 722 156 751 206 q 653 69 693 106 q 564 6 613 32 q 364 -42 461 -50 q 207 63 250 -33 q 207 92 201 76 q 227 113 213 107 q 257 114 242 119 q 279 93 272 108 q 371 36 301 42 q 526 74 444 29 q 656 197 614 121 q 671 356 699 274 q 594 457 649 424 q 488 467 544 489 q 463 457 476 464 q 438 444 439 446 q 374 435 400 428 q 339 476 339 443 q 354 511 339 494 q 371 526 360 517 l 390 543 q 482 667 451 597 q 494 778 507 721 q 435 839 481 832 q 318 806 383 849 q 182 550 210 733 q 174 464 176 511 q 171 385 171 417 q 172 297 171 353 q 172 221 172 242 q 174 183 172 208 q 175 143 175 157 q 164 54 176 86 q 143 18 158 36 l 133 7 q 126 -1 128 1 q 101 -17 117 -15 q 72 -10 85 -19 q 56 15 58 -1 q 63 43 54 31 z "},"":{"ha":640,"x_min":36,"x_max":613,"o":"m 497 174 q 485 255 490 214 q 478 346 481 296 q 474 425 475 396 q 471 515 472 454 q 468 593 469 576 q 297 569 381 628 q 167 397 214 511 q 143 188 118 279 q 265 78 168 94 q 386 90 328 67 q 489 165 443 114 l 497 174 m 546 615 q 549 504 546 597 q 553 377 551 411 q 562 274 556 343 q 579 152 568 204 q 608 50 590 100 q 606 20 613 35 q 583 1 599 6 q 553 3 568 -4 q 533 25 539 10 l 517 83 q 251 0 399 -25 q 131 58 178 14 q 68 168 85 103 q 94 426 36 285 q 160 543 119 489 q 258 637 201 597 q 378 683 314 676 q 517 657 443 689 q 533 643 528 653 q 546 615 546 632 m 279 886 q 443 778 318 857 q 460 753 457 768 q 455 724 464 738 q 431 706 446 710 q 401 711 415 703 q 232 825 274 793 q 217 851 219 835 q 225 879 215 867 q 251 894 235 892 q 279 886 267 896 z "},"":{"ha":594,"x_min":36,"x_max":613,"o":"m 497 174 q 485 255 490 214 q 478 346 481 296 q 474 425 475 396 q 471 515 472 454 q 468 593 469 576 q 297 569 381 628 q 167 397 214 511 q 143 188 118 279 q 265 78 168 94 q 386 90 328 67 q 489 165 443 114 l 497 174 m 546 615 q 549 504 546 597 q 553 377 551 411 q 562 274 556 343 q 579 152 568 204 q 608 50 590 100 q 606 20 613 35 q 583 1 599 6 q 553 3 568 -4 q 533 25 539 10 l 517 83 q 251 0 399 -25 q 131 58 178 14 q 68 168 85 103 q 94 426 36 285 q 160 543 119 489 q 258 637 201 597 q 378 683 314 676 q 517 657 443 689 q 533 643 528 653 q 546 615 546 632 m 269 778 q 357 842 306 800 l 446 910 q 476 917 460 919 q 501 902 492 915 q 508 873 510 889 q 493 849 506 857 l 406 779 q 311 711 350 738 q 282 706 297 703 q 258 724 267 710 q 252 753 249 738 q 269 778 256 768 z "},"":{"ha":594,"x_min":36,"x_max":613,"o":"m 497 174 q 485 255 490 214 q 478 346 481 296 q 474 425 475 396 q 471 515 472 454 q 468 593 469 576 q 297 569 381 628 q 167 397 214 511 q 143 188 118 279 q 265 78 168 94 q 386 90 328 67 q 489 165 443 114 l 497 174 m 546 615 q 549 504 546 597 q 553 377 551 411 q 562 274 556 343 q 579 152 568 204 q 608 50 590 100 q 606 20 613 35 q 583 1 599 6 q 553 3 568 -4 q 533 25 539 10 l 517 83 q 251 0 399 -25 q 131 58 178 14 q 68 168 85 103 q 94 426 36 285 q 160 543 119 489 q 258 637 201 597 q 378 683 314 676 q 517 657 443 689 q 533 643 528 653 q 546 615 546 632 m 238 764 q 317 867 304 851 q 396 915 358 914 q 478 869 436 917 q 556 761 499 844 q 562 731 565 747 q 545 706 558 715 q 516 701 532 697 q 492 717 500 704 q 418 818 438 797 q 399 836 407 832 q 375 815 390 832 q 299 717 364 803 q 273 702 289 704 q 244 710 257 700 q 230 735 232 719 q 238 764 228 751 z "},"":{"ha":582,"x_min":32,"x_max":608,"o":"m 493 174 q 481 255 486 214 q 474 346 476 296 q 469 425 471 396 q 467 515 468 454 q 464 593 465 576 q 293 569 376 628 q 163 397 210 511 q 139 188 114 279 q 261 78 164 94 q 382 90 324 67 q 485 165 439 114 l 493 174 m 542 615 q 544 504 542 597 q 549 377 547 411 q 558 274 551 343 q 575 152 564 204 q 604 50 586 100 q 601 20 608 35 q 579 1 594 6 q 549 3 564 -4 q 529 25 535 10 l 513 83 q 247 0 394 -25 q 127 58 174 14 q 64 168 81 103 q 90 426 32 285 q 156 543 115 489 q 253 637 197 597 q 374 683 310 676 q 513 657 439 689 q 529 643 524 653 q 542 615 542 632 m 197 808 q 311 892 250 888 q 406 858 351 894 q 461 828 449 831 q 508 854 482 824 q 535 867 519 865 q 563 857 551 868 q 576 830 575 846 q 567 801 578 814 q 447 751 511 740 q 363 793 418 757 q 317 814 331 815 q 261 764 294 813 q 237 748 253 751 q 208 753 221 744 q 191 778 194 763 q 197 808 188 794 z "},"":{"ha":588,"x_min":42,"x_max":618,"o":"m 503 174 q 491 255 496 214 q 483 346 486 296 q 479 425 481 396 q 476 515 478 454 q 474 593 475 576 q 303 569 386 628 q 172 397 219 511 q 149 188 124 279 q 271 78 174 94 q 392 90 333 67 q 494 165 449 114 l 503 174 m 551 615 q 554 504 551 597 q 559 377 557 411 q 567 274 561 343 q 585 152 574 204 q 614 50 596 100 q 611 20 618 35 q 589 1 604 6 q 559 3 574 -4 q 539 25 544 10 l 522 83 q 257 0 404 -25 q 137 58 183 14 q 74 168 90 103 q 100 426 42 285 q 166 543 125 489 q 263 637 207 597 q 384 683 319 676 q 522 657 449 689 q 539 643 533 653 q 551 615 551 632 m 324 844 q 329 839 324 844 q 335 817 335 833 q 324 789 335 800 q 296 778 313 778 q 268 789 279 778 q 257 817 257 800 q 268 844 257 833 q 296 856 279 856 q 324 844 313 856 m 501 847 q 507 842 501 847 q 513 819 513 836 q 501 792 513 803 q 474 781 490 781 q 446 792 457 781 q 435 819 435 803 q 446 847 435 836 q 474 858 457 858 q 501 847 490 858 z "},"":{"ha":596,"x_min":46,"x_max":622,"o":"m 507 174 q 495 255 500 214 q 488 346 490 296 q 483 425 485 396 q 481 515 482 454 q 478 593 479 576 q 307 569 390 628 q 176 397 224 511 q 153 188 128 279 q 275 78 178 94 q 396 90 338 67 q 499 165 453 114 l 507 174 m 400 831 q 442 857 428 840 q 458 886 457 874 q 451 901 460 896 q 378 906 428 915 q 328 889 347 901 q 305 866 310 876 q 301 849 300 856 q 307 839 301 844 q 335 826 313 833 q 400 831 357 819 m 329 750 q 257 778 285 756 q 224 839 229 800 q 258 931 217 890 q 364 983 299 972 q 492 968 444 996 q 536 875 543 936 q 504 810 531 840 q 436 761 478 779 q 422 756 429 757 l 421 754 q 358 740 392 744 q 329 750 342 739 m 556 615 q 558 504 556 597 q 563 377 561 411 q 572 274 565 343 q 589 152 578 204 q 618 50 600 100 q 615 20 622 35 q 593 1 608 6 q 563 3 578 -4 q 543 25 549 10 l 526 83 q 261 0 408 -25 q 141 58 188 14 q 78 168 94 103 q 104 426 46 285 q 170 543 129 489 q 267 637 211 597 q 388 683 324 676 q 526 657 453 689 q 543 643 538 653 q 556 615 556 632 z "},"":{"ha":1007,"x_min":46,"x_max":1011,"o":"m 507 174 q 479 593 488 369 q 307 569 390 628 q 176 397 224 511 q 153 188 128 279 q 275 78 178 94 q 396 90 338 67 q 499 165 453 114 l 507 174 m 557 565 q 569 358 563 458 q 731 424 643 367 q 831 526 808 476 q 838 607 853 575 q 806 638 828 626 q 748 652 785 650 q 663 635 711 654 q 636 621 650 629 l 613 606 q 585 586 603 600 l 557 565 m 528 69 q 521 78 524 74 q 261 0 404 -25 q 141 58 188 14 q 78 168 94 103 q 104 426 46 285 q 170 543 129 489 q 267 637 211 597 q 388 683 324 676 q 526 657 453 689 q 539 649 533 654 q 635 707 597 692 q 799 724 722 742 q 907 642 875 706 q 903 499 939 575 q 772 360 868 422 q 575 281 669 290 q 592 118 582 197 q 647 54 611 72 q 740 44 685 35 q 849 83 793 53 q 944 154 904 114 q 972 165 956 165 q 1000 154 989 165 q 1011 126 1011 143 q 1000 99 1011 110 q 885 15 951 51 q 751 -33 818 -22 q 613 -15 672 -46 q 528 69 558 13 z "},"":{"ha":561,"x_min":38,"x_max":567,"o":"m 458 553 q 290 601 374 632 q 160 472 211 574 q 119 335 125 406 q 142 201 114 264 q 229 107 169 139 q 376 78 303 67 q 421 91 397 81 q 457 110 444 101 l 503 139 q 533 145 517 149 q 558 128 549 142 q 563 99 567 115 q 547 75 560 83 q 533 66 546 74 q 518 57 521 58 l 506 47 q 490 39 494 40 l 476 31 l 460 22 q 444 15 454 19 q 425 9 433 11 q 407 4 417 7 q 388 0 397 1 q 304 0 344 -6 l 269 -65 l 267 -71 l 296 -71 q 429 -140 397 -71 q 428 -268 464 -211 q 333 -333 400 -311 q 217 -351 279 -351 q 114 -333 154 -350 q 93 -312 99 -326 q 94 -282 88 -297 q 115 -261 100 -267 q 144 -261 129 -256 q 217 -273 171 -272 q 308 -260 264 -274 q 363 -225 349 -246 q 360 -174 375 -206 q 294 -149 347 -149 q 266 -149 285 -149 q 242 -150 247 -150 q 179 -132 199 -150 q 171 -119 174 -126 q 168 -107 168 -111 l 168 -103 q 169 -94 168 -99 q 171 -89 169 -92 l 174 -83 q 179 -69 175 -78 l 200 -31 l 226 21 l 193 38 q 90 132 128 74 q 45 256 53 190 q 49 385 38 321 q 90 508 61 450 q 264 675 156 638 q 511 611 393 721 q 524 583 524 600 q 513 555 524 567 q 486 543 503 543 q 458 553 469 543 z "},"":{"ha":693,"x_min":61,"x_max":686,"o":"m 535 463 q 522 503 540 478 q 440 567 494 543 q 363 588 401 585 q 285 572 325 590 q 213 513 244 554 q 153 308 149 428 q 344 378 235 336 q 481 433 429 410 q 525 456 510 446 q 535 463 531 458 m 164 231 q 270 93 192 140 q 446 67 349 46 q 622 165 519 83 q 651 174 635 175 q 676 159 667 172 q 685 130 686 146 q 669 104 683 114 q 463 -8 554 11 q 203 44 315 -42 q 76 275 90 131 q 151 560 61 440 q 253 644 194 618 q 367 665 313 669 q 472 638 421 661 q 586 547 546 604 q 600 419 635 476 q 563 388 590 404 q 513 363 544 378 q 372 306 458 339 q 164 231 261 263 m 226 875 q 322 818 253 857 q 422 757 390 781 q 438 731 436 747 q 431 702 440 715 q 406 687 422 689 q 378 693 390 685 q 283 751 350 713 q 182 811 213 792 q 166 835 169 819 q 172 865 163 851 q 197 881 181 878 q 226 875 213 885 z "},"":{"ha":693,"x_min":61,"x_max":686,"o":"m 535 463 q 522 503 540 478 q 440 567 494 543 q 363 588 401 585 q 285 572 325 590 q 213 513 244 554 q 153 308 149 428 q 344 378 235 336 q 481 433 429 410 q 525 456 510 446 q 535 463 531 458 m 164 231 q 270 93 192 140 q 446 67 349 46 q 622 165 519 83 q 651 174 635 175 q 676 159 667 172 q 685 130 686 146 q 669 104 683 114 q 463 -8 554 11 q 203 44 315 -42 q 76 275 90 131 q 151 560 61 440 q 253 644 194 618 q 367 665 313 669 q 472 638 421 661 q 586 547 546 604 q 600 419 635 476 q 563 388 590 404 q 513 363 544 378 q 372 306 458 339 q 164 231 261 263 m 174 722 q 177 730 174 722 q 193 744 179 738 q 222 760 207 751 q 247 775 236 768 l 274 794 q 297 811 290 806 l 325 833 q 349 853 343 849 q 375 875 354 857 q 400 896 396 893 q 428 906 413 907 q 455 892 444 904 q 464 863 465 879 q 450 838 463 847 q 426 817 446 833 l 400 794 l 374 772 l 346 750 q 319 731 336 743 l 289 710 q 260 692 276 701 q 229 675 244 682 q 199 673 214 668 q 176 692 183 678 q 174 722 169 707 z "},"":{"ha":693,"x_min":61,"x_max":686,"o":"m 535 463 q 522 503 540 478 q 440 567 494 543 q 363 588 401 585 q 285 572 325 590 q 213 513 244 554 q 153 308 149 428 q 344 378 235 336 q 481 433 429 410 q 525 456 510 446 q 535 463 531 458 m 164 231 q 270 93 192 140 q 446 67 349 46 q 622 165 519 83 q 651 174 635 175 q 676 159 667 172 q 685 130 686 146 q 669 104 683 114 q 463 -8 554 11 q 203 44 315 -42 q 76 275 90 131 q 151 560 61 440 q 253 644 194 618 q 367 665 313 669 q 472 638 421 661 q 586 547 546 604 q 600 419 635 476 q 563 388 590 404 q 513 363 544 378 q 372 306 458 339 q 164 231 261 263 m 150 760 l 265 875 q 354 921 317 924 q 435 864 390 918 l 458 835 l 494 792 l 533 744 q 543 717 544 733 q 530 690 542 701 q 502 681 518 679 q 475 694 486 682 q 436 740 454 717 l 400 785 l 375 814 q 349 842 357 835 q 318 818 338 836 l 203 704 q 176 693 192 693 q 149 705 160 693 q 138 733 138 717 q 150 760 138 749 z "},"":{"ha":693,"x_min":61,"x_max":686,"o":"m 535 463 q 522 503 540 478 q 440 567 494 543 q 363 588 401 585 q 285 572 325 590 q 213 513 244 554 q 153 308 149 428 q 344 378 235 336 q 481 433 429 410 q 525 456 510 446 q 535 463 531 458 m 164 231 q 270 93 192 140 q 446 67 349 46 q 622 165 519 83 q 651 174 635 175 q 676 159 667 172 q 685 130 686 146 q 669 104 683 114 q 463 -8 554 11 q 203 44 315 -42 q 76 275 90 131 q 151 560 61 440 q 253 644 194 618 q 367 665 313 669 q 472 638 421 661 q 586 547 546 604 q 600 419 635 476 q 563 388 590 404 q 513 363 544 378 q 372 306 458 339 q 164 231 261 263 m 282 794 q 288 789 282 794 q 293 767 293 783 q 282 739 293 750 q 254 728 271 728 q 226 739 238 728 q 215 767 215 750 q 226 794 215 783 q 254 806 238 806 q 282 794 271 806 m 444 801 q 450 796 444 801 q 456 774 456 790 q 444 746 456 757 q 417 735 433 735 q 389 746 400 735 q 378 774 378 757 q 389 801 378 790 q 417 813 400 813 q 444 801 433 813 z "},"":{"ha":181,"x_min":-4,"x_max":214,"o":"m 156 639 q 157 33 157 565 q 146 6 157 17 q 118 -6 135 -6 q 90 6 101 -6 q 79 33 79 17 q 78 636 79 565 q 89 665 78 653 q 116 676 100 676 q 144 665 132 676 q 156 639 156 654 m 61 876 q 123 824 75 865 q 199 760 171 782 q 213 733 211 750 q 204 704 214 717 q 178 690 194 692 q 149 699 161 689 l 74 764 l 11 818 q -3 844 -1 828 q 6 872 -4 860 q 33 886 17 885 q 61 876 49 888 z "},"":{"ha":154,"x_min":-31,"x_max":188,"o":"m 129 639 q 131 33 131 565 q 119 6 131 17 q 92 -6 108 -6 q 64 6 75 -6 q 53 33 53 17 q 51 636 53 565 q 63 665 51 653 q 90 676 74 676 q 117 665 106 676 q 129 639 129 654 m -19 779 q 3 804 -14 786 l 25 831 q 47 856 32 839 l 71 881 q 94 904 81 892 q 122 928 108 917 q 151 938 135 939 q 177 924 167 936 q 186 895 188 911 q 172 869 185 879 q 147 847 160 858 l 126 825 q 103 803 117 817 l 83 781 l 61 754 q 39 729 44 736 q 12 715 28 717 q -16 725 -4 714 q -29 752 -28 736 q -19 779 -31 768 z "},"":{"ha":224,"x_min":-83,"x_max":279,"o":"m 146 639 q 147 33 147 565 q 136 6 147 17 q 108 -6 125 -6 q 81 6 92 -6 q 69 33 69 17 q 68 636 69 565 q 79 665 68 653 q 106 676 90 676 q 134 665 122 676 q 146 639 146 654 m -74 781 l 39 922 q 74 958 60 947 q 129 969 101 979 q 165 936 149 961 l 188 897 q 269 774 225 829 q 278 745 279 761 q 263 719 276 729 q 234 711 250 710 q 208 726 218 713 q 119 860 161 786 l 107 882 l 99 872 l -12 731 q -40 717 -24 718 q -68 726 -56 715 q -82 752 -81 736 q -74 781 -83 768 z "},"":{"ha":163,"x_min":-15,"x_max":190,"o":"m 132 639 q 133 33 133 565 q 122 6 133 17 q 94 -6 111 -6 q 67 6 78 -6 q 56 33 56 17 q 54 636 56 565 q 65 665 54 653 q 92 676 76 676 q 120 665 108 676 q 132 639 132 654 m 51 838 q 57 832 51 838 q 63 810 63 826 q 51 782 63 793 q 24 771 40 771 q -4 782 7 771 q -15 810 -15 793 q -4 838 -15 826 q 24 849 7 849 q 51 838 40 849 m 179 840 q 185 835 179 840 q 190 813 190 829 q 179 785 190 796 q 151 774 168 774 q 124 785 135 774 q 113 813 113 796 q 124 840 113 829 q 151 851 135 851 q 179 840 168 851 z "},"":{"ha":586,"x_min":85,"x_max":604,"o":"m 446 468 q 192 250 264 374 q 188 128 146 171 q 240 102 207 108 q 322 106 274 96 q 472 233 442 136 q 453 453 500 325 l 446 468 m 314 676 q 163 564 231 608 q 133 559 149 556 q 109 576 118 563 q 103 606 100 590 q 121 631 107 621 q 257 731 182 669 q 117 810 185 792 q 92 828 100 814 q 89 858 85 842 q 107 881 93 874 q 136 885 121 889 q 318 781 228 860 q 481 917 446 890 q 509 924 493 926 q 535 910 525 922 q 542 881 544 897 q 528 856 540 865 l 374 726 q 483 571 438 656 q 547 599 513 585 q 578 598 563 604 q 599 577 593 592 q 598 547 604 563 q 578 526 592 532 l 517 501 q 525 481 521 490 q 546 211 582 326 q 342 31 503 72 q 225 25 282 14 q 132 74 168 36 q 91 170 93 114 q 125 289 89 226 q 413 538 208 433 q 314 676 371 613 z "},"":{"ha":556,"x_min":78,"x_max":582,"o":"m 158 457 q 157 247 158 386 q 156 39 156 107 q 144 11 156 22 q 117 0 133 0 q 89 11 100 0 q 78 39 78 22 q 81 322 78 72 q 79 606 83 572 q 90 634 79 622 q 117 646 101 646 q 145 635 133 646 q 157 608 157 624 q 158 575 157 592 q 208 618 183 600 q 385 658 297 681 q 568 369 536 621 q 571 28 582 261 q 558 0 569 11 q 530 -10 546 -11 q 503 3 514 -8 q 493 31 492 15 q 492 360 504 257 q 365 583 465 558 q 253 554 313 596 q 158 457 204 521 m 117 817 q 185 892 150 864 q 310 913 251 944 q 357 863 335 899 q 376 836 371 840 q 438 833 411 810 q 489 918 467 858 q 508 940 494 933 q 538 942 522 947 q 560 922 553 936 q 561 893 567 908 q 488 774 533 813 q 329 772 414 711 q 290 822 311 786 q 274 843 279 840 q 233 831 260 851 q 181 772 207 810 q 155 756 171 758 q 126 763 139 753 q 110 788 113 772 q 117 817 107 804 z "},"":{"ha":640,"x_min":57,"x_max":650,"o":"m 344 672 q 379 681 360 686 q 547 581 483 651 q 631 426 613 510 q 633 256 650 342 q 589 138 621 193 q 508 44 557 83 q 394 -7 458 6 q 250 0 329 -19 q 146 58 189 17 q 85 150 103 99 q 63 261 68 201 q 71 375 57 321 q 167 577 94 490 q 344 672 240 664 m 368 596 q 230 530 292 597 q 147 360 168 463 q 158 176 126 256 q 269 75 190 97 q 457 104 379 46 q 557 271 535 163 q 533 467 578 375 q 383 599 489 560 q 368 596 376 596 m 300 849 l 369 804 l 442 757 q 458 731 456 747 q 451 702 461 715 q 426 686 442 689 q 397 693 410 683 l 325 739 q 256 785 278 769 q 240 809 243 793 q 245 838 236 825 q 270 855 254 851 q 300 849 286 858 z "},"":{"ha":649,"x_min":57,"x_max":650,"o":"m 344 672 q 379 681 360 686 q 547 581 483 651 q 631 426 613 510 q 633 256 650 342 q 589 138 621 193 q 508 44 557 83 q 394 -7 458 6 q 250 0 329 -19 q 146 58 189 17 q 85 150 103 99 q 63 261 68 201 q 71 375 57 321 q 167 577 94 490 q 344 672 240 664 m 368 596 q 230 530 292 597 q 147 360 168 463 q 158 176 126 256 q 269 75 190 97 q 457 104 379 46 q 557 271 535 163 q 533 467 578 375 q 383 599 489 560 q 368 596 376 596 m 263 769 q 403 886 378 867 q 431 894 415 896 q 457 879 447 892 q 465 851 467 867 q 450 825 463 835 q 313 711 422 803 q 284 701 300 700 q 258 715 268 703 q 249 744 247 728 q 263 769 250 760 z "},"":{"ha":636,"x_min":57,"x_max":650,"o":"m 344 672 q 379 681 360 686 q 547 581 483 651 q 631 426 613 510 q 633 256 650 342 q 589 138 621 193 q 508 44 557 83 q 394 -7 458 6 q 250 0 329 -19 q 146 58 189 17 q 85 150 103 99 q 63 261 68 201 q 71 375 57 321 q 167 577 94 490 q 344 672 240 664 m 368 596 q 230 530 292 597 q 147 360 168 463 q 158 176 126 256 q 269 75 190 97 q 457 104 379 46 q 557 271 535 163 q 533 467 578 375 q 383 599 489 560 q 368 596 376 596 m 203 767 q 264 846 256 836 q 331 892 299 885 q 413 867 369 899 q 493 789 440 846 q 504 761 504 778 q 492 734 504 744 q 464 724 481 724 q 438 736 447 724 q 365 804 389 788 q 353 813 358 810 q 347 815 349 815 l 346 815 q 322 794 340 814 l 264 719 q 238 705 254 707 q 210 713 222 703 q 195 738 197 722 q 203 767 193 754 z "},"":{"ha":636,"x_min":57,"x_max":650,"o":"m 344 672 q 379 681 360 686 q 547 581 483 651 q 631 426 613 510 q 633 256 650 342 q 589 138 621 193 q 508 44 557 83 q 394 -7 458 6 q 250 0 329 -19 q 146 58 189 17 q 85 150 103 99 q 63 261 68 201 q 71 375 57 321 q 167 577 94 490 q 344 672 240 664 m 368 596 q 230 530 292 597 q 147 360 168 463 q 158 176 126 256 q 269 75 190 97 q 457 104 379 46 q 557 271 535 163 q 533 467 578 375 q 383 599 489 560 q 368 596 376 596 m 179 763 q 283 871 222 864 q 383 831 324 875 q 444 796 428 799 q 499 836 468 793 q 524 853 508 850 q 553 846 540 856 q 569 820 567 836 q 563 792 572 804 q 435 719 504 710 q 338 768 397 724 q 293 793 303 794 q 251 732 276 792 q 230 711 244 717 q 200 712 215 706 q 179 733 185 718 q 179 763 174 747 z "},"":{"ha":644,"x_min":57,"x_max":650,"o":"m 344 672 q 379 681 360 686 q 547 581 483 651 q 631 426 613 510 q 633 256 650 342 q 589 138 621 193 q 508 44 557 83 q 394 -7 458 6 q 250 0 329 -19 q 146 58 189 17 q 85 150 103 99 q 63 261 68 201 q 71 375 57 321 q 167 577 94 490 q 344 672 240 664 m 368 596 q 230 530 292 597 q 147 360 168 463 q 158 176 126 256 q 269 75 190 97 q 457 104 379 46 q 557 271 535 163 q 533 467 578 375 q 383 599 489 560 q 368 596 376 596 m 315 810 q 321 804 315 810 q 326 782 326 799 q 315 754 326 765 q 288 743 304 743 q 260 754 271 743 q 249 782 249 765 q 260 810 249 799 q 288 821 271 821 q 315 810 304 821 m 439 807 q 444 801 439 807 q 450 779 450 796 q 439 751 450 763 q 411 740 428 740 q 383 751 394 740 q 372 779 372 763 q 383 807 372 796 q 411 818 394 818 q 439 807 428 818 z "},"":{"ha":551,"x_min":64,"x_max":565,"o":"m 103 369 q 517 396 372 369 q 545 390 532 399 q 562 365 558 381 q 556 335 565 349 q 531 318 547 322 q 103 292 385 292 q 75 303 86 292 q 64 331 64 314 q 75 358 64 347 q 103 369 86 369 m 307 525 q 313 519 307 525 q 318 497 318 514 q 307 469 318 481 q 279 458 296 458 q 251 469 263 458 q 240 497 240 481 q 251 525 240 514 q 279 536 263 536 q 307 525 296 536 m 338 236 q 343 231 338 236 q 349 208 349 225 q 338 181 349 192 q 310 169 326 169 q 282 181 293 169 q 271 208 271 192 q 282 236 271 225 q 310 247 293 247 q 338 236 326 247 z "},"":{"ha":644,"x_min":56,"x_max":665,"o":"m 535 472 q 249 85 333 206 q 274 75 261 79 q 461 104 383 46 q 561 271 539 163 q 535 472 583 381 m 204 19 l 138 -83 q 113 -101 128 -97 q 83 -95 97 -104 q 66 -71 69 -86 q 71 -42 63 -56 l 142 65 q 72 209 89 121 q 75 375 56 297 q 172 577 99 490 q 349 672 244 664 q 383 681 364 686 q 535 600 472 656 l 594 679 q 619 694 603 692 q 648 687 635 696 q 663 662 661 678 q 656 632 665 646 l 586 539 q 640 401 626 478 q 638 256 653 325 q 593 138 625 193 q 512 44 561 83 q 398 -7 463 6 q 254 0 333 -19 q 204 19 228 7 m 372 596 q 234 530 296 597 q 151 360 172 463 q 188 132 122 217 q 488 536 271 250 q 388 599 446 578 q 372 596 381 596 z "},"":{"ha":561,"x_min":44,"x_max":563,"o":"m 540 615 q 543 431 543 549 q 546 219 543 314 q 561 42 549 125 q 553 13 563 25 q 527 -2 543 0 q 499 6 511 -4 q 483 31 486 15 q 479 63 482 46 q 235 10 358 -36 q 54 300 71 71 q 89 638 44 435 q 106 662 92 653 q 135 667 119 671 q 159 650 150 664 q 164 621 168 636 q 132 306 122 431 q 263 82 146 126 q 365 82 315 63 q 465 154 414 101 q 471 158 468 157 q 465 401 465 244 q 463 613 464 558 q 473 641 463 629 q 500 653 483 653 q 528 642 517 653 q 540 615 540 632 m 249 822 q 413 735 333 774 q 433 713 428 728 q 431 683 438 697 q 408 663 424 668 q 379 665 393 658 q 210 756 297 704 q 192 779 196 764 q 196 808 188 794 q 219 826 204 822 q 249 822 235 831 z "},"":{"ha":551,"x_min":40,"x_max":558,"o":"m 536 615 q 539 431 539 549 q 542 219 539 314 q 557 42 544 125 q 549 13 558 25 q 523 -2 539 0 q 494 6 507 -4 q 479 31 482 15 q 475 63 478 46 q 231 10 354 -36 q 50 300 67 71 q 85 638 40 435 q 101 662 88 653 q 131 667 115 671 q 155 650 146 664 q 160 621 164 636 q 128 306 118 431 q 258 82 142 126 q 360 82 311 63 q 461 154 410 101 q 467 158 464 157 q 460 401 461 244 q 458 613 460 558 q 469 641 458 629 q 496 653 479 653 q 524 642 513 653 q 536 615 536 632 m 225 715 q 394 838 322 774 q 423 847 407 849 q 450 834 439 846 q 460 806 461 822 q 447 779 458 790 q 264 649 371 713 q 235 644 250 640 q 211 663 219 649 q 207 692 203 676 q 225 715 211 707 z "},"":{"ha":553,"x_min":36,"x_max":554,"o":"m 532 615 q 535 431 535 549 q 538 219 535 314 q 553 42 540 125 q 544 13 554 25 q 519 -2 535 0 q 490 6 503 -4 q 475 31 478 15 q 471 63 474 46 q 226 10 350 -36 q 46 300 63 71 q 81 638 36 435 q 97 662 83 653 q 126 667 111 671 q 151 650 142 664 q 156 621 160 636 q 124 306 114 431 q 254 82 138 126 q 356 82 307 63 q 457 154 406 101 q 463 158 460 157 q 456 401 457 244 q 454 613 456 558 q 465 641 454 629 q 492 653 475 653 q 520 642 508 653 q 532 615 532 632 m 160 774 l 182 804 l 204 833 q 219 856 215 849 q 279 908 251 899 q 365 886 319 922 q 451 796 394 863 q 461 768 463 785 q 448 741 460 751 q 419 732 436 731 q 393 746 403 733 q 317 825 340 807 q 303 833 308 832 q 282 810 296 828 q 267 787 278 803 q 244 756 256 771 l 221 726 q 195 711 211 713 q 166 719 179 710 q 151 745 153 729 q 160 774 150 761 z "},"":{"ha":556,"x_min":44,"x_max":563,"o":"m 540 615 q 543 431 543 549 q 546 219 543 314 q 561 42 549 125 q 553 13 563 25 q 527 -2 543 0 q 499 6 511 -4 q 483 31 486 15 q 479 63 482 46 q 235 10 358 -36 q 54 300 71 71 q 89 638 44 435 q 106 662 92 653 q 135 667 119 671 q 159 650 150 664 q 164 621 168 636 q 132 306 122 431 q 263 82 146 126 q 365 82 315 63 q 465 154 414 101 q 471 158 468 157 q 465 401 465 244 q 463 613 464 558 q 473 641 463 629 q 500 653 483 653 q 528 642 517 653 q 540 615 540 632 m 272 747 q 278 742 272 747 q 283 719 283 736 q 272 692 283 703 q 244 681 261 681 q 217 692 228 681 q 206 719 206 703 q 217 747 206 736 q 244 758 228 758 q 272 747 261 758 m 411 749 q 417 743 411 749 q 422 721 422 738 q 411 693 422 704 q 383 682 400 682 q 356 693 367 682 q 344 721 344 704 q 356 749 344 738 q 383 760 367 760 q 411 749 400 760 z "},"":{"ha":626,"x_min":56,"x_max":656,"o":"m 313 29 q 212 162 254 92 q 141 313 169 232 q 95 462 113 394 q 60 626 78 529 q 65 655 56 642 q 90 672 74 668 q 119 666 106 675 q 135 640 132 657 q 217 331 172 456 q 351 103 263 207 q 576 643 504 399 q 595 666 581 658 q 625 669 610 674 q 648 651 640 665 q 651 621 656 636 q 396 21 572 354 q 392 13 394 17 l 235 -272 q 212 -290 228 -286 q 182 -287 196 -294 q 164 -263 168 -279 q 168 -233 160 -247 l 313 29 m 267 719 l 318 761 l 361 800 q 410 844 378 814 q 454 886 442 875 q 482 897 465 897 q 509 885 499 897 q 519 857 519 874 q 507 831 519 840 l 463 788 l 410 739 l 365 700 q 314 658 339 678 q 285 651 301 649 q 260 665 269 653 q 252 694 250 678 q 267 719 254 710 z "},"":{"ha":564,"x_min":76,"x_max":575,"o":"m 168 22 q 167 -178 167 -96 q 156 -206 167 -194 q 128 -217 144 -217 q 100 -206 111 -217 q 89 -178 89 -194 q 93 142 89 -92 q 94 540 97 375 q 78 860 92 706 q 87 888 76 875 q 113 901 97 900 q 142 892 129 903 q 156 865 154 882 q 171 551 168 718 q 372 618 271 642 q 474 561 429 606 q 543 456 518 517 q 572 331 568 397 q 557 201 575 264 q 485 88 539 138 q 349 18 432 38 q 168 22 244 -7 m 169 108 q 332 93 232 71 q 429 142 390 107 q 483 225 468 178 q 494 324 497 272 q 471 425 492 376 q 421 504 451 474 q 356 542 390 535 q 181 447 272 561 q 172 440 176 443 q 169 108 172 331 z "},"":{"ha":622,"x_min":56,"x_max":656,"o":"m 313 29 q 212 162 254 92 q 141 313 169 232 q 95 462 113 394 q 60 626 78 529 q 65 655 56 642 q 90 672 74 668 q 119 666 106 675 q 135 640 132 657 q 217 331 172 456 q 351 103 263 207 q 576 643 504 399 q 595 666 581 658 q 625 669 610 674 q 648 651 640 665 q 651 621 656 636 q 396 21 572 354 q 392 13 394 17 l 235 -272 q 212 -290 228 -286 q 182 -287 196 -294 q 164 -263 168 -279 q 168 -233 160 -247 l 313 29 m 344 786 q 350 781 344 786 q 356 758 356 775 q 344 731 356 742 q 317 719 333 719 q 289 731 300 719 q 278 758 278 742 q 289 786 278 775 q 317 797 300 797 q 344 786 333 797 m 488 786 q 493 781 488 786 q 499 758 499 775 q 488 731 499 742 q 460 719 476 719 q 432 731 443 719 q 421 758 421 742 q 432 786 421 775 q 460 797 443 797 q 488 786 476 797 z "},"":{"ha":1111,"x_min":33,"x_max":1121,"o":"m 417 885 q 336 867 357 876 q 169 673 229 814 q 119 379 108 532 q 211 136 131 224 q 453 58 300 40 q 644 184 571 72 q 723 453 717 296 q 665 731 729 610 q 483 881 601 851 q 417 885 474 883 m 500 960 q 1050 950 839 974 q 1076 935 1067 949 q 1085 906 1086 922 q 1070 881 1083 890 q 1042 872 1057 871 q 639 886 871 892 q 754 724 714 824 q 800 513 794 625 q 1029 525 951 525 q 1057 514 1046 525 q 1068 486 1068 503 q 1057 458 1068 469 q 1029 447 1046 447 q 799 435 954 447 q 753 225 793 324 q 642 63 713 126 q 1075 89 821 49 q 1103 81 1090 90 q 1119 56 1117 72 q 1112 27 1121 40 q 1086 11 1103 14 q 547 -6 769 -39 q 536 -1 542 -4 q 461 -19 500 -14 q 154 83 269 -42 q 42 374 56 190 q 60 594 33 483 q 149 798 86 704 q 300 936 211 892 q 386 958 332 951 q 406 963 396 963 l 414 963 q 428 964 422 963 q 444 961 436 965 q 490 958 472 961 q 500 960 494 960 z "},"":{"ha":972,"x_min":57,"x_max":983,"o":"m 640 321 q 758 349 715 322 q 831 428 803 376 q 860 529 860 479 q 833 601 860 576 q 736 629 801 632 q 655 603 688 628 q 590 526 622 579 q 640 321 644 435 m 525 58 q 250 0 410 -44 q 146 58 189 17 q 85 150 103 99 q 63 261 68 201 q 71 375 57 321 q 167 577 94 490 q 344 672 240 664 q 379 681 360 686 q 539 592 476 654 q 733 707 614 703 q 888 657 832 711 q 938 529 938 608 q 899 390 938 460 q 800 282 861 321 q 631 243 736 242 q 576 119 614 175 q 728 53 632 29 q 824 100 775 64 q 913 183 874 136 q 940 197 924 196 q 968 188 956 199 q 982 162 981 178 q 974 133 983 146 q 868 35 928 78 q 747 -22 808 -7 q 525 58 608 -57 m 368 596 q 230 530 292 597 q 147 360 168 463 q 158 176 126 256 q 269 75 190 97 q 457 104 379 46 q 557 271 535 163 q 533 467 578 375 q 383 599 489 560 q 368 596 376 596 z "},"":{"ha":289,"x_min":61,"x_max":283,"o":"m 138 1019 q 206 889 157 979 q 276 749 253 801 q 278 719 283 733 q 258 697 272 704 q 228 696 243 690 q 207 715 214 701 q 135 856 183 765 q 68 986 88 946 q 66 1015 61 1000 q 85 1038 71 1031 q 115 1040 100 1044 q 138 1019 131 1035 z "},"":{"ha":278,"x_min":42,"x_max":290,"o":"m 49 761 q 217 1058 149 956 q 241 1074 225 1071 q 270 1069 257 1078 q 287 1044 283 1060 q 281 1014 290 1028 q 118 725 215 917 q 96 706 111 711 q 66 708 81 701 q 47 731 51 715 q 49 761 42 746 z "},"":{"ha":350,"x_min":39,"x_max":350,"o":"m 114 938 q 174 824 139 894 q 228 713 215 736 q 230 683 235 699 q 211 660 225 668 q 182 658 197 653 q 158 676 167 663 l 103 790 q 47 899 71 858 q 43 928 39 913 q 61 951 47 943 q 90 956 75 960 q 114 938 106 951 m 240 957 l 274 886 l 313 800 q 344 729 332 754 q 344 699 350 714 q 324 677 339 683 q 294 676 310 671 q 272 696 279 682 l 240 768 l 204 853 l 171 924 q 169 953 164 938 q 188 975 174 968 q 218 977 203 982 q 240 957 233 972 z "},"":{"ha":368,"x_min":50,"x_max":393,"o":"m 57 738 q 192 975 121 869 q 216 991 200 988 q 245 985 232 994 q 262 960 258 976 q 256 931 265 944 q 126 704 189 833 q 104 684 119 689 q 74 686 89 679 q 55 708 60 693 q 57 738 50 724 m 183 701 q 319 932 226 796 q 344 948 328 944 q 373 942 360 951 q 390 917 386 933 q 383 888 393 901 q 253 668 293 756 q 232 649 247 654 q 202 649 217 643 q 182 671 188 656 q 183 701 176 686 z "},"":{"ha":950,"x_min":64,"x_max":960,"o":"m 799 231 q 753 189 765 218 q 749 125 740 160 q 783 76 758 92 q 843 74 808 61 q 878 112 868 82 q 875 179 888 142 q 838 226 863 214 q 799 231 821 235 m 782 307 q 871 296 831 315 q 949 206 925 269 q 959 128 958 168 q 935 51 960 89 q 868 -1 911 14 q 744 9 797 -25 q 674 104 692 43 q 672 189 663 143 q 713 267 682 235 q 732 289 718 282 q 779 306 757 301 q 782 307 781 306 m 210 875 q 164 833 176 863 q 160 769 151 804 q 194 721 169 736 q 254 718 219 706 q 289 756 279 726 q 286 824 299 786 q 249 871 274 858 q 210 875 232 879 m 193 951 q 282 940 242 960 q 360 850 336 914 q 370 773 369 813 q 347 696 371 733 q 279 643 322 658 q 156 653 208 619 q 85 749 103 688 q 83 833 74 788 q 124 911 93 879 q 143 933 129 926 q 190 950 168 946 q 193 951 192 950 m 471 239 q 425 197 438 226 q 421 133 413 168 q 456 85 431 100 q 515 82 481 69 q 550 120 540 90 q 547 188 560 150 q 510 235 535 222 q 471 239 493 243 m 454 315 q 543 304 503 324 q 621 214 597 278 q 631 137 631 176 q 608 60 632 97 q 540 7 583 22 q 417 17 469 -17 q 346 113 364 51 q 344 197 335 151 q 385 275 354 243 q 404 297 390 290 q 451 314 429 310 q 454 315 453 314 m 74 56 l 717 1013 q 742 1028 726 1025 q 770 1022 757 1032 q 787 997 783 1013 q 781 968 790 982 l 138 11 q 113 -6 128 -3 q 83 1 97 -8 q 67 26 69 11 q 74 56 64 42 z "},"":{"ha":833,"x_min":50,"x_max":854,"o":"m 121 597 q 261 593 183 592 q 300 692 278 644 q 395 838 340 775 q 513 928 450 900 q 654 939 581 961 q 786 839 728 917 q 794 810 796 826 q 779 785 792 794 q 751 777 767 775 q 725 792 735 779 q 544 857 642 901 q 451 784 497 836 q 371 658 406 732 q 344 597 356 629 q 461 604 382 599 l 579 613 q 608 603 596 614 q 621 576 619 592 q 611 548 622 560 q 585 535 600 536 q 459 526 549 533 q 321 518 369 519 q 303 350 299 429 l 313 350 l 536 354 q 564 343 553 354 q 575 315 575 332 q 564 288 575 299 q 536 276 553 276 q 466 276 503 276 q 384 274 429 275 q 314 272 339 272 q 422 114 340 165 q 512 84 461 89 q 607 96 563 79 q 788 218 681 124 q 816 228 800 229 q 843 215 832 226 q 853 187 854 203 q 840 160 851 171 q 635 24 722 57 q 506 6 575 0 q 381 47 436 13 q 235 272 265 121 q 88 276 151 272 q 60 290 71 278 q 51 318 50 301 q 65 345 53 335 q 93 354 76 356 q 225 350 153 350 q 240 515 221 429 q 115 519 172 515 q 88 533 99 521 q 79 562 78 546 q 93 588 81 578 q 121 597 106 599 z "},"":{"ha":907,"x_min":31,"x_max":906,"o":"m 63 886 q 134 908 96 894 q 199 933 172 921 l 271 964 q 339 994 315 983 q 369 994 354 1000 q 390 974 383 989 q 390 944 396 958 q 369 922 385 929 l 257 874 q 283 610 283 778 q 272 582 283 593 q 244 571 261 571 q 217 582 228 571 q 206 610 206 593 q 185 843 206 761 q 82 811 129 822 q 51 815 65 807 q 34 840 38 824 q 39 869 31 856 q 63 886 47 883 m 424 650 l 424 918 l 424 919 q 419 933 422 922 q 446 993 411 978 q 463 997 456 997 q 475 996 471 997 l 479 993 q 488 989 483 992 q 496 982 492 986 q 515 964 503 976 l 564 914 l 603 874 q 618 935 607 890 q 638 1006 631 988 q 653 1038 644 1026 q 675 1054 663 1049 q 711 1051 693 1060 q 743 1021 726 1044 q 765 982 753 1007 q 817 875 786 944 l 865 764 q 899 692 890 707 q 901 663 906 678 q 883 640 897 647 q 853 636 868 632 q 829 656 838 640 q 793 733 819 674 l 746 844 q 700 940 718 907 l 694 917 q 674 840 682 864 q 657 806 665 819 q 621 776 642 783 q 606 776 613 775 q 594 778 599 776 l 590 779 q 584 784 588 782 q 576 790 581 786 q 557 808 569 797 l 508 860 l 501 867 l 501 650 q 490 622 501 633 q 463 611 479 611 q 435 622 446 611 q 424 650 424 633 z "},"":{"ha":1389,"x_min":0,"x_max":0,"o":""},"":{"ha":1389,"x_min":-28,"x_max":1369,"o":"m 229 136 q 240 161 236 149 q 229 304 282 263 q 144 303 204 324 q 113 288 128 297 q 203 171 132 258 l 229 136 m 472 88 q 435 104 457 99 q 367 109 401 114 q 311 88 333 104 q 288 64 306 85 l 282 57 l 293 39 q 328 57 310 49 q 472 88 397 88 m 274 -176 q 306 -178 282 -182 q 399 -140 349 -171 q 476 -71 446 -110 q 511 6 507 -32 q 358 -14 438 19 q 325 -32 340 -22 q 322 -61 329 -47 q 300 -79 315 -75 q 274 -79 288 -85 l 268 -87 q 274 -176 244 -131 m 1281 490 l 1283 496 q 1290 536 1289 511 q 1269 660 1292 596 q 1242 718 1257 693 q 1238 697 1239 707 q 1234 640 1233 688 q 1242 556 1235 593 q 1264 496 1250 513 q 1281 490 1269 488 m 1229 192 q 1228 203 1229 196 q 1207 254 1224 224 q 1129 376 1181 306 q 1146 313 1138 339 q 1201 219 1163 269 q 1229 192 1218 199 m 625 315 q 604 326 613 318 q 569 354 583 350 q 557 269 553 333 q 593 153 563 196 q 653 132 619 118 q 663 153 660 135 q 658 224 667 181 q 650 263 656 243 q 636 289 640 278 q 632 299 636 290 q 625 314 628 308 l 625 315 m 235 889 q 361 718 288 814 l 422 639 l 456 596 q 446 685 446 668 q 453 772 446 729 q 478 858 461 814 q 530 937 494 903 q 615 986 565 971 q 644 983 631 990 q 663 960 658 975 q 660 931 668 944 q 638 911 653 917 q 551 832 579 893 q 524 685 524 771 q 538 569 524 675 q 546 503 544 524 q 547 478 547 486 q 546 464 547 469 q 542 450 544 456 q 511 431 531 433 q 498 432 504 431 q 489 435 492 433 l 486 436 q 481 440 483 439 l 476 444 q 472 450 475 446 l 458 467 l 418 517 l 361 592 l 300 671 l 171 844 q 164 873 161 857 q 180 899 167 889 q 209 906 193 908 q 235 889 225 903 m -24 225 l -21 233 q -19 242 -19 238 q -17 251 -18 247 q -3 289 -11 274 q 11 307 3 297 l 10 310 q 8 340 3 325 q 26 363 13 356 q 72 354 53 375 q 119 376 94 367 q 276 365 218 411 q 328 181 357 303 q 457 179 392 197 q 503 160 482 172 q 481 263 485 208 q 513 407 472 363 q 588 429 543 440 q 661 381 624 421 l 665 381 q 690 372 679 381 q 696 365 693 369 q 700 360 699 363 q 703 356 701 358 q 706 346 704 351 l 715 319 q 722 297 718 308 q 763 256 740 274 q 799 233 783 239 q 803 232 800 232 q 814 276 814 244 q 797 349 813 306 q 775 403 789 375 q 767 418 771 410 l 764 424 q 760 431 761 428 q 758 442 758 436 q 789 481 757 474 q 804 482 797 483 q 815 478 811 481 l 818 475 q 824 471 821 474 q 842 450 829 467 l 863 421 q 919 349 896 375 q 971 308 951 314 q 974 307 972 307 q 978 314 975 310 q 989 401 992 339 q 976 506 988 447 q 968 547 971 539 q 963 554 968 549 l 949 572 q 933 599 938 588 q 942 639 928 621 q 976 654 954 654 q 1000 647 989 654 q 1008 642 1003 644 l 1024 626 l 1032 618 q 1104 801 1042 750 q 1201 835 1151 840 q 1279 972 1228 892 q 1304 990 1289 986 q 1333 984 1319 993 q 1351 960 1347 975 q 1346 931 1354 944 q 1272 801 1296 854 q 1342 686 1315 763 q 1368 533 1369 607 q 1356 467 1367 494 q 1307 417 1340 429 q 1203 447 1244 396 q 1165 540 1176 479 q 1157 639 1157 586 q 1160 711 1156 694 q 1169 751 1164 731 q 1154 740 1163 747 q 1108 543 1103 699 l 1108 531 l 1176 444 q 1276 290 1243 354 q 1304 222 1296 250 q 1297 151 1314 178 q 1256 117 1281 125 q 1206 118 1232 108 q 1140 171 1174 129 q 1074 288 1093 231 q 1063 324 1068 303 q 1047 278 1057 297 q 1003 235 1031 246 q 946 235 976 224 q 892 268 919 243 q 847 168 890 201 q 772 160 817 143 q 742 175 757 165 q 739 142 742 157 q 683 60 731 79 q 610 51 646 44 q 661 8 639 33 q 669 -20 671 -4 q 656 -47 668 -36 q 627 -56 643 -57 q 600 -42 611 -54 q 585 -26 593 -33 q 532 -126 572 -79 q 440 -206 492 -174 q 318 -256 376 -246 q 208 -219 239 -268 q 200 -50 154 -133 q 231 -10 213 -29 q 211 25 222 7 q 188 61 186 35 l 142 122 q 58 231 76 204 q 51 203 53 207 q 32 180 46 188 q 3 177 18 172 q -20 196 -12 182 q -24 225 -28 210 m 726 606 q 732 600 726 606 q 738 578 738 594 q 726 550 738 561 q 699 539 715 539 q 671 550 682 539 q 660 578 660 561 q 671 606 660 594 q 699 617 682 617 q 726 606 715 617 z "}}}
